<ttFont>
          <CharString index="0">
            234 0 234 20 240 0 22 0 4 18 2 18 rrcurveto
            214 vlineto
            return
          </CharString>
          <CharString index="1">
            0 66 -4 64 -24 4 rrcurveto
            -68 hlineto
            -24 2 -24 0 -24 0 rrcurveto
            return
          </CharString>
          <CharString index="2">
            -194 -2 -186 0 -192 0 rrcurveto
            -24 -8 -50 -52 hvcurveto
            return
          </CharString>
          <CharString index="3">
            0 -10 2 -12 2 -14 rrcurveto
            28 -32 rlineto
            266 2 264 14 270 0 rrcurveto
            return
          </CharString>
          <CharString index="4">
            110 0 108 -2 106 0 32 0 8 26 0 24 0 96 -4 92 0 96 rrcurveto
            76 vlineto
            -8 22 -36 6 -32 0 rrcurveto
            return
          </CharString>
          <CharString index="5">
            -170 0 -164 -16 -176 0 rrcurveto
            144 26 vlineto
            return
          </CharString>
          <CharString index="6">
            160 0 150 8 158 8 2 -2 4 -2 4 0 8 0 6 6 2 14 0 96 -6 92 0 96 0 10 2 12 0 10 rrcurveto
            return
          </CharString>
          <CharString index="7">
            22 -8 12 -42 vhcurveto
            return
          </CharString>
          <CharString index="8">
            -476 hlineto
            0 54 10 50 6 54 160 -6 152 -2 160 0 rrcurveto
            28 hlineto
            68 -8 50 40 hvcurveto
            328 -1164 -414 vlineto
            0 -342 -8 -326 0 -342 rrcurveto
            return
          </CharString>
          <CharString index="9">
            -492 282 -316 548 vhcurveto
            56 0 54 8 56 0 rrcurveto
            26 hlineto
            142 0 346 42 50 58 rrcurveto
            22 vlineto
            0 8 -2 6 0 6 0 232 12 258 0 256 -28 36 -104 0 -84 0 rrcurveto
            -80 hlineto
            -120 0 -82 4 -144 0 rrcurveto
            -72 hlineto
            -26 -22 -10 -12 0 -22 rrcurveto
            0 -276 36 -40 rlineto
            24 0 20 2 18 0 rrcurveto
            72 2 44 -122 hlineto
            -58 -18 -54 -4 -70 0 rrcurveto
            -208 -6 172 116 hvcurveto
            30 vlineto
            0 16 -2 18 0 24 0 148 2 240 202 0 136 0 -56 -112 54 -18 166 0 160 -8 170 0 22 0 38 2 4 28 -6 54 -4 52 -10 58 rrcurveto
            -76 312 -362 44 -202 0 rrcurveto
            -340 -534 -128 -664 hvcurveto
            return
          </CharString>
          <CharString index="10">
            646 1530 hlineto
            -30 -4 -48 0 -32 0 -176 0 -160 0 -164 12 -12 -10 -6 -10 0 -14 0 -24 2 -26 2 -22 rrcurveto
            -30 vlineto
            0 -40 2 -42 2 -42 -8 -288 -4 -284 0 -280 -10 -138 -2 -150 -2 -138 rrcurveto
            return
          </CharString>
          <CharString index="11">
            -366 160 -442 620 vhcurveto
            202 0 274 58 124 170 rrcurveto
            44 60 rlineto
            104 142 46 192 -2 210 0 212 -54 172 -134 164 -136 178 -270 48 -158 0 -392 0 -394 -208 -34 -480 rrcurveto
            return
          </CharString>
          <CharString index="12">
            0 -58 4 -44 22 -58 rrcurveto
            568 hlineto
            return
          </CharString>
          <CharString index="13">
            6 2 6 14 hvcurveto
            -8 30 -24 28 -6 30 rrcurveto
            88 vlineto
            -24 196 18 288 -248 78 rrcurveto
            return
          </CharString>
          <CharString index="14">
            152 70 92 110 0 174 0 246 -160 142 -304 8 rrcurveto
            -872 hlineto
            -42 -38 -4 -24 hvcurveto
            -1492 vlineto
            10 -6 8 -4 10 -4 62 2 60 0 62 0 rrcurveto
            144 hlineto
            78 0 182 -12 6 44 rrcurveto
            488 44 vlineto
            return
          </CharString>
          <CharString index="15">
            0 50 2 32 22 10 rrcurveto
            24 hlineto
            return
          </CharString>
          <CharString index="16">
            68 154 -2 -130 -154 -126 -38 -102 hvcurveto
            -44 44 2 112 0 76 rrcurveto
            return
          </CharString>
          <CharString index="17">
            0 -62 6 -70 22 -6 rrcurveto
            286 hlineto
            56 0 -8 -86 2 -50 rrcurveto
            return
          </CharString>
          <CharString index="18">
            22 2 8 12 4 18 rrcurveto
            1072 vlineto
            112 0 110 -4 112 0 24 0 4 24 0 28 0 106 -2 98 0 104 rrcurveto
            28 vlineto
            32 -6 12 -72 vhcurveto
            return
          </CharString>
          <CharString index="19">
            -410 0 -408 -10 -416 0 -6 2 -6 0 -2 0 -18 0 -2 -52 0 -54 0 -40 4 -34 0 -16 rrcurveto
            0 -28 -4 -40 0 -34 rrcurveto
            return
          </CharString>
          <CharString index="20">
            0 -1218 30 -26 990 0 rlineto
            32 2 6 16 0 26 rrcurveto
            320 vlineto
            -10 26 -36 -2 -28 0 rrcurveto
            -128 hlineto
            -80 0 -92 -6 -88 0 -16 0 -16 2 -16 0 rrcurveto
            128 160 vlineto
            102 0 90 10 80 0 rrcurveto
            -2 vlineto
            10 0 2 6 6 14 rrcurveto
            26 vlineto
            0 34 -4 6 0 42 rrcurveto
            28 vlineto
            0 16 -2 12 0 10 rrcurveto
            38 vlineto
            0 10 4 14 0 10 0 24 -8 18 -40 0 -126 0 -116 -8 -118 0 rrcurveto
            -44 124 464 hlineto
            18 14 8 2 2 16 rrcurveto
            334 vlineto
            0 14 -8 10 -18 2 rrcurveto
            -266 hlineto
            -204 0 -206 -10 -202 0 rrcurveto
            -52 hlineto
            -6 2 -6 0 -10 0 rrcurveto
            -24 hlineto
            -38 4 -28 -56 hvcurveto
            return
          </CharString>
          <CharString index="21">
            26 -44 542 0 0 476 112 0 rlineto
            70 0 58 4 68 0 rrcurveto
            64 hlineto
            28 0 30 2 4 30 rrcurveto
            40 vlineto
            0 10 0 10 -2 8 rrcurveto
            90 vlineto
            0 40 4 40 0 38 rrcurveto
            58 vlineto
            -4 16 -52 16 -56 0 -14 -2 -14 0 -14 0 rrcurveto
            -82 hlineto
            -38 0 -36 -10 -34 -2 rrcurveto
            -94 hlineto
            -2 26 -2 16 0 22 rrcurveto
            36 468 340 vlineto
            12 6 28 -32 vhcurveto
            -944 hlineto
            -32 -28 2 -34 hvcurveto
            return
          </CharString>
          <CharString index="22">
            548 hlineto
            14 0 4 10 6 26 rrcurveto
            1302 -538 vlineto
            -10 -10 -22 0 -2 -14 rrcurveto
            return
          </CharString>
          <CharString index="23">
            876 vlineto
            -6 24 -26 4 -34 0 rrcurveto
            -470 hlineto
            return
          </CharString>
          <CharString index="24">
            -28 -12 -4 -14 0 -30 rrcurveto
            -60 vlineto
            0 -22 2 -16 0 -22 rrcurveto
            -64 vlineto
            return
          </CharString>
          <CharString index="25">
            -342 hlineto
            -46 -44 0 -24 hvcurveto
            return
          </CharString>
          <CharString index="26">
            44 vlineto
            136 24 160 126 120 24 -182 -122 vhcurveto
            -36 vlineto
            -158 -8 -194 -152 -128 -6 234 118 vhcurveto
            return
          </CharString>
          <CharString index="27">
            0 48 6 56 6 48 rrcurveto
            104 vlineto
            6 6 10 8 2 2 rrcurveto
            110 108 -8 -132 -120 -106 -44 -106 hvcurveto
            return
          </CharString>
          <CharString index="28">
            -6 0 -4 0 -2 2 rrcurveto
            -2 0 -2 2 vhcurveto
            2 vlineto
            0 4.40298461914 -23.5346984863 6.51538085938 -2.46530151367 3.08163452148 rrcurveto
            return
          </CharString>
          <CharString index="29">
            -26 40 -6 22 vhcurveto
            250 hlineto
            0 -16 2 -38 0 -18 0 -16 -2 -18 0 -16 rrcurveto
            -26 vlineto
            return
          </CharString>
          <CharString index="30">
            0 -192 -12 -174 -4 -182 rrcurveto
            0 -216 40 -28 56 0 rlineto
            48 0 38 2 46 0 rrcurveto
            80 hlineto
            16 0 16 2 16 0 rrcurveto
            -6 76 -2 52 vhcurveto
            64 hlineto
            28 4 0 10 4 18 rrcurveto
            return
          </CharString>
          <CharString index="31">
            920 284 vlineto
            10 0 16 2 2 22 rrcurveto
            320 vlineto
            0 18 0 18 -24 4 rrcurveto
            -1164 hlineto
            return
          </CharString>
          <CharString index="32">
            0 2 0 -34 rlineto
            0 -30 4 -30 0 -30 0 -10 -2 -12 0 -10 rrcurveto
            -28 vlineto
            -8 -160 4 -142 -2 -156 10 -312 216 -138 202 -24 rrcurveto
            46 hlineto
            38 -4 52 -8 38 2 rrcurveto
            2 vlineto
            10 20 2 8 hvcurveto
            24 hlineto
            14 -6 14 0 14 0 226 0 242 64 90 208 rrcurveto
            4 vlineto
            22 48 6 78 0 74 rrcurveto
            78 vlineto
            -2 14 0 16 0 18 0 18 2 20 0 22 rrcurveto
            62 vlineto
            return
          </CharString>
          <CharString index="33">
            4 166 6 152 6 170 rrcurveto
            156 -556 vlineto
            -18 -8 -10 -14 0 -18 4 -78 0 -86 0 -88 rrcurveto
            return
          </CharString>
          <CharString index="34">
            0 -6 32 -40 rlineto
            112 8 108 -2 112 10 0 -2 2 0 2 0 8 0 8 6 4 18 0 114 -2 112 -2 114 -4 22 -46 2 -32 0 -66 0 -44 -4 -54 0 rrcurveto
            -34 0 -36 2 -36 2 -30 -16 -2 -246 0 -94 rrcurveto
            return
          </CharString>
          <CharString index="35">
            -44 282 vlineto
            48 0 46 4 6 26 0 12 0 12 2 10 rrcurveto
            32 vlineto
            0 42 -6 42 0 42 rrcurveto
            86 vlineto
            0 14 2 14 0 10 0 24 -4 20 -18 6 rrcurveto
            -334 hlineto
            -26 -2 -28 -24 hvcurveto
            0 -102 6 -96 -2 -102 rrcurveto
            return
          </CharString>
          <CharString index="36">
            -48 180 -36 116 172 158 86 160 112 -80 82 -148 vhcurveto
            10 20 34 40 0 20 0 18 -10 14 -22 2 rrcurveto
            -179.130859375 0 -126.1875 -218.844726562 rlineto
            8 -26 25.318359375 -21.1552734375 16 -8 rrcurveto
            44 -32 rlineto
            10 -6 18 -2 12 0 rrcurveto
            12 32 vlineto
            4 2 8 2 8 0 18 0 24 -6 2 -18 0 -40 -72 0 -12 0 -34 -2 -36 8 -34 14 rrcurveto
            -64 24 rlineto
            -32 -2 -20 -42 -14 -28 rrcurveto
            -28 vlineto
            -8 -18 -8 -20 0 -14 rrcurveto
            return
          </CharString>
          <CharString index="37">
            322 16 414 74 0 456 0 374.838867188 -347.799804688 57.5048828125 -306.200195312 77.65625 -46 16 -132 16 0 64 0 52 110 12 14 0 124 0 -88 -96 136 0 160 0 146 2 154 6 rrcurveto
            36 36 rlineto
            -11.7646484375 157.642578125 -44.87109375 50.9931640625 -139.364257812 139.364257812 -132 82 -170 22 -146 0 -336 0 -392 -132 0 -414 0 -230 138 -116 318 -86 54 -14 318 -34 0 -110 0 -66 -64 -36 -60 0 rrcurveto
            -146 0 52 132 -78 0 -166 0 -172 -8 -166 0 -8 0 -6 0 -6 2 -14 -2 -6 -6 0 -14 30.7333984375 -368.797851562 285.510742188 -97.177734375 371.755859375 -16.0244140625 rrcurveto
            return
          </CharString>
          <CharString index="38">
            -262 hlineto
            -6 -8 -20 -8 -6 -6 rrcurveto
            -22 vlineto
            51.5107421875 -225.359375 135.010742188 -148.640625 253.478515625 0 208 0 186 112 44 258 rrcurveto
            26 -18 6 -22 vhcurveto
            -114 hlineto
            -58 2 -56 -2 -58 4 -42 -22 22 -98 -84 0 -105.344726562 0 69.1630859375 132 -117.818359375 0 rrcurveto
            return
          </CharString>
          <CharString index="39">
            -26 42.625 -10.740234375 38 vhcurveto
            314 hlineto
            36 0 48 106 14 14 26 -42 16 -60 52 -26 96 6 90 2 102 0 rrcurveto
            68 hlineto
            32 22.6220703125 14.7294921875 18 hvcurveto
            -264.0546875 369.67578125 -354.567382812 -10.4052734375 rlineto
            -166 -6 22 -30 -52 -64 rrcurveto
            return
          </CharString>
          <CharString index="40">
            34 -44 10 -8 46 0 390 0 386 12 392 0 rrcurveto
            24 hlineto
            54 22 8 64 hvcurveto
            0 26 -4 30 0 20 rrcurveto
            92 vlineto
            86 0 102 -32 vhcurveto
            -576 0 290 344 rlineto
            182.845703125 217.129882812 111.154296875 39.8603515625 0 357.009765625 rrcurveto
            6 vlineto
            0 10 4 26 0 24 rrcurveto
            78 -12 -2 -72 vhcurveto
            -212 hlineto
            -330.045898438 -4.0498046875 -336.145507812 -3.9501953125 -325.80859375 0 -16 0 -4 -24 0 -56 0 -60 8 -80 0 -28 rrcurveto
            -120 vlineto
            0 -24 2 -18 22 -6 182 0 172 6 182 0 rrcurveto
            -292 -356 rlineto
            -196 -240 -94 -124 -2 2 rrcurveto
            -6 -4 -230 -90 hvcurveto
            return
          </CharString>
          <CharString index="41">
            -334 hlineto
            -16 -4 -8 -14 hvcurveto
            6 -316 254 -38 252 0 174 0 272 66 0 282 0 116 -54 86 -146 42 rrcurveto
            return
          </CharString>
          <CharString index="42">
            84 30 94 42 0 154 0 208 -238 96 -166 0 -194 0 -230 -22 -74 -186 rrcurveto
            -30 vlineto
            -16 -40 2 -40 -4 -38 rrcurveto
            -24 24 -2 30 vhcurveto
            36 hlineto
            52 0 54 -8 52 4 rrcurveto
            108 hlineto
            48 16 -46 100 94 0 rrcurveto
            42 24 -30 -38 -84 -48 -28 -70 hvcurveto
            -56 hlineto
            -32 -6 -42 -70 hvcurveto
            -46 vlineto
            -40 24 -26 38 vhcurveto
            6 0 4 0 6 2 rrcurveto
            return
          </CharString>
          <CharString index="43">
            0 -30 2 -48 0 -30 rrcurveto
            524 hlineto
            38 -14 106 86 hvcurveto
            852 vlineto
            22 -14 6 -10 vhcurveto
            -496 hlineto
            -12 -4 -10 -14 hvcurveto
            -26 vlineto
            -2 -130 -8 -138 0 -126 rrcurveto
            -208 vlineto
            -2 -102 -4 -104 2 -106 rrcurveto
            return
          </CharString>
          <CharString index="44">
            70 0 66 -4 58 0 rrcurveto
            170 0 28 40 rlineto
            -10 74 -8 78 -56 56 -93.88671875 112.6640625 -198.328125 83.3359375 -221.78515625 0 -291.836914062 0 -336.163085938 -115.491210938 0 -344.508789062 0 -198 114 -128 294 -86 rrcurveto
            60 hlineto
            86 -24 172 -30 0 -64 0 -56 -56 -24 -46 0 -130 0 52 118 -74 0 rrcurveto
            -46 hlineto
            -64 0 -76 0 -58 -2 -6 2 -4 0 -4 0 rrcurveto
            -26 hlineto
            -14 0 -12 0 -14 -2 rrcurveto
            -102 hlineto
            -12 0 -12 2 -12 0 -14 0 -8 -8 0 -16 10 -128 50 -106 126 -94 rrcurveto
            -12 vlineto
            102 -80 200 -14 120 -6 242 16 296 40 88 266 rrcurveto
            -2 vlineto
            16 48 8 52 0 64 0 264 -226 98 -190 52 rrcurveto
            -146.506835938 35.935546875 rlineto
            -44 22 -111.493164062 0.064453125 0 56 0 38 80 6 14 0 150.509765625 0 -47.576171875 -80 99.06640625 0 rrcurveto
            return
          </CharString>
          <CharString index="45">
            88 vlineto
            0 192 8 200 0 192 -22 22 -80 6 -78 0 rrcurveto
            -96 hlineto
            -42 0 -56 2 -50 2 rrcurveto
            -90 hlineto
            -10 2 -10 2 -10 0 rrcurveto
            -94 hlineto
            -26 -16 -8 -12 0 -24 rrcurveto
            -8 vlineto
            0 -10 -2 -6 0 -6 rrcurveto
            -28 vlineto
            0 -30 -2 -22 0 -26 rrcurveto
            -62 vlineto
            0 -10 0 -10 2 -10 rrcurveto
            34 -38 84 0 rlineto
            10 0 12 2 14 0 rrcurveto
            38 hlineto
            0 -10 -2 -8 0 -6 0 -16 2 -10 0 -16 rrcurveto
            -44 vlineto
            -50 -16 -46 -2 -58 0 rrcurveto
            -164 -12 132 100 hvcurveto
            76 vlineto
            0 18 -2 28 0 26 0 116 14 152 144 0 48 0 22 -18 10 -22 rrcurveto
            2 vlineto
            14.796875 -19.7294921875 0.763671875 -34.1240234375 24.439453125 -8.146484375 rrcurveto
            110 hlineto
            94 0 94 -6 64 0 rrcurveto
            82 hlineto
            18 46 4 30 hvcurveto
            -22.193359375 88.7724609375 0.8388671875 81.033203125 -46.6455078125 62.1943359375 -118.055664062 165.278320312 -281.537109375 46.7216796875 -144.407226562 0 -188 0 -256 -38 -150 -192 rrcurveto
            0 2 0 -14 -28 -34 rlineto
            -88 -122 -38 -148 0 -154 0 -176 40 -138 80 -126 rrcurveto
            32 -42 rlineto
            10 -14 10 -12 14 -10 rrcurveto
            42 -36 rlineto
            180 -142 216 -8 166 0 115.826171875 0 455.881835938 37.6845703125 18.2919921875 82.3154296875 rrcurveto
            return
          </CharString>
          <CharString index="46">
            10 -26 10 -28 14 -26 rrcurveto
            102 hlineto
            20 0 20 0 24 4 rrcurveto
            40 hlineto
            144 6 -10 70 30 82 rrcurveto
            112 306 rlineto
            102.928710938 304.404296875 102.463867188 304.870117188 102.607421875 304.725585938 20 60 44 92 0 48 rrcurveto
            28 -20 6 -40 vhcurveto
            -34 hlineto
            -24 0 -56 4 -54 0 -46 0 -44 -6 -4 -10 -186.474609375 -491.525390625 -184.27734375 -493.72265625 -181.248046875 -496.751953125 -6 -14 -4 -14 -4 -14 rrcurveto
            return
          </CharString>
          <CharString index="47">
            40 hlineto
            54 0 52 2 54 0 rrcurveto
            32 hlineto
            12 -2 12 0 14 0 48 0 52 2 0 24 0 220 -10 224 0 216 0 88 4 84 0 86 rrcurveto
            86 vlineto
            0 32 0 10 -16 2 -10 -2 -10 0 -8 0 rrcurveto
            -28 hlineto
            -26 0 -24 -2 -26 0 -60 0 -58 2 -58 2 -30 -52 -88 -52 -58 -22 rrcurveto
            -132 -62 rlineto
            -8 0 -98 -94 hvcurveto
            -100 vlineto
            2 -14 8 -6 14 0 70 24 64 32 62 40 0 -214 -8 -184 0 -216 rrcurveto
            -42.1484375 21.25 -13.8515625 42.75 vhcurveto
            return
          </CharString>
          <CharString index="48">
            2 -10 22 -28 6 -6 rrcurveto
            1118 hlineto
            38 18 10 42 hvcurveto
            260 vlineto
            46 -8 34 -24 vhcurveto
            -500 0 48 52 44 56 rlineto
            134.424804688 152.908203125 139.984375 153.349609375 133.590820312 153.7421875 rrcurveto
            16 vlineto
            0 6 2 2 6 16 0 6 6 72 0 134 -2 6 -2 4 0 2 0 10 4 18 0 22 rrcurveto
            60 -14 -2 -36 vhcurveto
            -1108 -346 hlineto
            0 -18 8 -8 16 -8 rrcurveto
            64 hlineto
            22 0 22 2 22 0 rrcurveto
            26 hlineto
            102 0 98.962890625 3.46875 96 -2 rrcurveto
            -84.962890625 -99.46875 rlineto
            -134.645507812 -168.020507812 -132.671875 -165.995117188 -140.682617188 -161.984375 -10 -10 0 -78 0 -52 rrcurveto
            -52 vlineto
            0 -22 -2 -22 0 -18 rrcurveto
            return
          </CharString>
          <CharString index="49">
            0 -22 32 -40 42 -42 rrcurveto
            42 -44 rlineto
            69.3212890625 -77.345703125 68.2060546875 -74.4609375 66.47265625 -80.193359375 rrcurveto
            324 hlineto
            40 40 -2 34 hvcurveto
            0 14 -32 28 -14 20 rrcurveto
            22 vlineto
            -45.5830078125 71.083984375 -44.3857421875 72.28125 -44.03125 72.634765625 -24 38 -18 24 -10 2 rrcurveto
            -40 hlineto
            -144 0 -140 6 -144 10 -16 -8 -8 -14 0 -10 rrcurveto
            return
          </CharString>
          <CharString index="50">
            10 -14 8 -12 10 -10 38 0 32 2 34 0 rrcurveto
            28 hlineto
            86 0 84 6 86 0 rrcurveto
            80 hlineto
            54 0 48 2 10 22 rrcurveto
            52 212 344 0 rlineto
            40 0 36 -74 12 -60 rrcurveto
            -66 vlineto
            18 -50 150 16 70 0 80 0 78 2 80 0 rrcurveto
            92 hlineto
            54 15.3203125 9.1533203125 26 hvcurveto
            -461.44140625 1461.22949219 rlineto
            38 -51.87890625 1.6171875 -40 vhcurveto
            -168 hlineto
            -118 0 -112 -4 -118 0 rrcurveto
            -168 hlineto
            -6 -6 -4 -8 -6 -10 -161.49609375 -492.400390625 -177.403320312 -483.522460938 -137.100585938 -508.077148438 rrcurveto
            return
          </CharString>
          <CharString index="51">
            79.5390625 346.564453125 rlineto
            26 116 48.2275390625 105.634765625 24 0 rrcurveto
            128.86328125 -575.390625 rlineto
            -32 -131.090820312 -8.244140625 -82 vhcurveto
            -66 hlineto
            return
          </CharString>
          <CharString index="52">
            24 -44 216 0 rlineto
            116 6 32 -14 68 76 rrcurveto
            270.708984375 304.026367188 rlineto
            0 30.1220703125 -274.619140625 1.037109375 -44.08984375 2.814453125 rrcurveto
            -192.443359375 4.9599609375 rlineto
            return
          </CharString>
          <CharString index="53">
            11.0947265625 -16.23828125 10.6259765625 -16.7080078125 10.279296875 -17.0537109375 64 2 62 6 64 0 18 0 26 -2 26 0 44 0 46 6 6 22 rrcurveto
            320 vlineto
            0 22 -6 20 -18 6 rrcurveto
            -328 hlineto
            -24 -12 -172 -118 hvcurveto
            return
          </CharString>
          <CharString index="54">
            -2 24 -12 14 -22 2 rrcurveto
            -544 hlineto
            -42 -42 12 -158 -104 0 -112 6 -20 144 0 106 0 38 4 32 0 26 8 156 -24 228 174 0 132 0 -76 -210 96 0 10 0 10 2 10 0 rrcurveto
            66 0 104 -4 96 0 rrcurveto
            114 106 4 28 hvcurveto
            96 vlineto
            -32 290 -192 220 -440 0 -312 0 -462 -146 -34 -508 rrcurveto
            -88 vlineto
            -354 106 -506 654 vhcurveto
            383.223632812 0 298.359375 191.533203125 46.4169921875 408.466796875 rrcurveto
            return
          </CharString>
          <CharString index="55">
            162 0 124 88 10 266 -6 16 -6 20 -22 0 rrcurveto
            -252 0 -34 -28 rlineto
            0 -12.892578125 -4.1240234375 -11.2724609375 -5.8759765625 -7.8349609375 rrcurveto
            -2 -2 8 0 hvcurveto
            -34 hlineto
            -18 6 -20 22 -22 6 rrcurveto
            -68 hlineto
            -42 12 -50 14 -46 -2 -188 0 -116 -108 0 -240 0 -16 4 -12 16 -6 rrcurveto
            128 hlineto
            42 2 48 -2 44 4 22 0 -20 52 34 0 103.338867188 0 105.331054688 -70 115.330078125 0 rrcurveto
            return
          </CharString>
          <CharString index="56">
            44 -24 460 0 rlineto
            30 10 24 22 hvcurveto
            126 vlineto
            0 88 -4 88 0 88 0 118 2 116 0 118 81.2607421875 -218.739257812 82.6943359375 -217.305664062 80.044921875 -219.955078125 24 -66 22 -56 12 -4 rrcurveto
            294 hlineto
            104 0 98 4 104 0 rrcurveto
            26 hlineto
            30 0 28 4 6 22 rrcurveto
            694 vlineto
            0 264 0 254 -6 278 rrcurveto
            2 -6 4 -10 vhcurveto
            -76 hlineto
            -50 0 -104 4 -90 0 -86 0 -74 -4 0 -24 2 -134 -6 -130 0 -128 rrcurveto
            0 -388 -140 366 rlineto
            -54 132 -100 304 -22 0 rrcurveto
            -688 hlineto
            -4 -2 -4 -14 0 -10 rrcurveto
            -82 vlineto
            -8 -318 -10 -310 2 -318 rrcurveto
            return
          </CharString>
          <CharString index="57">
            174 18 -214 -146 -216 -8 -240 -210 hvcurveto
            -148 8 -26 196 0 136 rrcurveto
            162.517578125 1.212890625 313.482421875 198.787109375 vhcurveto
            return
          </CharString>
          <CharString index="58">
            16 -456 380 -102 332 0 350 0 362 112 0 448 0 90 4 96 0 90 rrcurveto
            224 vlineto
            0 160 2 176 6 160 rrcurveto
            -44 16 hlineto
            -192 2 -186 2 -198 0 -10 -2 -14 -10 -2 -16 rrcurveto
            -48 vlineto
            0 -24 4 -22 0 -22 rrcurveto
            -72 vlineto
            4 -150 -8 -136 2 -150 rrcurveto
            -366 vlineto
            -60 -36 -58 -58 -86 -2 102 74 vhcurveto
            390 vlineto
            1.9931640625 189.311523438 -7.978515625 177.3984375 -4.0146484375 183.290039062 -10 0 -14 10 -16 2 rrcurveto
            -136 hlineto
            -134 0 -130 -2 -126 -6 -10 0 -10 2 -10 0 -18 -14 -2 -64 0 -58 0 -52 4 -48 0 -22 rrcurveto
            -12 vlineto
            0 -250 -2 -238 -2 -246 rrcurveto
            return
          </CharString>
          <CharString index="59">
            308 hlineto
            26 0 0 2 6 -26 rrcurveto
            38 -152 rlineto
            4 -22 24 -2 30 -4 rrcurveto
            464 hlineto
            42 14 6 38 hvcurveto
            -6 22 -18 24 -6 26 rrcurveto
            0 20 0 -2 rlineto
            -35.5126953125 101.8203125 -35.451171875 102.834960938 -32.3486328125 104.984375 rrcurveto
            -39.703125 144.630859375 rlineto
            -22.134765625 65.767578125 -48.626953125 80.1787109375 -8.22265625 65.783203125 rrcurveto
            12 vlineto
            -47.4921875 143.840820312 -47.2470703125 144.086914062 -47.2607421875 144.072265625 -10 18 -10 16 -2 12 rrcurveto
            26 vlineto
            -12 20 -62 4 -78 0 rrcurveto
            -539.985351562 3.970703125 rlineto
            -9.7841796875 -9.7841796875 -1.9375 -4.3642578125 -8.29296875 -13.822265625 -32.7197265625 -101.947265625 -32.669921875 -101.997070312 -34.6103515625 -100.055664062 rrcurveto
            2 vlineto
            -109.459960938 -328.540039062 -93.7578125 -328.2421875 -108.782226562 -329.217773438 rrcurveto
            -34 432 vlineto
            146.022460938 0 -24.7431640625 106.31640625 30.720703125 103.68359375 rrcurveto
            return
          </CharString>
          <CharString index="60">
            0 -8 8 -8 2 -8 rrcurveto
            -22 vlineto
            8 -30 10 -42 0 -22 rrcurveto
            -248 hlineto
            0 10 10 36 0 18 18.212890625 78.453125 17.9189453125 78.748046875 17.8681640625 78.798828125 0 4 12 4 4 12 rrcurveto
            48 vlineto
            10.1181640625 53.904296875 20.1025390625 76.14453125 17.779296875 3.951171875 rrcurveto
            2 vlineto
            14 -6 8 -8 6 -16 rrcurveto
            -48 vlineto
            29.939453125 -89.8193359375 13.728515625 -101.421875 20.33203125 -94.7587890625 rrcurveto
            return
          </CharString>
          <CharString index="61">
            50 0 70 4 48 10 rrcurveto
            6 vlineto
            238 42 192 158 30 276 rrcurveto
            38 vlineto
            -2 24 -8 16 -26 0 rrcurveto
            -74 hlineto
            -56 0 -54 -2 -56 0 -80 0 -80 2 -80 0 -44 -44 14 -126 -86 0 rrcurveto
            -104 -4 152 40 hvcurveto
            112 vlineto
            116 -14 196 142 vhcurveto
            50 0 32 -50 6 -40 rrcurveto
            -86 428 vlineto
            42 0 32 2 6 30 rrcurveto
            86 vlineto
            -32 228 -148 216 -428 0 -248 0 -252 -82 -128 -266 rrcurveto
            2 vlineto
            -54 -108 -4 -92 -10 -108 rrcurveto
            -14 vlineto
            -416.069335938 234.569335938 -321.930664062 457.430664062 vhcurveto
            return
          </CharString>
          <CharString index="62">
            0 -166 -10 -158 -10 -176 rrcurveto
            -148 vlineto
            -76.8466796875 219.153320312 -74.3017578125 221.698242188 -80.8515625 215.1484375 0 16 -8 2 -16 6 rrcurveto
            -168 hlineto
            -144 0 -150 -8 -138 0 rrcurveto
            4 vlineto
            -16 0 -4 -22 -4 -14 rrcurveto
            -216 vlineto
            -10 -340 4 -372 -10 -332 rrcurveto
            44 -44 412 0 rlineto
            42 10 2 14 0 36 rrcurveto
            204 vlineto
            6 128 0 130 6 134 rrcurveto
            0 6 0 -6 rlineto
            58.1181640625 -191.791015625 73.41796875 -185.53125 66.4638671875 -186.677734375 16 -46 20 -36 10 -2 rrcurveto
            560 hlineto
            22 0 30 2 4 32 rrcurveto
            364 vlineto
            0 120 -4 116 0 136 rrcurveto
            106 vlineto
            0 34 0 38 2 40 rrcurveto
            0 57.7265625 19.4228515625 266.740234375 -41.4228515625 15.533203125 rrcurveto
            return
          </CharString>
          <CharString index="63">
            -60 vlineto
            26 -444 298 -206 338 0 170 0 250 40 128 160 rrcurveto
            40 50 rlineto
            92 126 40 146 0 196 0 198 -68 142 -96 120 rrcurveto
            28 vlineto
            -130 168 -256 32 -128 0 -120.2265625 -18.9833984375 -108.227539062 -18.3076171875 -93.5458984375 -38.708984375 rrcurveto
            -38 hlineto
            -58 -24 -48 -26 -40 -46 rrcurveto
            -24 -24 rlineto
            -146 -146 -12 -176 -18 -156 rrcurveto
            return
          </CharString>
          <CharString index="64">
            0 -152 -4 -144 -2 -146 rrcurveto
            -148 vlineto
            -50 -30 -46 -44 -70 -6 86 44 vhcurveto
            840 -544 vlineto
            -16 -16 -4 -58 0 -54 rrcurveto
            0 -51.33984375 -0.8310546875 -38.5068359375 4.8310546875 -24.1533203125 rrcurveto
            return
          </CharString>
          <CharString index="65">
            16 -140 102 -148 186 0 rrcurveto
            152 138 124 168 170 -142 122 -158 hvcurveto
            -223.872070312 0 -5.8037109375 -167.3515625 -64.32421875 -128.6484375 rrcurveto
            return
          </CharString>
          <CharString index="66">
            10 66 54 34 52 0 rrcurveto
            52 56 -36 -74 -70 -44 -38 -58 hvcurveto
            -56 0 -60 38 -6 80 rrcurveto
            return
          </CharString>
          <CharString index="67">
            32 -32 230 0 rlineto
            98 0 113.543945312 -0.310546875 10 22 rrcurveto
            193.918945312 633.087890625 rlineto
            26 -73.462890625 1.22265625 -76 vhcurveto
            -356 hlineto
            -53.912109375 0 -95.49609375 -546.943359375 -22.591796875 -103.056640625 rrcurveto
            return
          </CharString>
          <CharString index="68">
            -8 34 -8 10 -18 2 rrcurveto
            -564 0 -183.20703125 -585.552734375 rlineto
            -30.4013671875 104.529296875 -117.5234375 466.736328125 -66.8681640625 10.287109375 -102 0 -106 2 -104 0 rrcurveto
            -252 hlineto
            -26 -37.0615234375 -16.984375 -18 hvcurveto
            171.350585938 -287.264648438 rlineto
            75.658203125 -151.0078125 68.7333984375 -155.395507812 75.3193359375 -151.34765625 64 -122 36 -136 0 -172 rrcurveto
            -72 vlineto
            0 -56 6 -72 -10 -48 0 -24 6 -30 30 -30 196 0 178 4 190 0 26 0 8 10 6 22 rrcurveto
            500 vlineto
            158.279296875 327.796875 175.384765625 311.651367188 162.3359375 322.551757812 rrcurveto
            return
          </CharString>
          <CharString index="69">
            238.998046875 -374.083984375 400 0 rlineto
            128 0 8 50 44 66 35.712890625 56.9541015625 38.244140625 54.421875 38.04296875 54.6240234375 22 32 30 38 0 24 rrcurveto
            14 -6 8 -12 vhcurveto
            -128 hlineto
            -82 0 -78 2 -86 0 -32 -42 -28 -56 -32 -42 rrcurveto
            -38 66 rlineto
            -40 70 -18 4 -52 0 -114 0 -96 8 -110 0 -18 -8 -12.998046875 -11.916015625 0 -14 rrcurveto
            return
          </CharString>
          <CharString index="70">
            -150 134 -50 150 88 188 22 42 vhcurveto
            44 vlineto
            -10 54 -18 54 -20 0 -6 0 -6 -2 -100 -18 -50 0 -44 16 0 48 0 58 68 64 70 44 rrcurveto
            90 66 rlineto
            0 18 -36 20 0 2 0 0 -188 -2 -12 2 -136 -30 -162 -142 0 -160 rrcurveto
            return
          </CharString>
          <CharString index="71">
            -250 vlineto
            16 -26 18 4 34 0 rrcurveto
            408 -146 hlineto
            6 -10 10 -6 8 -10 rrcurveto
            364 hlineto
            26 0 18 26 hvcurveto
            0 22 0 20 -2 18 rrcurveto
            64 98 vlineto
            22 2 22 64 hvcurveto
            0 74 -6 80 0 12 rrcurveto
            2 2 2 2 34 -6 6 -30 hvcurveto
            -60 hlineto
            -26 -4 26 26 hvcurveto
            0 16 2 16 0 16 rrcurveto
            84 vlineto
            0 128 4 122 0 126 rrcurveto
            48 -162 vlineto
            -72 0 -66 -10 -72 -2 rrcurveto
            -156 hlineto
            -120.45703125 -205.69921875 -151.713867188 -177.5546875 -87.8291015625 -232.74609375 rrcurveto
            return
          </CharString>
          <CharString index="72">
            65.71875 114.28125 64.65234375 115.34765625 63.62890625 116.37109375 2 6 6 4 8 2 22 -6 6 -106 0 -90 0 -40 0 -44 -4 -18 rrcurveto
            -10 vlineto
            0 -16 2 -18 0 -18 -8 -38 -152 10 -58 0 -3.7880859375 11.36328125 -8.8916015625 12.6669921875 -5.3203125 11.9697265625 rrcurveto
            return
          </CharString>
          <CharString index="73">
            0 46 -214.940429688 355.477539062 -500.864257812 -5.4775390625 247.8046875 -310 rlineto
            50 -60 4 -26 76 0 rrcurveto
            return
          </CharString>
          <CharString index="74">
            257.678710938 -293.005859375 rlineto
            72 -82 24 0 116 0 rrcurveto
            232 24 hlineto
            6 8 2 8 6 8 -73.83203125 121.500976562 -69.0087890625 122.325195312 -79.1591796875 116.173828125 rrcurveto
            -214 hlineto
            -82 -2 -88 -6 -86 0 -12 -2 -11.6787109375 -12.994140625 0 -10 rrcurveto
            return
          </CharString>
          <CharString index="75">
            88 0 -30 -94 46 -20 rrcurveto
            286 hlineto
            22 18 4 26 hvcurveto
            -57.9404296875 231.762695312 -141.479492188 138.237304688 -238.580078125 0 -251.8046875 0 -120.580078125 -146.181640625 -51.615234375 -225.818359375 rrcurveto
            -24 vlineto
            8 -8 2 -14 14 0 12 0 10 4 14 0 rrcurveto
            88 hlineto
            42 0 46 4 42 2 117.3671875 0 -69.7587890625 122 106.391601562 0 rrcurveto
            return
          </CharString>
          <CharString index="76">
            96 0 32 -26 6 -136 16 -92 18 -242 48 -16 rrcurveto
            100 hlineto
            30 -2 34 0 34 0 rrcurveto
            75.6357421875 0 252.192382812 -30.171875 48.171875 48.171875 rrcurveto
            return
          </CharString>
          <CharString index="77">
            -1336 526 vlineto
            38 -4 24 32 hvcurveto
            400 46 vlineto
            66 0 8 -34 12 -44 rrcurveto
            22 -178 rlineto
            10 -90 28 -90 28 -8 rrcurveto
            68 hlineto
            24 0 24 0 24 -2 118 0 124 2 120 0 18 0 4 18 0 18 0 102.568359375 -54.0048828125 111.478515625 -9.9951171875 95.953125 -22 130 -14 134 -152 66 139.858398438 69.9296875 68.1416015625 99.3916015625 0 146.678710938 rrcurveto
            271.350585938 -262.9765625 68.6494140625 -253.0234375 vhcurveto
            -186 0 -198 -8 -174 0 rrcurveto
            return
          </CharString>
          <CharString index="78">
            0 58 -6 58 0 58 rrcurveto
            38 vlineto
            0 8 12 6 8 2 rrcurveto
            60 140 -2 -102 -122 -122 -26 -70 hvcurveto
            -10.0078125 3.3359375 -5.7763671875 13.205078125 -6.2158203125 7.458984375 rrcurveto
            return
          </CharString>
          <CharString index="79">
            0 -304 -20 -296 0 -304 13.3330078125 -16 13.333984375 -16 13.3330078125 -16 18 0 20 0 20 2 rrcurveto
            60 hlineto
            80 0 76 -2 86 0 2 2 2 0 0 0 70 0 64 -2 70 0 rrcurveto
            return
          </CharString>
          <CharString index="80">
            32 -374 278 -398 500 0 rrcurveto
            416 372 332 448 452 -388 332 -416 hvcurveto
            -506 0 -258 -402 -30 -382 rrcurveto
            return
          </CharString>
          <CharString index="81">
            918 hlineto
            48 0 42 8 6 32 rrcurveto
            334 vlineto
            34 -24 0 -24 vhcurveto
            -424 730 hlineto
            0 14 22 12 2 12 rrcurveto
            44 vlineto
            0 22 2 20 0 22 rrcurveto
            14 vlineto
            -14 32 -12 8 -16 2 -16 0 -20 4 -6 0 -4 0 -4 0 -2 -2 -18 2 -18 0 -16 0 rrcurveto
            -96 hlineto
            -106 0 -100 2 -104 2 -24 -22 -10 -70 0 -80 0 -70 8 -72 0 -46 0 -180 -14 -176 0 -172 rrcurveto
            -432 vlineto
            14.748046875 -23.59765625 -0.052734375 8.00390625 9.3046875 -12.40625 rrcurveto
            return
          </CharString>
          <CharString index="82">
            -529.26953125 hlineto
            -26 -22 -6 -22 hvcurveto
            0 -52 64.2158203125 -122.971679688 18 -36 rrcurveto
            106.857421875 -149.96875 230.926757812 -493.059570312 0 -418 32 -42 382 0 rlineto
            62 0 90 -14 14 50 rrcurveto
            30 vlineto
            0 96 -4 134 0 112 rrcurveto
            -16.1279296875 66.921875 454.571289062 821.7265625 rlineto
            -8 34 -10.443359375 13.3515625 -16 2 -117.420898438 -1.24609375 -117.346679688 -1.3203125 -117.232421875 -1.43359375 -16 0 -10 2 -14 0 -54 0 -48 -6 -6 -18 -3.8671875 -25.13671875 -15.5205078125 -21.3974609375 -4.6123046875 -19.4658203125 -44.6884765625 -137.978515625 -47.4365234375 -135.229492188 -49.875 -132.791992188 rrcurveto
            return
          </CharString>
          <CharString index="83">
            31.8623046875 -33.970703125 230 0 rlineto
            98 0 113.543945312 1.689453125 10 22 rrcurveto
            193.918945312 633.087890625 rlineto
            24 -73.462890625 3.22265625 -76 vhcurveto
            -356 hlineto
            -20 0 -42 -138 -30 -142 rrcurveto
            return
          </CharString>
          <CharString index="84">
            0 -86 6 -88 0 -54 0 -250 -4 -240 0 -250 rrcurveto
            -284 vlineto
            0 -42 2 -38 22 -32 rrcurveto
            692 hlineto
            222 0 214 8 10 28 rrcurveto
            384 vlineto
            34 -54 4 -74 vhcurveto
            -202 0 -68 14 -124 -10 rrcurveto
            -22 0 11.53125 1032.00488281 rlineto
            -16 46 -151.53125 7.9951171875 -160 0 -72 0 -74 -4 -64 0 rrcurveto
            -32 hlineto
            -10 0 -8 0 -10 2 -28 -16 -6 -80 0 -86 rrcurveto
            return
          </CharString>
          <CharString index="85">
            6 -8 16 -26 6 -8 rrcurveto
            218 hlineto
            118 4 18 -12 76 84 rrcurveto
            257.678710938 293.005859375 rlineto
            0 34.994140625 -231.524414062 0.8798828125 -48.154296875 1.1201171875 rrcurveto
            -219.353515625 3.1591796875 rlineto
            return
          </CharString>
          <CharString index="86">
            352.163085938 46.7724609375 rlineto
            6 -26 3.8046875 -6.5263671875 6 0 rrcurveto
            32 30 rlineto
            95.3994140625 109.934570312 93.857421875 111.474609375 94.7431640625 110.590820312 0 2 0 2 2 2 0 10 -6 14 -14 2 rrcurveto
            -478.440429688 0 -214.624023438 -377.82421875 rlineto
            3.7021484375 -11.1083984375 17.78515625 -10.8974609375 5.609375 -8.416015625 rrcurveto
            return
          </CharString>
        <CharString name=".notdef">
          -645 endchar
        </CharString>
        <CharString name="A">
          261 -5 -21 234 352 952 -20 hstem
          -48 hmoveto
          10 -14 8 -12 10 -10 38 0 32 2 34 0 rrcurveto
          28 hlineto
          86 0 84 6 86 0 rrcurveto
          80 hlineto
          54 0 48 2 10 22 rrcurveto
          52 212 344 0 rlineto
          40 0 36 -74 12 -60 rrcurveto
          -66 vlineto
          18 -50 150 16 70 0 80 0 78 2 80 0 rrcurveto
          92 hlineto
          54 15.3199005127 9.15365600586 26 hvcurveto
          -461.440811157 1461.22921753 rlineto
          38 -51.8790893555 1.61712646484 -40 vhcurveto
          -168 hlineto
          -118 0 -112 -4 -118 0 rrcurveto
          -168 hlineto
          -6 -6 -4 -8 -6 -10 -161.495803833 -492.399978638 -177.403930664 -483.522537231 -137.100265503 -508.077484131 rrcurveto
          694.46055603 607.435287476 rmoveto
          79.5394439697 346.564712524 rlineto
          26 116 48.227722168 105.634338379 24 0 rrcurveto
          128.863372803 -575.389968872 rlineto
          1.52587890625e-05 -31.9999847412 -131.091110229 -8.24436950684 -82 0 rrcurveto
          -66 hlineto
          endchar
        </CharString>
        <CharString name="AE">
          1005 -24 432 -420 436 -216 352 -8 382 -366 366 150 424 hstemhm
          hintmask 01000100
          1956 -12 rmoveto
          110 0 110 -2 106 0 rrcurveto
          24 7.11926269531 14.9357757568 18 hvcurveto
          -113.119262695 377.064224243 rlineto
          -12 24 -44 4 -28 0 rrcurveto
          hintmask 10010100
          -170 0 -160 -16 -174 0 rrcurveto
          -42 144 26 0 rlineto
          hintmask 00001100
          160 0 150 8 154 8 6 -2 4 -2 2 0 rrcurveto
          6 4 2 8 hvcurveto
          10 vlineto
          -24 96 -46 92 -24 96 rrcurveto
          32 vlineto
          hintmask 00010100
          -6 22 -14 12 -42 0 rrcurveto
          hintmask 00101100
          -472 hlineto
          -14 54 -6 50 -10 54 160 -6 156 -2 160 0 rrcurveto
          26 hlineto
          24 26 8 18 hvcurveto
          -34.0738372803 128.592834473 -36.5058898926 126.16078186 -35.4202728271 127.246383667 -4 14 -10 8 -18 2 -230 0 -216 -2 -224 -6 -12 2 -14 2 -14 0 rrcurveto
          -168 hlineto
          -118 0 -112 -4 -118 0 rrcurveto
          -176 hlineto
          -169.369766235 -338.739532471 -83.7356719971 -432.685440063 -118.894561768 -362.575027466 -40 -124 -38 -124 -34 -126 10 -14 8 -12 10 -10 38 0 32 2 34 0 rrcurveto
          28 hlineto
          86 0 84 6 86 0 rrcurveto
          80 hlineto
          50 0 48 2 14 22 rrcurveto
          52 212 344 0 rlineto
          40 0 36 -74 12 -60 rrcurveto
          -66 vlineto
          hintmask 10000100
          14 -40 58 8 40 0 rrcurveto
          398 hlineto
          145.414611816 0 102.432327271 12 154.153060913 0 rrcurveto
          -1309.53944397 619.435287476 rmoveto
          79.5394439697 346.564712524 rlineto
          26 116 48.227722168 105.634338379 24 0 rrcurveto
          128.863372803 -575.389968872 rlineto
          hintmask 00100100
          1.52587890625e-05 -31.9999847412 -131.091110229 -8.24436950684 -82 0 rrcurveto
          -66 hlineto
          endchar
        </CharString>
        <CharString name="Aacute">
          261 -26 21 213 352 932 20 98 410.959686279 hstem
          460 1654 rmoveto
          -55 callsubr
          -723.556640625 -2020.95996094 rmoveto
          -57 callsubr
          694.4609375 607.435546875 rmoveto
          -56 callsubr
          endchar
        </CharString>
        <CharString name="Abreve">
          261 -26 21 213 352 932 20 hstem
          673 2070 rmoveto
          -69 callsubr
          -721 -2070 rmoveto
          -57 callsubr
          694.4609375 607.435546875 rmoveto
          -56 callsubr
          endchar
        </CharString>
        <CharString name="Acircumflex">
          261 -26 21 213 352 932 20 126 392 hstem
          321.375 1674.74023438 rmoveto
          -68 callsubr
          -552 -1930 rmoveto
          -57 callsubr
          694.4609375 607.435546875 rmoveto
          -56 callsubr
          endchar
        </CharString>
        <CharString name="Adieresis">
          261 -26 21 213 352 932 20 112 388 hstem
          382 388 160 388 vstem
          382 1660 rmoveto
          -54 callsubr
          548 -66 rmoveto
          -73 callsubr
          -978 -1656 rmoveto
          -57 callsubr
          694.4609375 607.435546875 rmoveto
          -56 callsubr
          endchar
        </CharString>
        <CharString name="Agrave">
          261 -26 21 213 352 932 20 92 396 hstem
          458 1984 rmoveto
          -58 callsubr
          -506 -1984 rmoveto
          -57 callsubr
          694.4609375 607.435546875 rmoveto
          -56 callsubr
          endchar
        </CharString>
        <CharString name="Aogonek">
          261 -550.266693115 196 328.266693115 21 213 352 932 20 hstem
          520 306 vstem
          520 -350.266601562 rmoveto
          -37 callsubr
          -568 350.266601562 rmoveto
          -57 callsubr
          694.4609375 607.435546875 rmoveto
          -56 callsubr
          endchar
        </CharString>
        <CharString name="Aring">
          261 -26 21 213 352 932 20 100 184 218 182 hstem
          928 188 vstem
          522 1900 rmoveto
          -42 callsubr
          182 14 rmoveto
          -41 callsubr
          -752 -1914 rmoveto
          -57 callsubr
          694.4609375 607.435546875 rmoveto
          -56 callsubr
          endchar
        </CharString>
        <CharString name="Atilde">
          261 -26 21 213 352 932 20 182 326 hstem
          992 1624 rmoveto
          -52 callsubr
          -24 340 rmoveto
          2 vlineto
          -1016 -1966 rmoveto
          -57 callsubr
          694.4609375 607.435546875 rmoveto
          -56 callsubr
          endchar
        </CharString>
        <CharString name="B">
          193 -28 340 872 328 hstemhm
          92 592 248 552 -530 574 hintmask 11101000
          92 136 rmoveto
          2 -72 8 -54 26 -42 174 6 166 2 170 0 98 0 96 -4 96 0 260 0 340 106 0 346 0 182 -94 118 -170 48 rrcurveto
          hintmask 11110000
          136 74 84 90 0 176 rrcurveto
          324 -282 76 -246 vhcurveto
          -864.336166382 -30.4611816406 rlineto
          574.336181641 -333.538818359 rmoveto
          0 30 18 0 38 6 96 0 114 -24 0 -128 0 -172 -144 14 -92 -16 -16 2 -8 6 0 14 0 90 -6 88 0 90 rrcurveto
          18 -762 rmoveto
          36 vlineto
          0 62 14 54 6 58 rrcurveto
          38 vlineto
          hintmask 11101000
          98 -6 152 8 0 -156 rrcurveto
          -154 -118 -14 -112 vhcurveto
          -32 hlineto
          -4 -4 40 34 hvcurveto
          endchar
        </CharString>
        <CharString name="C">
          179 -64 440 736 426 hstem
          40 642 vstem
          1528 536 rmoveto
          -2 24 -12 14 -22 2 rrcurveto
          -544 hlineto
          -42 -42 12 -158 -104 0 -112 6 -20 144 0 106 0 38 4 32 0 26 8 156 -24 228 174 0 132 0 -76 -210 96 0 10 0 10 2 10 0 rrcurveto
          66 0 104 -4 96 0 rrcurveto
          114 106 4 28 hvcurveto
          96 vlineto
          -32 290 -192 220 -440 0 -312 0 -462 -146 -34 -508 rrcurveto
          -88 vlineto
          -354 106 -506 654 vhcurveto
          383.223312378 0 298.360046387 191.53352356 46.4166412354 408.46647644 rrcurveto
          endchar
        </CharString>
        <CharString name="CR">
          -695 endchar
        </CharString>
        <CharString name="Cacute">
          179 -64 440 736 426 118 410.959686279 hstem
          40 642 vstem
          424 1700 rmoveto
          -55 callsubr
          888.443359375 -1530.95996094 rmoveto
          -53 callsubr
          endchar
        </CharString>
        <CharString name="Ccaron">
          179 -64 440 736 426 118 398 hstem
          40 642 vstem
          291.046875 2030.08398438 rmoveto
          -38 callsubr
          1236.953125 -1494.08398438 rmoveto
          -53 callsubr
          endchar
        </CharString>
        <CharString name="Ccedilla">
          179 -516 192 260 440 -358 20 1074 426 hstemhm
          40 642 -216 626 hintmask 10100100
          466 -432 rmoveto
          -71 callsubr
          hintmask 01011000
          1062 968 rmoveto
          -53 callsubr
          endchar
        </CharString>
        <CharString name="Ccircumflex">
          179 -64 440 736 426 122 392 hstem
          40 642 vstem
          285.375 1696.74023438 rmoveto
          -68 callsubr
          1060 -1416 rmoveto
          -53 callsubr
          endchar
        </CharString>
        <CharString name="Cdotaccent">
          179 -64 440 736 426 118 396 hstemhm
          40 642 -86 382 hintmask 00101000
          600 1700 rmoveto
          -72 callsubr
          hintmask 11010000
          928 -1164 rmoveto
          -53 callsubr
          endchar
        </CharString>
        <CharString name="D">
          271 -28 348 864 332 hstem
          106 552 360 594 vstem
          106 1468 rmoveto
          -1412 vlineto
          0 -34 4 -14 20 -40 152 6 148 2 154 0 86 0 84 -4 86 0 rrcurveto
          32 hlineto
          386 354 290 498 hvcurveto
          0 334 -158 186 -44 40 rrcurveto
          -36 32 rlineto
          -170 136 -282 28 -230 0 -58 0 -58 -4 -64 0 rrcurveto
          -112 hlineto
          -57.4394073486 -236.560592651 10.1930847168 -54.1930847168 hvcurveto
          588 -1148 rmoveto
          -59.0400848389 9.84001159668 23.0400848389 648.962738037 0 97.1972503662 rrcurveto
          48 vlineto
          10 22 12 16 10 22 251.576858521 -7.1879119873 76.4231414795 -122.148071289 0 -234.664016724 rrcurveto
          -62 vlineto
          -214.686538696 -39.0206451416 -223.313461304 -284.979354858 vhcurveto
          endchar
        </CharString>
        <CharString name="Dcaron">
          271 -28 348 864 332 140 398 hstem
          106 552 360 594 vstem
          365.046875 2030.08398438 rmoveto
          -38 callsubr
          -259.046875 -562.083984375 rmoveto
          -1412 vlineto
          0 -34 4 -14 20 -40 152 6 148 2 154 0 86 0 84 -4 86 0 rrcurveto
          32 hlineto
          386 354 290 498 hvcurveto
          0 334 -158 186 -44 40 rrcurveto
          -36 32 rlineto
          -170 136 -282 28 -230 0 -58 0 -58 -4 -64 0 rrcurveto
          -112 hlineto
          -57.439453125 -236.560546875 10.193359375 -54.193359375 hvcurveto
          588 -1148 rmoveto
          -59.0400390625 9.83984375 23.0400390625 648.962890625 0 97.197265625 rrcurveto
          48 vlineto
          10 22 12 16 10 22 251.577148438 -7.1875 76.4228515625 -122.1484375 0 -234.6640625 rrcurveto
          -62 vlineto
          -214.686523438 -39.0205078125 -223.313476562 -284.979492188 vhcurveto
          endchar
        </CharString>
        <CharString name="Dcroat">
          -28 348 296 260 308 332 hstem
          100 556 360 594 vstem
          100 1472 rmoveto
          -596 -124 vlineto
          -26 -10 -34 -32 hvcurveto
          -170 vlineto
          6 -6 26 -4 8 -2 rrcurveto
          -12 62 vlineto
          20 0 20 0 22 2 rrcurveto
          -74 vlineto
          0 -96 -4 -94 0 -96 0 -90 -16 -112 44 -82 rrcurveto
          224 hlineto
          74 2 76 0 78 0 88 0 84 -4 86 0 rrcurveto
          30 hlineto
          388 354 288 500 hvcurveto
          0 328 -160 194 -42 38 rrcurveto
          -36 32 rlineto
          -188 140 -274 24 -220 0 -62 0 -56 -4 -64 0 rrcurveto
          -112 hlineto
          -52.9853515625 -243.014648438 7.935546875 -47.935546875 hvcurveto
          592 -1152 rmoveto
          -14 2 -8 6 -2 12 0 96 -4 96 -2 96 46 0 42 2 42 0 rrcurveto
          28 4 26 22 hvcurveto
          72 vlineto
          54 -4 72 -28 vhcurveto
          -136 248 hlineto
          10 22 12 16 10 22 rrcurveto
          56 hlineto
          236 36 -196 -168 hvcurveto
          -62 vlineto
          -212.658203125 -40.5498046875 -225.341796875 -283.450195312 vhcurveto
          endchar
        </CharString>
        <CharString name="E">
          -71 -18 438 -436 420 144 382 -366 366 150 418 hstemhm
          hintmask 01001000
          92 36 rmoveto
          -104 callsubr
          hintmask 10001000
          -103 callsubr
          hintmask 01101000
          -102 callsubr
          hintmask 00011000
          -101 callsubr
          hintmask 00101000
          -100 callsubr
          hintmask 01011000
          -99 callsubr
          endchar
        </CharString>
        <CharString name="Eacute">
          -71 -18 438 -436 420 144 382 -366 366 150 418 324 410.959686279 hstemhm
          hintmask 00000100
          300 1866 rmoveto
          -55 callsubr
          hintmask 01001000
          -423.556640625 -2196.95996094 rmoveto
          -104 callsubr
          hintmask 10001000
          -103 callsubr
          hintmask 01101000
          -102 callsubr
          hintmask 00011000
          -101 callsubr
          hintmask 00101000
          -100 callsubr
          hintmask 01011000
          -99 callsubr
          endchar
        </CharString>
        <CharString name="Ecaron">
          -71 -18 438 -436 420 144 382 -366 366 150 418 158 398 hstemhm
          hintmask 00000100
          197.046875 2030.08398438 rmoveto
          -38 callsubr
          hintmask 01001000
          -105.046875 -1994.08398438 rmoveto
          -104 callsubr
          hintmask 10001000
          -103 callsubr
          hintmask 01101000
          -102 callsubr
          hintmask 00011000
          -101 callsubr
          hintmask 00101000
          -100 callsubr
          hintmask 01011000
          -99 callsubr
          endchar
        </CharString>
        <CharString name="Ecircumflex">
          -71 -18 438 -436 420 144 382 -366 366 150 418 128 392 hstemhm
          hintmask 00000100
          183.375 1662.74023438 rmoveto
          -68 callsubr
          hintmask 01001000
          -274 -1882 rmoveto
          -104 callsubr
          hintmask 10001000
          -103 callsubr
          hintmask 01101000
          -102 callsubr
          hintmask 00011000
          -101 callsubr
          hintmask 00101000
          -100 callsubr
          hintmask 01011000
          -99 callsubr
          endchar
        </CharString>
        <CharString name="Edieresis">
          -71 -18 438 -436 420 144 382 -366 366 150 418 128 388 hstemhm
          218 388 160 388 hintmask 00000111
          218 1662 rmoveto
          -54 callsubr
          548 -66 rmoveto
          -73 callsubr
          hintmask 01001000
          -674 -1622 rmoveto
          -104 callsubr
          hintmask 10001000
          -103 callsubr
          hintmask 01101000
          -102 callsubr
          hintmask 00011000
          -101 callsubr
          hintmask 00101000
          -100 callsubr
          hintmask 01011000
          -99 callsubr
          endchar
        </CharString>
        <CharString name="Egrave">
          -71 -18 438 -436 420 144 382 -366 366 150 418 134 396 hstemhm
          hintmask 00000100
          248 2012 rmoveto
          -58 callsubr
          hintmask 01001000
          -156 -1976 rmoveto
          -104 callsubr
          hintmask 10001000
          -103 callsubr
          hintmask 01101000
          -102 callsubr
          hintmask 00011000
          -101 callsubr
          hintmask 00101000
          -100 callsubr
          hintmask 01011000
          -99 callsubr
          endchar
        </CharString>
        <CharString name="Eogonek">
          -71 -546.266693115 196 332.266693115 438 -436 420 144 382 -366 366 150 418 hstemhm
          392 306 hintmask 10000010
          392 -346.266601562 rmoveto
          -37 callsubr
          hintmask 00100100
          -300 382.266601562 rmoveto
          -104 callsubr
          hintmask 01000100
          -103 callsubr
          hintmask 00110100
          -102 callsubr
          hintmask 00001100
          -101 callsubr
          hintmask 00010100
          -100 callsubr
          hintmask 00101100
          -99 callsubr
          endchar
        </CharString>
        <CharString name="Eth">
          -28 348 296 260 308 332 hstem
          100 556 360 594 vstem
          100 1472 rmoveto
          -596 -124 vlineto
          -26 -10 -34 -32 hvcurveto
          -170 vlineto
          6 -6 26 -4 8 -2 rrcurveto
          -12 62 vlineto
          20 0 20 0 22 2 rrcurveto
          -74 vlineto
          0 -96 -4 -94 0 -96 0 -90 -16 -112 44 -82 rrcurveto
          224 hlineto
          74 2 76 0 78 0 88 0 84 -4 86 0 rrcurveto
          30 hlineto
          388 354 288 500 hvcurveto
          0 328 -160 194 -42 38 rrcurveto
          -36 32 rlineto
          -188 140 -274 24 -220 0 -62 0 -56 -4 -64 0 rrcurveto
          -112 hlineto
          -52.9854431152 -243.014556885 7.93591308594 -47.9359130859 hvcurveto
          592 -1152 rmoveto
          -14 2 -8 6 -2 12 0 96 -4 96 -2 96 46 0 42 2 42 0 rrcurveto
          28 4 26 22 hvcurveto
          72 vlineto
          54 -4 72 -28 vhcurveto
          -136 248 hlineto
          10 22 12 16 10 22 rrcurveto
          56 hlineto
          236 36 -196 -168 hvcurveto
          -62 vlineto
          -212.658294678 -40.5495300293 -225.341705322 -283.450469971 vhcurveto
          endchar
        </CharString>
        <CharString name="Euro">
          67 -68 260 310 198 56 240 270 234 hstem
          1460 380 rmoveto
          -6 24 -8 8 -22 2 rrcurveto
          -416 -26 rlineto
          -74 -28 -122 -120 vhcurveto
          -128 0 -18 244 -10 66 64 0 98 4 66 -4 rrcurveto
          54.9694976807 167.022705078 rlineto
          1.52587890625e-05 18 -12.9694976807 10.9772949219 -22 2 -26 0 -30 -2 -26 0 -24 0 -20 2 -22 0 -38 0 -40 -2 -38 -2 rrcurveto
          56 vlineto
          38 0 40 -2 38 0 32 0 30 4 30 2 rrcurveto
          96 hlineto
          10 0 8 6 6 10 rrcurveto
          24 96 28 92 rlineto
          0 22 -6 12 -22 2 rrcurveto
          -350 hlineto
          0 14 270 118 98 48 -84 -78 vhcurveto
          460 hlineto
          10 2 -2 6 2 14 rrcurveto
          60 vlineto
          -38 214 -293 100 -263 0 -54 0 -112 -4 -68 -16 -33.7795562744 -12.2204437256 -33.3721923828 -12.6278076172 -34.8482513428 -11.1517486572 rrcurveto
          -62 -32 rlineto
          -166 -96 -82 -154 -42 -170 rrcurveto
          -95.9212646484 3.38815307617 -60.0787353516 -211.388153076 rlineto
          -24 32 -4 36 vhcurveto
          54 hlineto
          0 -22 -2 -20 0 -22 rrcurveto
          -48 hlineto
          -28 -10 -32 -142 -16 -54 0 -18 6 -6 16 -6 rrcurveto
          132 hlineto
          48 -160 72 -180 170 -84 rrcurveto
          60 -36 rlineto
          10 -6 8 -10 14 -6 rrcurveto
          28 hlineto
          60 -22 112 -20 80 0 278.471481323 15.9126586914 337.086486816 101.178573608 32.4420318604 330.9087677 rrcurveto
          endchar
        </CharString>
        <CharString name="F">
          -113 532 432 122 428 hstem
          100 632 vstem
          100 140 rmoveto
          0 -62 -6 -62 34 -48 192 0 184 4 192 0 32 6 4 8 0 38 rrcurveto
          124 vlineto
          0 122 -6 124 0 122 124 2 124 6 122 8 22 0 22 -4 18 0 rrcurveto
          44 26 12 62 hvcurveto
          334 vlineto
          20 -66 8 -54 vhcurveto
          -150 0 -92 -6 -142 -10 0 6 0 4 -2 4 rrcurveto
          14 vlineto
          0 38 2 34 0 38 rrcurveto
          138 hlineto
          128 2 146 -2 128 10 rrcurveto
          350 vlineto
          54 -18 12 -46 vhcurveto
          -16 0 -16 -2 -16 0 -118 0 -102 4 -112 0 -160 0 -154 -6 -158 0 -26 0 -34 2 -32 0 rrcurveto
          -70 -86 -6 -28 hvcurveto
          endchar
        </CharString>
        <CharString name="G">
          303 -60 424 142 370 252 412 hstem
          42 638 vstem
          42 748 rmoveto
          -98 callsubr
          endchar
        </CharString>
        <CharString name="Gbreve">
          303 -60 424 142 370 252 412 hstem
          42 638 vstem
          682 2070 rmoveto
          -69 callsubr
          -640 -1322 rmoveto
          -98 callsubr
          endchar
        </CharString>
        <CharString name="Gcircumflex">
          303 -60 424 142 370 252 412 120 392 hstem
          42 638 vstem
          328.375 1696.74023438 rmoveto
          -68 callsubr
          -469 -1204 rmoveto
          -98 callsubr
          endchar
        </CharString>
        <CharString name="Gdotaccent">
          303 -60 424 142 370 252 412 116 396 hstemhm
          42 638 -41 382 hintmask 00010100
          643 1700 rmoveto
          -72 callsubr
          hintmask 11101000
          -601 -952 rmoveto
          -98 callsubr
          endchar
        </CharString>
        <CharString name="H">
          277 -32 1552 hstemhm
          90 638 -622 618 196 632 hintmask 11010000
          360 -26 rmoveto
          118 hlineto
          124 0 116 4 10 26 0 168 4 166 0 166 42 6 40 2 42 0 rrcurveto
          36 hlineto
          24 4 -10 -30 hvcurveto
          0 -134 -2 -128 0 -134 rrcurveto
          0 -66 30 -42 416 0 rlineto
          94 0 92 4 6 32 0 106 -4 110 0 106 0 4 0 4 2 4 rrcurveto
          22 vlineto
          -2 32 0 32 0 32 rrcurveto
          48 vlineto
          0 10 2 14 0 16 0 208 -6 204 0 208 0 70 2 64 0 70 0 32 -2 28 0 32 0 50 -140 10 -132 0 -98 0 -90 -6 -20 0 rrcurveto
          -26 0 -32 2 -26 0 rrcurveto
          -42 -10 -4 -100 hvcurveto
          -416 vlineto
          -22 -6 -24 0 -22 0 -34 0 -36 2 -34 0 rrcurveto
          -40 hlineto
          0 6 0 4 -2 6 rrcurveto
          20 vlineto
          hintmask 10110000
          0 64 6 64 0 64 rrcurveto
          46 vlineto
          hintmask 11010000
          0 50 4 40 0 32 rrcurveto
          88 -30 28 -198 vhcurveto
          -372 hlineto
          hintmask 10110000
          -22 -12 0 -156 0 -60 rrcurveto
          hintmask 11010000
          0 -364 -16 -356 0 -418 rrcurveto
          -209.805648804 83.1180725098 45.8056488037 186.88192749 vhcurveto
          endchar
        </CharString>
        <CharString name="I">
          -535 -5 -21 1538 -20 hstem
          104 624 vstem
          82 -26 rmoveto
          -97 callsubr
          endchar
        </CharString>
        <CharString name="Iacute">
          -545 -26 21 1497 20 106 410.959686279 hstem
          104 624 vstem
          160 1662 rmoveto
          -55 callsubr
          -293.556640625 -2054.95996094 rmoveto
          -97 callsubr
          endchar
        </CharString>
        <CharString name="Icircumflex">
          -535 -26 21 1497 20 116 392 hstem
          102 624 vstem
          -18.625 1664.74023438 rmoveto
          -68 callsubr
          -84 -1946 rmoveto
          -97 callsubr
          endchar
        </CharString>
        <CharString name="Idieresis">
          -549 -26 21 1497 20 120 388 hstemhm
          -4 388 -288 624 -176 388 hintmask 00110100
          -4 1668 rmoveto
          -54 callsubr
          548 -66 rmoveto
          -73 callsubr
          hintmask 11001000
          -470 -1690 rmoveto
          -97 callsubr
          endchar
        </CharString>
        <CharString name="Idotaccent">
          -535 -26 21 1497 20 144 396 hstemhm
          104 624 -503 382 hintmask 00101000
          229 1700 rmoveto
          -72 callsubr
          hintmask 11010000
          -147 -1726 rmoveto
          -97 callsubr
          endchar
        </CharString>
        <CharString name="Igrave">
          -549 -26 21 1497 20 116 396 hstem
          100 624 vstem
          40 2008 rmoveto
          -58 callsubr
          38 -2034 rmoveto
          -97 callsubr
          endchar
        </CharString>
        <CharString name="J">
          5 1510 -20 hstem
          660 622 vstem
          624 -56 rmoveto
          240 418 102 426 hvcurveto
          314 vlineto
          0 190 4 174 6 184 rrcurveto
          50 vlineto
          2 32 -4 34 4 32 -6 18 -12 10 -14 0 rrcurveto
          -94 hlineto
          -96 0 -92 -2 -96 0 -64 0 -64 2 -64 0 -24.4609375 -3.0576171875 -17.5390625 -10.018737793 0 -20.9236450195 rrcurveto
          -340 vlineto
          0 -206 8 -202 2 -192 rrcurveto
          -8 vlineto
          -62 -2 -90 -70 vhcurveto
          -98 0 86 148 -112 0 rrcurveto
          -456 hlineto
          -26 -6 -24 -30 -417.373184204 298.7003479 -108.626815796 349.2996521 hvcurveto
          endchar
        </CharString>
        <CharString name="Jcircumflex">
          5 1490 20 150 392 hstem
          660 622 vstem
          420.375 1696.74023438 rmoveto
          -68 callsubr
          21 -2008 rmoveto
          240 418 102 426 hvcurveto
          314 vlineto
          0 190 4 174 6 184 rrcurveto
          50 vlineto
          2 32 -4 34 4 32 -6 18 -12 10 -14 0 rrcurveto
          -94 hlineto
          -96 0 -92 -2 -96 0 -64 0 -64 2 -64 0 -24.4609375 -3.0576171875 -17.5390625 -10.0185546875 0 -20.923828125 rrcurveto
          -340 vlineto
          0 -206 8 -202 2 -192 rrcurveto
          -8 vlineto
          -62 -2 -90 -70 vhcurveto
          -98 0 86 148 -112 0 rrcurveto
          -456 hlineto
          -26 -6 -24 -30 -417.373046875 298.700195312 -108.626953125 349.299804688 hvcurveto
          endchar
        </CharString>
        <CharString name="K">
          269 1516 -20 hstem
          100 620 vstem
          160 -32 rmoveto
          440 hlineto
          62 0 52 6 6 30 rrcurveto
          236 vlineto
          6 102 -2 100 10 96 rrcurveto
          286 -558 642 0 rlineto
          12 10 11.1108398438 14.9752349854 0 10 rrcurveto
          -418.347366333 718.633499146 -40.7634887695 26.3912658691 0 28 rlineto
          133.330078125 230.003250122 131.343200684 231.990142822 129.326721191 234.006607056 rrcurveto
          2 2 2 2 22 -336 -2 -88 hvcurveto
          -206.990890503 1.43562316895 -281.009109497 -585.435623169 rlineto
          0 186 2 182 2 186 rrcurveto
          2 vlineto
          28 -82 8 -62 vhcurveto
          -410 hlineto
          -62 0 -30 -58 hvcurveto
          -1422 vlineto
          12.119644165 -27.2691955566 2.75468444824 -10.7308044434 45.1256713867 0 rrcurveto
          endchar
        </CharString>
        <CharString name="L">
          -113 -28 462 1085 -21 hstem
          104 618 vstem
          102 1336 rmoveto
          0 -86 6 -88 0 -54 0 -250 -4 -240 0 -250 rrcurveto
          -284 vlineto
          0 -42 2 -38 22 -32 rrcurveto
          692 hlineto
          222 0 214 8 10 28 rrcurveto
          384 vlineto
          34 -54 4 -74 vhcurveto
          -202 0 -68 14 -124 -10 rrcurveto
          -22 0 11.5307922363 1032.00524902 rlineto
          -16 46 -151.530792236 7.99475097656 -160 0 -72 0 -74 -4 -64 0 rrcurveto
          -32 hlineto
          -10 0 -8 0 -10 2 -28 -16 -6 -80 0 -86 rrcurveto
          endchar
        </CharString>
        <CharString name="Lacute">
          -113 -28 462 1064 22 136 410.959686279 hstem
          104 618 vstem
          324 1700 rmoveto
          -55 callsubr
          -437.556640625 -730.959960938 rmoveto
          -23 callsubr
          endchar
        </CharString>
        <CharString name="Lcaron">
          -113 -28 462 1064 22 hstem
          104 618 697.137481689 677.325759888 vstem
          1419.13769531 897.970703125 rmoveto
          -24 callsubr
          -1397 68 rmoveto
          -23 callsubr
          endchar
        </CharString>
        <CharString name="Lslash">
          -113 -28 462 1085 -21 hstem
          104 616 vstem
          -78 796 rmoveto
          0 -40 30 -62 12 -46 rrcurveto
          30 -86 rlineto
          14 -6 14 -2 16 -6 rrcurveto
          66 24 0 -488 rlineto
          0 -42 2 -38 22 -32 rrcurveto
          692 hlineto
          216 0 218 8 10 28 rrcurveto
          384 vlineto
          34 -52 4 -76 vhcurveto
          -202 0 -64 14 -128 -10 rrcurveto
          -22 0 -2.54800415039 365.083450317 280.54800415 100.916549683 rlineto
          20 4 6.31636047363 18.9008026123 0 10 rrcurveto
          -46.3163604736 119.099197388 rlineto
          -14 34 -20.6301422119 89.0137023926 -30 0 rrcurveto
          -182.794525146 -68.5479431152 rlineto
          0 118 1.42465209961 123.534240723 0 118 -10 46 -160 8 -158 0 -76 0 -66 -4 -66 0 rrcurveto
          -32 hlineto
          -10 0 -8 0 -10 2 -28 -14 -8 -84 0 -84 0 -86 6 -88 0 -54 0 -62 -2 -60 0 -58 rrcurveto
          -44 vlineto
          -30 -10 -28 -8 -26 -10 rrcurveto
          -84 -30 rlineto
          -10 -4 -4 -10 0 -16 rrcurveto
          endchar
        </CharString>
        <CharString name="M">
          815 -28 1534 8 -20 hstemhm
          122 514 904 568 hintmask 10110000
          2108 374 rmoveto
          -6 366 -10 366 -8 350 0 42 -10 12 -18 2 rrcurveto
          -148 hlineto
          -214 0 -204 -6 -214 0 -6 0 -12.4033660889 4.44856262207 -2 0 rrcurveto
          -159.596633911 -808.448562622 -76 398 rlineto
          -26 132 -26 132 -24 134 rrcurveto
          hintmask 01110000
          -198 0 114 16 -496 0 rrcurveto
          -118 hlineto
          -36 -88 8 -42 hvcurveto
          -1484 vlineto
          -16 28 -2 26 vhcurveto
          118 0 110 2 118 0 rrcurveto
          94 hlineto
          10 0 8 8 4 14 -2 60 0 60 0 58 rrcurveto
          176 vlineto
          0 168 6 160 6 160 32.2781524658 -139.721847534 35.5335693359 -136.466430664 28.1882781982 -143.811721802 rrcurveto
          96 -418 rlineto
          hintmask 10110000
          10 -30 34 -4 32 0 rrcurveto
          354 hlineto
          40 0 44 6 8 22 62 256 46 264 70 256 -2 -24 4 -24 0 -26 rrcurveto
          -70 vlineto
          0 -116 -2 -106 0 -162 0 -118 6 -126 42 -32 rrcurveto
          456 hlineto
          101.921157837 -37.9211578369 295.36265564 106.63734436 hvcurveto
          endchar
        </CharString>
        <CharString name="N">
          349 -7 -21 hstem
          80 544 484 506 vstem
          80 -4 rmoveto
          44 -24 460 0 rlineto
          30 10 24 22 hvcurveto
          126 vlineto
          0 88 -4 88 0 88 0 118 2 116 0 118 81.2611846924 -218.738815308 82.6938476562 -217.306152344 80.0449676514 -219.955032349 24 -66 22 -56 12 -4 rrcurveto
          294 hlineto
          104 0 98 4 104 0 rrcurveto
          26 hlineto
          30 0 28 4 6 22 rrcurveto
          694 vlineto
          0 264 0 254 -6 278 rrcurveto
          2 -6 4 -10 vhcurveto
          -76 hlineto
          -50 0 -104 4 -90 0 -86 0 -74 -4 0 -24 2 -134 -6 -130 0 -128 rrcurveto
          0 -388 -140 366 rlineto
          -54 132 -100 304 -22 0 rrcurveto
          -688 hlineto
          -4 -2 -4 -14 0 -10 rrcurveto
          -82 vlineto
          -8 -318 -10 -310 2 -318 rrcurveto
          1528 1048 rmoveto
          4 vlineto
          endchar
        </CharString>
        <CharString name="NULL">
          -1377 endchar
        </CharString>
        <CharString name="Nacute">
          349 -28 21 1663 410.959686279 hstem
          80 544 484 506 vstem
          488.280273438 1700 rmoveto
          24 -44 216 0 rlineto
          116 6 32 -14 68 76 rrcurveto
          270.708007812 304.026367188 rlineto
          0 30.1220703125 -274.619140625 1.037109375 -44.0888671875 2.814453125 rrcurveto
          -192.443359375 4.9599609375 rlineto
          -623.836914062 -2070.95996094 rmoveto
          -51 callsubr
          1528 1048 rmoveto
          4 vlineto
          endchar
        </CharString>
        <CharString name="Ncaron">
          349 -28 21 1663 398 hstem
          80 544 484 506 vstem
          355.326171875 2030.08398438 rmoveto
          238.999023438 -374.083984375 400 0 rlineto
          128 0 8 50 44 66 35.712890625 56.9541015625 38.244140625 54.421875 38.04296875 54.6240234375 22 32 30 38 0 24 rrcurveto
          14 -6 8 -12 vhcurveto
          -128 hlineto
          -82 0 -78 2 -86 0 -32 -42 -28 -56 -32 -42 rrcurveto
          -38 66 rlineto
          -40 70 -18 4 -52 0 -114 0 -96 8 -110 0 -18 -8 -12.9990234375 -11.916015625 0 -14 rrcurveto
          -275.326171875 -2034.08398438 rmoveto
          -51 callsubr
          1528 1048 rmoveto
          4 vlineto
          endchar
        </CharString>
        <CharString name="Ntilde">
          349 -28 21 1891 326 hstem
          80 544 484 506 vstem
          1034 1814 rmoveto
          -52 callsubr
          -24 340 rmoveto
          2 vlineto
          -930 -2160 rmoveto
          -51 callsubr
          1528 1048 rmoveto
          4 vlineto
          endchar
        </CharString>
        <CharString name="O">
          -56 388 816 402 hstem
          24 596 392 584 vstem
          24 752 rmoveto
          -96 callsubr
          796 286 rmoveto
          174 18 -214 -146 -216 -8 -240 -210 hvcurveto
          -148 8 -26 196 0 136 rrcurveto
          162.51802063 1.212890625 313.48197937 198.787109375 vhcurveto
          endchar
        </CharString>
        <CharString name="OE">
          615 -8 416 -416 318 216 434 96 438 -338 338 hstemhm
          32 574 hintmask 01100100
          824 -8 rmoveto
          1134 392 hlineto
          hintmask 10110100
          -4 14 -8 8 -14 2 rrcurveto
          -432 118 hlineto
          128 -2 124 -2 128 0 16 4 10 10 2 16 0 106 2 122 0 112 0 64 -8 10 -60 0 -52 0 -98 -6 -94 0 rrcurveto
          -90 102 hlineto
          138 -2 144 2 138 -6 rrcurveto
          32 38 rlineto
          hintmask 01101100
          400 -1096 vlineto
          -138 0 -158 -2 -140 -48 rrcurveto
          -96 -56 rlineto
          -228 -104 -72 -342 0 -226 rrcurveto
          -446.577957153 307.578781128 -277.422042847 484.421218872 vhcurveto
          -218 748 rmoveto
          144 10 272 192 vhcurveto
          28 hlineto
          28 -10 70 -12 0 -10 rrcurveto
          -198 vlineto
          4 -194 -14 -176 8 -188 rrcurveto
          -30 vlineto
          -38 -18 -34 -10 -48 0 -252 0 62 338 -16 92 rrcurveto
          256 -360 rmoveto
          4 vlineto
          -2 0 4 -4 -2 0 rrcurveto
          endchar
        </CharString>
        <CharString name="Oacute">
          -56 388 816 402 80 410.959686279 hstem
          24 596 392 584 vstem
          446 1674 rmoveto
          -55 callsubr
          -637.556640625 -1288.95996094 rmoveto
          -96 callsubr
          796 286 rmoveto
          -50 callsubr
          endchar
        </CharString>
        <CharString name="Ocircumflex">
          -56 388 816 402 86 392 hstem
          24 596 392 584 vstem
          333.375 1672.74023438 rmoveto
          -68 callsubr
          -492 -1176 rmoveto
          -96 callsubr
          796 286 rmoveto
          -50 callsubr
          endchar
        </CharString>
        <CharString name="Odieresis">
          -56 388 816 402 310 388 hstemhm
          24 596 -238 388 160 388 -306 584 hintmask 00101100
          382 1896 rmoveto
          -54 callsubr
          548 -66 rmoveto
          -73 callsubr
          hintmask 11010010
          -906 -1140 rmoveto
          -96 callsubr
          796 286 rmoveto
          -50 callsubr
          endchar
        </CharString>
        <CharString name="Ograve">
          -56 388 816 402 94 396 hstem
          24 596 392 584 vstem
          384 2024 rmoveto
          -58 callsubr
          -360 -1272 rmoveto
          -96 callsubr
          796 286 rmoveto
          -50 callsubr
          endchar
        </CharString>
        <CharString name="Ohungarumlaut">
          -56 388 816 402 108 409.158874512 hstem
          24 596 392 584 vstem
          174.03125 1700 rmoveto
          -22 callsubr
          369.385742188 -415.405273438 rmoveto
          352.163085938 46.7724609375 rlineto
          6 -26 3.8046875 -6.5263671875 6 0 rrcurveto
          32 30 rlineto
          95.3984375 109.934570312 93.8583984375 111.474609375 94.7431640625 110.590820312 0 2 0 2 2 2 0 10 -6 14 -14 2 rrcurveto
          -478.440429688 0 -214.625 -377.82421875 rlineto
          3.703125 -11.1083984375 17.7841796875 -10.8974609375 5.6103515625 -8.416015625 rrcurveto
          -736.063476562 -899.75390625 rmoveto
          -96 callsubr
          796 286 rmoveto
          -50 callsubr
          endchar
        </CharString>
        <CharString name="Omega">
          473 -28 382 808 386 hstemhm
          52 836 -804 516 648 508 hintmask 11011000
          1300 -28 rmoveto
          154 0 148 6 150 16 4 -4 4 -2 6 0 8 0 4 82 0 76 0 48 -2 46 0 24 0 10 4 14 0 18 0 24 -6 24 -30 0 rrcurveto
          -90 0 -86 -2 -88 0 182 144 94 180 0 198 rrcurveto
          436.963302612 -436.73059082 237.036697388 -409.26940918 -438.110900879 -387.889099121 -278.755233765 -425.244766235 vhcurveto
          0 -192 80 -144 156 -140 rrcurveto
          -236 hlineto
          -18 -6 -10 -12 0 -22 rrcurveto
          hintmask 11101000
          0 -96 -4 -88 0 -96 rrcurveto
          hintmask 11011000
          0 -38 6 -20 26 -6 rrcurveto
          hintmask 11101000
          804 274 hlineto
          -2 12 -18 36 -24 14 rrcurveto
          -34 hlineto
          hintmask 11011000
          -142 114 -68 168 0 174 rrcurveto
          230 134 156 202 224 88 -216 -184 vhcurveto
          0 -236 -98 -134 -182 -128 rrcurveto
          -260 vlineto
          -42.0741577148 278.371765137 10.0741577148 53.6282348633 vhcurveto
          endchar
        </CharString>
        <CharString name="Oslash">
          -56 388 816 402 hstem
          24 596 392 584 vstem
          288 -180 rmoveto
          26 -2 34 48 34 54 rrcurveto
          56 88 rlineto
          114 -48 118 -16 134 0 202 0 274 58 124 170 rrcurveto
          44 60 rlineto
          104 142 46 192 -2 210 0 232 -72 250 -200 148 rrcurveto
          34 52 rlineto
          32 50 36 62 0 16 rrcurveto
          16 -65.5922698975 30.934967041 -8 vhcurveto
          -112.407730103 -172.934967041 rlineto
          -134 64 -146 26 -116 0 -392 0 -394 -208 -34 -480 rrcurveto
          -110 vlineto
          0 -250 65.80809021 -275.145126343 252 -164 rrcurveto
          -132.653442383 -209.452819824 rlineto
          16 -8 46.8453674316 -19.4020690918 16 0 rrcurveto
          532 1322 rmoveto
          72 0 52 -44 28 -60 rrcurveto
          -340 -528 rlineto
          -8 54 -4 52 0 50 0 162.51802063 1.212890625 313.48197937 198.787109375 0 rrcurveto
          -136 -756 rmoveto
          324 514 rlineto
          2 -20 2 -20 0 -20 rrcurveto
          -58 vlineto
          -216 -8 -240 -210 vhcurveto
          -46 0 -40 24 -24 36 rrcurveto
          endchar
        </CharString>
        <CharString name="Otilde">
          -56 388 816 402 144 326 hstem
          24 596 392 584 vstem
          984 1624 rmoveto
          -52 callsubr
          -24 340 rmoveto
          2 vlineto
          -936 -1214 rmoveto
          -96 callsubr
          796 286 rmoveto
          -50 callsubr
          endchar
        </CharString>
        <CharString name="P">
          149 -3 -21 1196 320 hstemhm
          104 628 -602 602 240 548 hintmask 11101000
          104 136 rmoveto
          hintmask 11011000
          -95 callsubr
          hintmask 11101000
          24 0 8 14 2 22 rrcurveto
          112 vlineto
          0 118 2 116 6 118 rrcurveto
          192 hlineto
          240 16 348 86 0 422 rrcurveto
          326 -232 166 -264 vhcurveto
          -812 hlineto
          -42 -2 -66 4 0 -26 rrcurveto
          564 -632 rmoveto
          0 90 4 232 30 14 rrcurveto
          118 152 -4 -168 -160 -142 -48 -130 hvcurveto
          endchar
        </CharString>
        <CharString name="Q">
          265 1168 382 hstem
          40 580 392 592 vstem
          40 748 rmoveto
          0 -160 40 -228 116 -116 118 -192 186 -120 292 0 178 0 162 38 200 0 116 0 126 -8 34 -6 26 8 12 10 2 22 rrcurveto
          340 vlineto
          28 -10 34 -74 vhcurveto
          -26 0 -26 -2 -26 0 76 102 42 150 0 140 rrcurveto
          428 -274 334 -474 -408 -408 -218 -584 vhcurveto
          580 -20 rmoveto
          174 28 266 176 172 16 -204 -154 -48 36 -418 -198 vhcurveto
          -10 0 -14 4 -10 0 -4 0 -6 -2 0 -2 rrcurveto
          -24 vlineto
          -184 -2 264 144 hvcurveto
          endchar
        </CharString>
        <CharString name="R">
          183 1172 332 hstemhm
          96 622 178 626 -540 530 hintmask 11100000
          1552 -4 rmoveto
          -94 callsubr
          hintmask 11010000
          -93 callsubr
          hintmask 11100000
          96 0 32 -26 6 -136 16 -92 18 -242 48 -16 rrcurveto
          100 hlineto
          30 -2 34 0 34 0 rrcurveto
          75.636138916 0 252.191741943 -30.1721191406 48.1721191406 48.1721191406 rrcurveto
          -840 1084 rmoveto
          -92 callsubr
          hintmask 11010000
          -91 callsubr
          endchar
        </CharString>
        <CharString name="Racute">
          183 1172 332 152 410.959686279 hstemhm
          96 622 178 626 -540 530 hintmask 01000000
          466 1700 rmoveto
          -55 callsubr
          hintmask 10110000
          870.443359375 -2070.95996094 rmoveto
          -94 callsubr
          hintmask 10101000
          -93 callsubr
          hintmask 10110000
          -31 callsubr
          -840 1084 rmoveto
          -92 callsubr
          hintmask 10101000
          -91 callsubr
          endchar
        </CharString>
        <CharString name="Rcaron">
          183 1172 332 152 398 hstemhm
          96 622 178 626 -540 530 hintmask 01000000
          333.046875 2030.08398438 rmoveto
          -38 callsubr
          hintmask 10110000
          1218.953125 -2034.08398438 rmoveto
          -94 callsubr
          hintmask 10101000
          -93 callsubr
          hintmask 10110000
          -31 callsubr
          -840 1084 rmoveto
          -92 callsubr
          hintmask 10101000
          -91 callsubr
          endchar
        </CharString>
        <CharString name="S">
          107 -60 378 838 400 hstem
          52 580 248 584 vstem
          728 -60 rmoveto
          322 16 414 74 0 456 0 374.839294434 -347.800216675 57.5041656494 -306.199783325 77.656539917 -46 16 -132 16 0 64 0 52 110 12 14 0 124 0 -88 -96 136 0 160 0 146 2 154 6 rrcurveto
          36 36 rlineto
          -11.7643890381 157.642791748 -44.8711242676 50.9927215576 -139.364486694 139.364486694 -132 82 -170 22 -146 0 -336 0 -392 -132 0 -414 0 -230 138 -116 318 -86 54 -14 318 -34 0 -110 0 -66 -64 -36 -60 0 rrcurveto
          -146 0 52 132 -78 0 -166 0 -172 -8 -166 0 -8 0 -6 0 -6 2 -14 -2 -6 -6 0 -14 30.7331542969 -368.797805786 285.511062622 -97.178237915 371.755783081 -16.0239562988 rrcurveto
          endchar
        </CharString>
        <CharString name="Sacute">
          107 -60 378 838 400 106 410.959686279 hstem
          52 580 248 584 vstem
          392 1706 rmoveto
          -55 callsubr
          120.443359375 -2132.95996094 rmoveto
          -70 callsubr
          endchar
        </CharString>
        <CharString name="Scaron">
          109 -56 374 838 400 252 404 hstem
          54 576 250 584 vstem
          704 -56 rmoveto
          300 460 66 476 hvcurveto
          0 354 -348 94 -244 58 rrcurveto
          -36 hlineto
          -72 14 -134 26 0 56 0 52 106 16 20 0 124 0 -70 -94 80 0 50 0 50 -6 50 0 122 0 114 6 112 6 rrcurveto
          36 36 rlineto
          -10 128 -18 102 -164 116 -131.358444214 65.6792297363 -153.145599365 40.3207702637 -167.495956421 0 -336 0 -390 -134 0 -408 0 -260 168 -140 432 -90 rrcurveto
          74 hlineto
          74 -16 78 -28 0 -60 0 -68 -66 -34 -58 0 -146 0 54 132 -80 0 -172 0 -166 -8 -166 0 -8 0 -6 0 -6 2 -16 0 -2 -10 0 -12 rrcurveto
          29.4098815918 -347.036636353 269.395629883 -130.963363647 363.194488525 0 rrcurveto
          -440 2244 rmoveto
          0 -34 70 -78 10 -26 6 -8 4 -8 6 -6 rrcurveto
          36 -56 rlineto
          34 -62 42 -66 48 -36 130 4 172 -12 112 20 106 18 44 136 64 94 rrcurveto
          46 62 rlineto
          14 24 12 20 0 16 -2 12 -6 8 -10 2 rrcurveto
          -370 hlineto
          -30 -42 -28 -56 -30 -42 rrcurveto
          -40 68 rlineto
          -32 72 -60 8 -92 0 rrcurveto
          -88 hlineto
          -18 0 -28 2 -30 0 -46 0 -46 -6 0 -28 rrcurveto
          endchar
        </CharString>
        <CharString name="Scedilla">
          107 -597.466705322 192 342 20 -16.5332946777 378 838 400 hstemhm
          52 580 -194 626 -184 584 hintmask 11000100
          438 -513.466796875 rmoveto
          -71 callsubr
          hintmask 00111010
          290 453.466796875 rmoveto
          -70 callsubr
          endchar
        </CharString>
        <CharString name="Scircumflex">
          107 -60 378 838 400 110 392 hstem
          52 580 248 584 vstem
          253.375 1702.74023438 rmoveto
          -68 callsubr
          292 -2018 rmoveto
          -70 callsubr
          endchar
        </CharString>
        <CharString name="Scommaaccent">
          -45 -60 378 838 400 hstemhm
          52 580 -310 677.463226318 -119.463226318 584 hintmask 00010000
          322 -844 rmoveto
          -40 callsubr
          hintmask 11101000
          406 784 rmoveto
          -70 callsubr
          endchar
        </CharString>
        <CharString name="T">
          -59 -7 -21 1088 434 -418 428 hstemhm
          328 642 -622 622 hintmask 11001000
          -16 1198 rmoveto
          -90 callsubr
          hintmask 10110000
          0 -304 -20 -296 0 -304 rrcurveto
          40 -48 rlineto
          18 0 20 0 20 2 rrcurveto
          60 hlineto
          80 0 76 -2 86 0 2 2 2 0 0 0 70 0 64 -2 70 0 rrcurveto
          hintmask 10101000
          -89 callsubr
          hintmask 11001000
          -88 callsubr
          endchar
        </CharString>
        <CharString name="Tcaron">
          -59 -28 21 1067 434 -418 428 152 398 hstemhm
          328 642 -622 622 hintmask 00010000
          165.046875 2030.08398438 rmoveto
          -38 callsubr
          hintmask 11000100
          -181.046875 -832.083984375 rmoveto
          -90 callsubr
          hintmask 10101000
          -28 callsubr
          hintmask 10100100
          -89 callsubr
          hintmask 11000100
          -88 callsubr
          endchar
        </CharString>
        <CharString name="Tcommaaccent">
          -59 -565.466705322 192 342 20 -16.5332946777 21 1067 434 -418 428 hstemhm
          328 642 -626 626 -622 622 hintmask 11000010
          344 -481.466796875 rmoveto
          -71 callsubr
          hintmask 00110001
          -360 1679.46679688 rmoveto
          -90 callsubr
          hintmask 00101100
          -28 callsubr
          hintmask 00101001
          -89 callsubr
          hintmask 00110001
          -88 callsubr
          endchar
        </CharString>
        <CharString name="Thorn">
          149 -3 -21 370 318 376 332 hstemhm
          104 636 -610 610 232 548 hintmask 11110100
          104 136 rmoveto
          hintmask 11101100
          -95 callsubr
          hintmask 11110100
          24 0 16 14 2 22 rrcurveto
          334 192 vlineto
          238 24 350 72 0 426 rrcurveto
          330 -232 174 -264 vhcurveto
          -48 hlineto
          -80 6 -84 2 -80 0 rrcurveto
          84 vlineto
          -2.61210632324 49.6300506592 25.3474884033 101.394012451 -54.7353820801 4.97593688965 rrcurveto
          -568 hlineto
          -22 -58 -2 -54 0 -58 rrcurveto
          -516 vlineto
          0 -210 -4 -204 0 -208 rrcurveto
          602 728 rmoveto
          116 150 2 -170 hvcurveto
          hintmask 11101100
          -168 -122 -40 -110 vhcurveto
          -34 44 rlineto
          endchar
        </CharString>
        <CharString name="U">
          237 -60 440 1136 -20 hstem
          92 626 182 636 vstem
          92 498 rmoveto
          16 -456 380 -102 332 0 350 0 362 112 0 448 0 90 4 96 0 90 rrcurveto
          224 vlineto
          0 160 2 176 6 160 rrcurveto
          -44 16 hlineto
          -192 2 -186 2 -198 0 -10 -2 -14 -10 -2 -16 rrcurveto
          -48 vlineto
          0 -24 4 -22 0 -22 rrcurveto
          -72 vlineto
          4 -150 -8 -136 2 -150 rrcurveto
          -366 vlineto
          -60 -36 -58 -58 -86 -2 102 74 vhcurveto
          390 vlineto
          1.9927520752 189.311508179 -7.97854614258 177.398330688 -4.01420593262 183.290161133 -10 0 -14 10 -16 2 rrcurveto
          -136 hlineto
          -134 0 -130 -2 -126 -6 -10 0 -10 2 -10 0 -18 -14 -2 -64 0 -58 0 -52 4 -48 0 -22 rrcurveto
          -12 vlineto
          0 -250 -2 -238 -2 -246 rrcurveto
          endchar
        </CharString>
        <CharString name="Uacute">
          237 -60 440 1116 20 106 410.959686279 hstem
          92 626 182 636 vstem
          460 1666 rmoveto
          -55 callsubr
          -583.556640625 -1534.95996094 rmoveto
          -49 callsubr
          endchar
        </CharString>
        <CharString name="Ubreve">
          237 -60 440 1116 20 hstem
          92 626 182 636 vstem
          673 2070 rmoveto
          -69 callsubr
          -581 -1572 rmoveto
          -49 callsubr
          endchar
        </CharString>
        <CharString name="Ucircumflex">
          237 -60 440 1116 20 112 392 hstem
          92 626 182 636 vstem
          323.375 1664.74023438 rmoveto
          -68 callsubr
          -414 -1422 rmoveto
          -49 callsubr
          endchar
        </CharString>
        <CharString name="Udieresis">
          237 -60 440 1116 20 344 388 hstemhm
          92 626 -346 388 140 636 -616 388 hintmask 00101010
          372 1896 rmoveto
          -54 callsubr
          548 -66 rmoveto
          -73 callsubr
          hintmask 11010100
          -828 -1394 rmoveto
          -49 callsubr
          endchar
        </CharString>
        <CharString name="Ugrave">
          237 -60 440 1116 20 112 396 hstem
          92 626 182 636 vstem
          410 2008 rmoveto
          -58 callsubr
          -318 -1510 rmoveto
          -49 callsubr
          endchar
        </CharString>
        <CharString name="Uhungarumlaut">
          237 -60 440 1116 20 142 409.158874512 hstem
          92 626 182 636 vstem
          182 1700 rmoveto
          -22 callsubr
          369.385742188 -415.405273438 rmoveto
          -21 callsubr
          -676.032226562 -1153.75390625 rmoveto
          -49 callsubr
          endchar
        </CharString>
        <CharString name="Uring">
          237 -60 440 1116 20 136 184 218 182 hstemhm
          92 626 182 636 -609 188 hintmask 00110010
          521 1940 rmoveto
          -42 callsubr
          182 14 rmoveto
          -41 callsubr
          hintmask 11001100
          -611 -1456 rmoveto
          -49 callsubr
          endchar
        </CharString>
        <CharString name="V">
          177 -7 -21 1538 -20 hstem
          -36.2278289795 1474.80825806 rmoveto
          425.878067017 -1510.85316467 rlineto
          152 6 158.349761963 -5.95510864258 156 14 rrcurveto
          72 hlineto
          72 0 70 -6 72 0 93.7552490234 31.2517547607 89.8254852295 526.649291992 33.9448394775 136.230453491 rrcurveto
          224.47442627 809.868499756 rlineto
          -2 10 -6 18 -16 6 rrcurveto
          -160 hlineto
          -180 0 -224 -6 -6 -18 rrcurveto
          -100 -500 rlineto
          -34 -166 -48 -168 -28 -168 rrcurveto
          -172 996 rlineto
          -16 22 -16 6 -16 0 -186 0 -184 -4 -192 0 rrcurveto
          -18 -16.2278289795 -7.19174194336 -22 hvcurveto
          endchar
        </CharString>
        <CharString name="W">
          753 -5.32577514648 -21 1534.32577515 2 hstem
          1069.44755554 779.609313965 rmoveto
          123.357406616 -805.935089111 rlineto
          60 2 75.1950378418 4.32577514648 60 0 84 0 84 -2 82 0 62 0 79.3133392334 -4.2197265625 60 4 rrcurveto
          321.564468384 1471.77583313 rlineto
          -2 29.9999847412 -0.877807617188 28.4438934326 -14 0 rrcurveto
          -118 hlineto
          -16 0 -54 2 -62 0 rrcurveto
          -88 hlineto
          -28 0 -24 4 -22 -2 rrcurveto
          -48 hlineto
          -32 0 -32 -2 -6 -22 rrcurveto
          -60 -406 rlineto
          -20 -134 -15.2133483887 -138.975921631 -12 -144 rrcurveto
          -124.786651611 826.975921631 rlineto
          -2 6 -8 10 -16 0 -154 0 -150 -2 -160 0 rrcurveto
          -62 hlineto
          -20 0 -33.762588501 2.30268859863 -22 2 rrcurveto
          -127.401550293 -761.44644165 rlineto
          -14.0652618408 124.702087402 -54.4550018311 621.446487427 -62.315612793 16.9951629639 rrcurveto
          -30 hlineto
          -10 0 -10 0 -10 2 rrcurveto
          -58 hlineto
          -34 0 -36 4 -34 -2 -42 0 -46 -4 -46 0 rrcurveto
          -80 hlineto
          -26 0 -26 0 -24 2 -22 -8 -6 -12 0 -18 rrcurveto
          70 -336 rlineto
          75.2134246826 -330.786575317 68.3066864014 -337.693313599 70.479888916 -335.520111084 10 -52 4 -94 50 -26 122 6 112 2 122 0 86 0 82 -4 86 0 78.2471466064 0 56.0628356934 697.869018555 21.1375732422 113.74029541 rrcurveto
          endchar
        </CharString>
        <CharString name="X">
          223 -7 -21 1540 -20 hstem
          -36 hmoveto
          0 -14 8 -8 16 -6 86 0 74 2 86 0 112 0 104 -2 112 -2 91.645904541 40.7315063477 90.402923584 262.540679932 45.1353759766 97.6170501709 rrcurveto
          182.815795898 -386.88923645 rlineto
          22 -16 26 -4 32 0 rrcurveto
          48 hlineto
          152 0 158 4 160 0 rrcurveto
          40 22 12 24 hvcurveto
          20 vlineto
          -87.6640014648 136.335998535 -86.6824798584 136.7762146 -88.1069488525 135.893066406 rrcurveto
          -199.546569824 306.994720459 rlineto
          147.876617432 240.790039062 151.527267456 237.139419556 150.596115112 238.070541382 rrcurveto
          12 vlineto
          0 26 -10 14 -18 4 -192 0 -186 -10 -190 -6 -6 2 -4 2 -2 0 -10 0 -20 -36 -22 -48 rrcurveto
          -38 -80 rlineto
          -35.5777435303 -76.4222564697 -37.3834686279 -76.1949462891 -34.1479492188 -77.8520507812 rrcurveto
          -100.890838623 238.46925354 rlineto
          -34 78 -42 74 -18 4 -24 0 -24 0 -22 -2 rrcurveto
          -70 hlineto
          -30 0 -28 4 -30 -2 -128 0 -124 6 -128 0 -8 -6 -4 -6 0 -8 rrcurveto
          -10 vlineto
          145.692947388 -238.307052612 141.155807495 -242.844192505 141.151245117 -242.848754883 -142.825439453 -222.507904053 -140.77947998 -224.553848267 -144.395080566 -220.938247681 -22 -34 -14 -28 0 -22 rrcurveto
          endchar
        </CharString>
        <CharString name="Y">
          147 436 636 vstem
          1568 1462 rmoveto
          -8 34 -8 10 -18 2 rrcurveto
          -564 0 -183.207183838 -585.552597046 rlineto
          -30.4014129639 104.528823853 -117.523147583 466.736358643 -66.8682556152 10.2874298096 -102 0 -106 2 -104 0 rrcurveto
          -252 hlineto
          -26 -37.0619812012 -16.9843292236 -18 hvcurveto
          171.350738525 -287.264465332 rlineto
          75.6587219238 -151.007949829 68.7334594727 -155.395629883 75.3190612793 -151.347610474 64 -122 36 -136 0 -172 rrcurveto
          -72 vlineto
          0 -56 6 -72 -10 -48 0 -24 6 -30 30 -30 196 0 178 4 190 0 26 0 8 10 6 22 rrcurveto
          500 vlineto
          158.279083252 327.79699707 175.384780884 311.650863647 162.336135864 322.552139282 rrcurveto
          endchar
        </CharString>
        <CharString name="Yacute">
          147 1594 410.959686279 hstem
          436 636 vstem
          448 1638 rmoveto
          -55 callsubr
          904.443359375 -542.959960938 rmoveto
          -39 callsubr
          endchar
        </CharString>
        <CharString name="Ydieresis">
          147 1620 388 hstemhm
          324 388 -276 636 -200 388 hintmask 11010000
          324 1656 rmoveto
          -54 callsubr
          548 -66 rmoveto
          -73 callsubr
          hintmask 00100000
          696 -190 rmoveto
          -39 callsubr
          endchar
        </CharString>
        <CharString name="Z">
          17 -24 428 682 418 hstem
          14 16 rmoveto
          34 -44 10 -8 46 0 390 0 386 12 392 0 rrcurveto
          24 hlineto
          54 22 8 64 hvcurveto
          0 26 -4 30 0 20 rrcurveto
          92 vlineto
          86 0 102 -32 vhcurveto
          -576 0 290 344 rlineto
          182.84602356 217.129653931 111.15397644 39.8606262207 0 357.009719849 rrcurveto
          6 vlineto
          0 10 4 26 0 24 rrcurveto
          78 -12 -2 -72 vhcurveto
          -212 hlineto
          -330.046005249 -4.04963684082 -336.145751953 -3.95036315918 -325.808242798 0 -16 0 -4 -24 0 -56 0 -60 8 -80 0 -28 rrcurveto
          -120 vlineto
          0 -24 2 -18 22 -6 182 0 172 6 182 0 rrcurveto
          -292 -356 rlineto
          -196 -240 -94 -124 -2 2 rrcurveto
          -6 -4 -230 -90 hvcurveto
          endchar
        </CharString>
        <CharString name="Zacute">
          17 -24 428 682 418 152 410.959686279 hstem
          333 1700 rmoveto
          -55 callsubr
          -534.556640625 -2050.95996094 rmoveto
          -67 callsubr
          endchar
        </CharString>
        <CharString name="Zcaron">
          17 -24 428 682 418 84 398 hstem
          203.001953125 1962.08398438 rmoveto
          -38 callsubr
          -189.001953125 -1946.08398438 rmoveto
          -67 callsubr
          endchar
        </CharString>
        <CharString name="Zdotaccent">
          17 -24 428 682 418 152 396 hstem
          505 382 vstem
          509 1700 rmoveto
          -72 callsubr
          -495 -1684 rmoveto
          -67 callsubr
          endchar
        </CharString>
        <CharString name="_1">
          -1377 endchar
        </CharString>
        <CharString name="a">
          105 59 -21 210 336 803.970474243 -20 20 -20 hstemhm
          hintmask 11100000
          552 248 rmoveto
          308 hlineto
          26 0 0 2 6 -26 rrcurveto
          38 -152 rlineto
          4 -22 24 -2 30 -4 rrcurveto
          464 hlineto
          42 14 6 38 hvcurveto
          -6 22 -18 24 -6 26 rrcurveto
          0 20 0 -2 rlineto
          -35.5131378174 101.820205688 -35.4511871338 102.834579468 -32.3485107422 104.984832764 rrcurveto
          -39.702545166 144.63067627 rlineto
          -22.1346893311 65.7678222656 -48.6269989014 80.1784973145 -8.2229309082 65.7833862305 rrcurveto
          12 vlineto
          -47.4925842285 143.840744019 -47.2464904785 144.086837769 -47.260925293 144.072418213 -10 18 -10 16 -2 12 rrcurveto
          26 vlineto
          -12 20 -62 4 -78 0 rrcurveto
          -539.98550415 3.97047424316 rlineto
          -9.78379821777 -9.78379821777 -1.9375 -4.36470031738 -8.29319763184 -13.8219909668 -32.7195129395 -101.947158813 -32.6699676514 -101.996688843 -34.6105194092 -100.056152344 rrcurveto
          2 vlineto
          -109.459686279 -328.540313721 -93.7579498291 -328.242050171 -108.782363892 -329.217636108 rrcurveto
          -34 432 vlineto
          146.022567749 0 -24.7436981201 106.316207886 30.7211303711 103.683792114 rrcurveto
          48 356 rmoveto
          -4 vlineto
          220 124 rmoveto
          0 -8 8 -8 2 -8 rrcurveto
          -22 vlineto
          8 -30 10 -42 0 -22 rrcurveto
          -248 hlineto
          0 10 10 36 0 18 18.2130889893 78.4535827637 17.9188079834 78.7478637695 17.8681030273 78.7985534668 0 4 12 4 4 12 rrcurveto
          48 vlineto
          10.1179962158 53.9044799805 20.1030426025 76.1446380615 17.7789611816 3.95088195801 rrcurveto
          2 vlineto
          14 -6 8 -8 6 -16 rrcurveto
          -48 vlineto
          29.9397277832 -89.8191680908 13.7284393311 -101.421661377 20.3318328857 -94.7591705322 rrcurveto
          endchar
        </CharString>
        <CharString name="aacute">
          105 38 21 189 336 783.970474243 20 94.0295257568 410.959686279 hstem
          472 1526 rmoveto
          -55 callsubr
          -135.556640625 -1644.95996094 rmoveto
          -48 callsubr
          48 356 rmoveto
          -4 vlineto
          220 124 rmoveto
          -47 callsubr
          endchar
        </CharString>
        <CharString name="abreve">
          105 38 21 189 336 783.970474243 20 hstem
          585 1940 rmoveto
          -69 callsubr
          -33 -1692 rmoveto
          -48 callsubr
          48 356 rmoveto
          -4 vlineto
          220 124 rmoveto
          -47 callsubr
          endchar
        </CharString>
        <CharString name="acircumflex">
          105 38 21 189 336 783.970474243 20 88.0295257568 392 hstem
          233.375 1512.74023438 rmoveto
          -68 callsubr
          136 -1520 rmoveto
          -48 callsubr
          48 356 rmoveto
          -4 vlineto
          220 124 rmoveto
          -47 callsubr
          endchar
        </CharString>
        <CharString name="acute">
          -737 1358 410.959686279 hstem
          28 1402 rmoveto
          24 -44 216 0 rlineto
          116 6 32 -14 68 76 rrcurveto
          270.708602905 304.026580811 rlineto
          -1.52587890625e-05 30.1217498779 -274.61907959 1.03744506836 -44.0895233154 2.81422424316 rrcurveto
          -192.443267822 4.9596862793 rlineto
          endchar
        </CharString>
        <CharString name="adieresis">
          105 38 21 189 336 783.970474243 20 110.029525757 388 hstem
          258 388 160 388 vstem
          258 1534 rmoveto
          -54 callsubr
          548 -66 rmoveto
          -73 callsubr
          -254 -1282 rmoveto
          -48 callsubr
          48 356 rmoveto
          -4 vlineto
          220 124 rmoveto
          -47 callsubr
          endchar
        </CharString>
        <CharString name="ae">
          723 48 388 -188 336 -44 348 104 387.279663086 hstemhm
          1808 4 hintmask 00111000
          1808 548 rmoveto
          10 -6 6 14 hvcurveto
          26 vlineto
          -10 30 -32 30 -10 42 rrcurveto
          48 vlineto
          -6 16 -12 12 -6 10 rrcurveto
          38 vlineto
          -10 32 4 44 -62 0 -122 0 -118 -8 -118 0 rrcurveto
          -26 hlineto
          -6 0 -22 2 -8 0 rrcurveto
          70 vlineto
          0 10 -12 6 0 16 rrcurveto
          464 hlineto
          14 10 7.70314025879 6.53031921387 0 10 rrcurveto
          -105.703140259 339.469680786 rlineto
          -2 14 -12.0347137451 5.27966308594 -20 2 rrcurveto
          -1183.40365601 8.70149230957 -351.844223022 -980.396362305 -86.2767944336 -367.81161499 439.559371948 -1.77319335938 rlineto
          hintmask 01011000
          146.022567749 0 -24.7436981201 106.316207886 30.7211303711 103.683792114 rrcurveto
          308 hlineto
          26 0 0 2 6 -26 rrcurveto
          38 -152 rlineto
          hintmask 10111000
          6 -28 50 4 40 0 rrcurveto
          1008.16369629 0 -107.758010864 363.501785278 rlineto
          -16 26.0000152588 -36.4057006836 -1.50178527832 -28 0 rrcurveto
          -130 hlineto
          -90 0 -116.50642395 -9.76092529297 -96 0 rrcurveto
          -29.4935760498 113.760925293 154 0 rlineto
          102 0 88 10 80 0 rrcurveto
          -988 174 rmoveto
          0 -8 10 -8 2 -8 rrcurveto
          -24 vlineto
          hintmask 01011000
          6.03379821777 -29.1570129395 9.96620178223 -41.3333282471 0 -21.5096588135 rrcurveto
          -248 hlineto
          0 10 10 36 0 18 18.2130889893 78.4535827637 17.9188079834 78.7478637695 17.8681030273 78.7985534668 0 2 14 4 2 2 rrcurveto
          60 vlineto
          10.1179962158 53.9044799805 20.1030426025 76.1446380615 17.7789611816 3.95088195801 rrcurveto
          2 vlineto
          14 -6 8 -8 6 -16 rrcurveto
          -48 vlineto
          29.9397277832 -89.8191680908 13.7284393311 -101.421661377 20.3318328857 -94.7591705322 rrcurveto
          endchar
        </CharString>
        <CharString name="agrave">
          105 38 21 189 336 783.970474243 20 78.0295257568 396 hstem
          284 1846 rmoveto
          -58 callsubr
          268 -1598 rmoveto
          -48 callsubr
          48 356 rmoveto
          -4 vlineto
          220 124 rmoveto
          -47 callsubr
          endchar
        </CharString>
        <CharString name="ampersand">
          437 -68 300 1044 256 hstemhm
          16 504 -356 446 318 444 hintmask 11011000
          1476 -32 rmoveto
          334 hlineto
          26 2 12 12 0 18 0 56.6230163574 -129.163848877 98.3932800293 -34.836151123 40.9837036133 rrcurveto
          -116 116 rlineto
          114 116 64 152 14 144 rrcurveto
          40 vlineto
          -4 24 -8 8 -22 4 -14 0 -16 0 -14 -2 rrcurveto
          -46 hlineto
          -54 0 -52 2 -50 0 rrcurveto
          -118 hlineto
          -116.367767334 0 40.9060516357 -112.009857178 -46.5382843018 -63.9901428223 -50.3216705322 47.0116729736 -50.3315734863 47.0017547607 -51.3467559814 45.9865722656 170 116 114 122 0 162 rrcurveto
          280 -330 88 -294 -331.3046875 -252.6953125 -117.372894287 -266.627105713 vhcurveto
          0 -138 96 -132 116 -74 rrcurveto
          hintmask 11101000
          -204 -76 -156 -132 0 -220 rrcurveto
          -254 280 -190 400 vhcurveto
          88 hlineto
          122 10 120 50 106 48 rrcurveto
          40 hlineto
          84.7455596924 -58.2625732422 64.9030303955 -13.7374267578 154.351409912 0 rrcurveto
          -956 432 rmoveto
          0 76 64 84 60 28 6 0 18 -16 18 -16 rrcurveto
          54 -50 rlineto
          73.015411377 -71.1970825195 78.0311584473 -62.9541473389 68.9534301758 -75.8487701416 -70 -38 -70 -26 -80 0 -94 0 -126 52 0 116 rrcurveto
          hintmask 11011000
          90 744 rmoveto
          84 76 48 74 66 102 -30 -90 vhcurveto
          0 -54 -46 -56 -46 -36 rrcurveto
          -48 -38 rlineto
          -6 0 0 -2 -6 0 rrcurveto
          -69.7891693115 26.1709442139 -85.5585327148 73.2629699707 -10.6522979736 74.5660858154 rrcurveto
          endchar
        </CharString>
        <CharString name="aogonek">
          105 -466 196 308 21 189 336 783.970474243 20 hstem
          811 306 vstem
          552 248 rmoveto
          -48 callsubr
          48 356 rmoveto
          -4 vlineto
          220 124 rmoveto
          -47 callsubr
          -9 -990 rmoveto
          -37 callsubr
          endchar
        </CharString>
        <CharString name="approxequal">
          -55 170 294 -136 284 14 294 -130 282 hstemhm
          hintmask 01000000
          38.8777313232 348.138092041 rmoveto
          176.113174438 -162.904678345 rlineto
          10 1.52587890625e-05 15.0090942383 16.7665863037 22 24 rrcurveto
          34 36 rlineto
          46 48 54 20 44 -2 48 0 52 -14 46 -26 rrcurveto
          72 -40 rlineto
          hintmask 10000000
          74 -42 76 -34 98 -2 154 0 126 120 86 130 6 2 7.5870513916 11.0919952393 0 8 rrcurveto
          -157.587051392 172.908004761 -52 0 rlineto
          -64 -80 -62 -70 -70 0 rrcurveto
          hintmask 01000000
          -120 0 -142 148 -158 0 rrcurveto
          -168 0 -157.122268677 -131.861907959 -96 -132 rrcurveto
          2.99090576172 453.233413696 rmoveto
          176.921524048 -163.652404785 77.2098388672 80.2808990479 rlineto
          hintmask 00010000
          42 50 64 22 42 0 rrcurveto
          hintmask 00100000
          124 0 124 -142 140 -22 rrcurveto
          32 hlineto
          10 -2 10 0 10 0 162 0 118 118 98 130 4 10 8.59133911133 10.1845092773 0 6 rrcurveto
          -156.591339111 171.815490723 -52 0 rlineto
          -70 -96 -66 -54 -64 0 -44 0 -44 28 -52 30 rrcurveto
          -80 46 rlineto
          hintmask 00010000
          -62 36 -74 12 -60 0 -176 0 -140.131362915 -104.628494263 -102 -166 rrcurveto
          endchar
        </CharString>
        <CharString name="aring">
          105 38 21 189 336 783.970474243 20 76.0295257568 184 218 182 hstem
          844 188 vstem
          438 1752 rmoveto
          -42 callsubr
          182 14 rmoveto
          -41 callsubr
          -68 -1518 rmoveto
          -48 callsubr
          48 356 rmoveto
          -4 vlineto
          220 124 rmoveto
          -47 callsubr
          endchar
        </CharString>
        <CharString name="asciicircum">
          -103 1519.62490845 -20 hstem
          138.439971924 758.748474121 rmoveto
          0 -6 9.56002807617 -10.7484741211 16 -2 86 0 102.504058838 -3.99153137207 88 0 rrcurveto
          195.495941162 407.991531372 188 -390 rlineto
          10 -8 10 -18 16 0 rrcurveto
          120 hlineto
          106 60 6 42 hvcurveto
          -380.167785645 743.624908447 -262.532440186 -0.410247802734 rlineto
          endchar
        </CharString>
        <CharString name="asciitilde">
          -75 304 308 -176 326 hstemhm
          hintmask 01000000
          424 762 rmoveto
          -124 0 -84 -72 -72 -130 -2 -34 14 -46 16 -42 rrcurveto
          40 -114 rlineto
          10 -2 12 -8 14 -2 rrcurveto
          34 hlineto
          40 70 42 54 80 0 84 0 58 -34 64 -32 rrcurveto
          116 -50 rlineto
          hintmask 10000000
          30 -10 34 -6 38 0 122 0 74 74 76 102 0 4 2 4 2 2 rrcurveto
          8 vlineto
          54 -70 200 -24 vhcurveto
          -2 0 -16 -2 -4 -2 rrcurveto
          0 22 0 -34 -32 -42 rlineto
          -36 -48 -38 -34 -58 0 rrcurveto
          -210.614501953 0 -75.7813568115 150 -153.604141235 0 rrcurveto
          endchar
        </CharString>
        <CharString name="asterisk">
          -447 1006 242 -220 220 164 -20 126 -20 hstemhm
          76 774 hintmask 01111000
          372 740 rmoveto
          24 0 10 26 26 48 rrcurveto
          42 80 94.0982818604 -156.830459595 190.812393188 116.611114502 rlineto
          -1.52587890625e-05 14 -36.91065979 36.2193603516 -8 8 rrcurveto
          32 vlineto
          -2 10 -4 8 -6 8 rrcurveto
          -34 58 58 0 rlineto
          60 4 64 2 0 18 rrcurveto
          52 vlineto
          4 22 2 18 0 18 rrcurveto
          108 -28 -22 -40 vhcurveto
          -50 hlineto
          -20 0 -18 -4 -16 -4 rrcurveto
          -26 hlineto
          14 30 12 22 10 16 rrcurveto
          28 44 rlineto
          14 22 12 16 0 22 0 16 -70 40 -50 24 rrcurveto
          -60 28 rlineto
          -14 -8 -46 -62 -12 -24 rrcurveto
          -22 vlineto
          -2 -8 -16 -10 -6 -10 rrcurveto
          0 -28 -52 64 0 -2 0 38 rlineto
          -20 36 -22 32 -10 2 -22 0 -34 -20 -32 -20 rrcurveto
          -52 -34 rlineto
          -18 -4 -28 -16 0 -16 2 -16 8 -16 10 -22 rrcurveto
          34 -60 0 2 32 -52 rlineto
          hintmask 10111000
          -48 2 -64 2 -48 0 -22 -14 -10 -44 0 -50 0 -104 0 -20 70 -10 rrcurveto
          34 hlineto
          22 0 32 2 22 0 rrcurveto
          -22 -38 -46 -88 rlineto
          -8 -16 -2 -8 0 -6 rrcurveto
          -17.4600830078 170.108978271 -94.5399169922 23.8910217285 vhcurveto
          endchar
        </CharString>
        <CharString name="at">
          293 -12 164 164 152 -132 172 404 184 244 162 hstemhm
          72 190 162 208 382 146.242904663 -30.2429046631 122 172 168 hintmask 1101111101000000
          72 724 rmoveto
          -420 350 -316 390 vhcurveto
          128 0 106 10 110 42 rrcurveto
          -48 146 rlineto
          -74 -22 -80 -12 -82 0 rrcurveto
          -318 -292 220 336 416 292 216 320 286 264 -128 -396 hvcurveto
          0 -128 -38 -162 -138 -58 rrcurveto
          -66 -21.7570953369 49.0420074463 62 hvcurveto
          hintmask 1011111011000000
          91.7570953369 506.957992554 -122 0 rlineto
          -12 -48 -12 -48 -14 -46 rrcurveto
          -48 72 rlineto
          -54 54 -78 26 -80 0 rrcurveto
          -256 -152 -216 -204 hvcurveto
          -36 vlineto
          -168 146 -136 162 vhcurveto
          150 0 76 58 70 86 rrcurveto
          hintmask 1101111101000000
          42 -110 66 -54 78 0 rrcurveto
          194 184 284 304 376 -360 222 -376 hvcurveto
          -396 -388 -292 -486 hvcurveto
          560 -32 rmoveto
          16 118 74 102 136 0 rrcurveto
          78 78 -56 -108 hvcurveto
          hintmask 1011111101000000
          -122 -94 -118 -156 -74 -58 66 118 vhcurveto
          endchar
        </CharString>
        <CharString name="atilde">
          105 38 21 189 336 783.970474243 20 148.029525757 326 hstem
          912 1466 rmoveto
          -52 callsubr
          -24 340 rmoveto
          2 vlineto
          -336 -1560 rmoveto
          -48 callsubr
          48 356 rmoveto
          -4 vlineto
          220 124 rmoveto
          -47 callsubr
          endchar
        </CharString>
        <CharString name="b">
          31 44 310 265.932861328 210.067138672 256 302 hstemhm
          826 498 -480 516 hintmask 11110000
          1142 748 rmoveto
          111.415634155 66.8493804932 70.5843658447 69.4963226318 0 145.654296875 0 100 -36 108 -82 54 -102 74 -128 22 -128 0 rrcurveto
          -760 -1344 944 hlineto
          84 50 rlineto
          hintmask 11101000
          144 52 94 126 6 164 rrcurveto
          117.787918091 -75.7161865234 194.212081909 -142.283813477 vhcurveto
          -517.582214355 -128.067138672 rmoveto
          86 133.582214355 0.201431274414 -142.134292603 hvcurveto
          0 -94 -70 -24 -74 -6 rrcurveto
          -78 hlineto
          -10 2 -27.6667633057 8.51786804199 0 6 rrcurveto
          19.6667633057 689.482131958 rmoveto
          0 10 0 10 16 6 rrcurveto
          -2 vlineto
          2 0 16 0 4 2 rrcurveto
          hintmask 11110000
          84 100 -22 -96 -138 -134 0 -72 hvcurveto
          -6 2 -2 6 0 6 rrcurveto
          32 vlineto
          0 16 -2 14 0 10 0 6 2 8 0 6 rrcurveto
          20 vlineto
          0 38 -2 32 -6 34 rrcurveto
          endchar
        </CharString>
        <CharString name="backslash">
          -569 1548 -20 hstem
          -35.9909210205 1524.00302124 rmoveto
          531.990921021 -1600.00302124 rlineto
          26 6 30 0 32 0 38 0 38 -2 34 0 26 0 30 2 26 0 rrcurveto
          40 hlineto
          22 2 17.9125976562 13.4512023926 0 22 rrcurveto
          -585.131378174 1577.58036804 rlineto
          -26 1.52587890625e-05 -30.7812194824 -3.03157043457 -26 0 -70 0 -68 2 -68 4 -12 -6 -5.99092102051 -7.99697875977 0 -10 rrcurveto
          endchar
        </CharString>
        <CharString name="bar">
          -885 1550 -20 hstemhm
          70 342 -324 308 hintmask 11000000
          70 -40 rmoveto
          32 -34 rlineto
          46 -8 48 2 52 0 rrcurveto
          60 hlineto
          52 0 44 10 8 30 rrcurveto
          328 vlineto
          hintmask 10100000
          -8 282 -4 282 -4 282 rrcurveto
          382 vlineto
          0 48 -52 -18 -34 4 rrcurveto
          -138 hlineto
          -34 -4 -50 16 0 -54 rrcurveto
          -28 vlineto
          0 -492 -18 -538 0 -490 rrcurveto
          endchar
        </CharString>
        <CharString name="braceleft">
          -345 1512 -20 hstemhm
          236 492 -484 668 hintmask 10100000
          704 -312 rmoveto
          180 hlineto
          24 8 4 108 0 92 rrcurveto
          144 vlineto
          -8 22 -28 0 -24 0 -122 0 -10 38 0 96 0 26 2 20 0 26 rrcurveto
          36 vlineto
          0 158 -20 82 -104 48 rrcurveto
          -34 hlineto
          hintmask 11000000
          76 32 88 54 0 110 rrcurveto
          236 vlineto
          2 82 34 14 56 0 18 0 24 -2 22 0 22 0 12 10 4 22 0 112 2 104 0 112 rrcurveto
          -36 34 -216 0 rlineto
          -204 -4 -232 -24 0 -322 rrcurveto
          -288 vlineto
          -8 -80 -88 -8 -72 0 -22 -10 -4 -34 0 -36 0 -98 6 -82 0 -94 0 -28 48 6 48 -10 rrcurveto
          hintmask 10100000
          126 -16 -42 -46 16 -362 rrcurveto
          -3.60041809082 -247.156112671 233.194595337 -40.8438873291 230.405822754 0 rrcurveto
          endchar
        </CharString>
        <CharString name="braceright">
          -343 282 494 vstem
          86 -276 rmoveto
          34 -44 318 0 rlineto
          184 162 70 334 hvcurveto
          0 42 -6 40 0 38 rrcurveto
          64 vlineto
          -2 18 0 20 0 16 0 120 182 -74 8 62 0 56 -2 54 0 56 0 54 2 50 0 50 0 16 -20 12 -22 6 -66 0 -88 6 0 90 rrcurveto
          0 48 6 62 0 70 rrcurveto
          44 vlineto
          398 -248 -8 -192 vhcurveto
          -72 hlineto
          -2 -10 0 -2 hvcurveto
          -8 0 -28 2 -8 0 -10 0 -8 -2 -8 0 -20 0 -22 2 -20 2 -18 -14 -2 -38 0 -40 rrcurveto
          -42 vlineto
          2 -14 0 -10 0 -10 0 -58 -2 -64 0 -58 rrcurveto
          -22 18 -2 32 114 28 -24 -80 vhcurveto
          -76 vlineto
          0 -30 -4 -30 2 -32 0 -160 32 -58 130 -38 -130 -38 -34 -62 -6 -184 0 -58 2 -56 0 -26 rrcurveto
          -88 -46 -16 -60 vhcurveto
          -56 hlineto
          -20 -2 -10 -12 0 -18 0 -106 -4 -102 -2 -104 rrcurveto
          endchar
        </CharString>
        <CharString name="bracketleft">
          -343 -318 386 1078 364 hstemhm
          160 492 -470 470 hintmask 11100000
          160 -62 rmoveto
          0 -34 -2 -34 0 -32 rrcurveto
          -70 vlineto
          2 -16 0 -14 0 -14 rrcurveto
          44 -50 rlineto
          246 0 248 8 246 0 38 8 2 30 0 30 0 18 -2 20 0 14 2 10 0 10 0 12 rrcurveto
          78 vlineto
          0 74 -4 78 -30 4 rrcurveto
          -38 hlineto
          -90 0 -82 -4 -88 0 rrcurveto
          hintmask 11010000
          1092 vlineto
          74 -6 68 -4 72 0 30 0 36 2 26 0 rrcurveto
          20 2 166 54 106 -18 36 -108 hvcurveto
          -620 hlineto
          -26 -26 -4 -22 hvcurveto
          hintmask 11100000
          -24 -506 2 -510 0 -504 rrcurveto
          endchar
        </CharString>
        <CharString name="bracketright">
          -341 -316 376 1068 396 hstemhm
          58 794 -476 496 -484 464 hintmask 11100000
          852 -262 rmoveto
          76 vlineto
          hintmask 11010000
          0 470 22 466 -2 464 rrcurveto
          30 vlineto
          0 64 2 56 0 64 rrcurveto
          48 vlineto
          -2 14 0 14 0 16 -6 -2 -4 -2 -6 0 -80 0 -80 12 -80 0 -90 0 -92 -4 -90 0 -80 0 -82 4 -80 0 rrcurveto
          -26 hlineto
          -22 -16 -4 -28 0 -30 0 -14 2 -14 0 -14 0 -70 -2 -60 0 -70 rrcurveto
          -48 vlineto
          12 -16 12 -14 10 -10 56 0 56 4 56 0 rrcurveto
          124 hlineto
          hintmask 11001000
          6 -330 6 -314 0 -330 rrcurveto
          -94 -284 vlineto
          hintmask 11100000
          -34 -12 -6 -70 hvcurveto
          0 -96 -10 -194 44 -10 rrcurveto
          264 hlineto
          88 -2 90 2 90 -2 rrcurveto
          24 hlineto
          78.5146942139 125.485305786 -19.4545288086 75.4545288086 hvcurveto
          endchar
        </CharString>
        <CharString name="breve">
          -695 194 1752 rmoveto
          -262 hlineto
          -6 -8 -20 -8 -6 -6 rrcurveto
          -22 vlineto
          51.5107116699 -225.359375 135.011032104 -148.640625 253.478256226 0 208 0 186 112 44 258 rrcurveto
          26 -18 6 -22 vhcurveto
          -114 hlineto
          -58 2 -56 -2 -58 4 -42 -22 22 -98 -84 0 -105.344268799 0 69.162322998 132 -117.818054199 0 rrcurveto
          endchar
        </CharString>
        <CharString name="brokenbar">
          -883 1550 -20 hstem
          90 306 vstem
          80 -320 rmoveto
          32 -40 190 0 rlineto
          52 0 34 10 8 30 rrcurveto
          832 -292 vlineto
          -10 -10 -6 -18 0 -16 0 -6 2 -10 0 -10 0 -72 -10 -328 0 -362 rrcurveto
          1098 vmoveto
          32 -38 190 0 rlineto
          52 0 34 8 8 32 rrcurveto
          736 vlineto
          0 48 -50 -18 -34 4 rrcurveto
          -140 hlineto
          -36 -4 -48 16 0 -54 0 -10 2 -8 0 -10 0 -64 -10 -306 0 -332 rrcurveto
          endchar
        </CharString>
        <CharString name="bullet">
          -235 332 804 hstem
          156 822 vstem
          156 730 rmoveto
          22 -190 138 -208 258 0 rrcurveto
          214 190 170 232 232 -198 170 -214 hvcurveto
          -264 0 -124 -206 -22 -196 rrcurveto
          endchar
        </CharString>
        <CharString name="c">
          13 8 404 616 386 hstem
          36 580 vstem
          728 8 rmoveto
          50 0 70 4 48 10 rrcurveto
          6 vlineto
          238 42 192 158 30 276 rrcurveto
          38 vlineto
          -2 24 -8 16 -26 0 rrcurveto
          -74 hlineto
          -56 0 -54 -2 -56 0 -80 0 -80 2 -80 0 -44 -44 14 -126 -86 0 rrcurveto
          -104 -4 152 40 hvcurveto
          112 vlineto
          116 -14 196 142 vhcurveto
          50 0 32 -50 6 -40 rrcurveto
          -86 428 vlineto
          42 0 32 2 6 30 rrcurveto
          86 vlineto
          -32 228 -148 216 -428 0 -248 0 -252 -82 -128 -266 rrcurveto
          2 vlineto
          -54 -108 -4 -92 -10 -108 rrcurveto
          -14 vlineto
          -416.068969727 234.569412231 -321.931030273 457.430587769 vhcurveto
          endchar
        </CharString>
        <CharString name="cacute">
          13 8 404 616 386 84 410.959686279 hstem
          36 580 vstem
          728 8 rmoveto
          -46 callsubr
          -300 1534 rmoveto
          -55 callsubr
          endchar
        </CharString>
        <CharString name="caron">
          -667 1344 398 hstem
          -138.998352051 1718.0843811 rmoveto
          238.998352051 -374.084381104 400 0 rlineto
          128 0 8 50 44 66 35.7130584717 56.9536132812 38.2442932129 54.42237854 38.0426483154 54.6240081787 22 32 30 38 0 24 rrcurveto
          14 -6 8 -12 vhcurveto
          -128 hlineto
          -82 0 -78 2 -86 0 -32 -42 -28 -56 -32 -42 rrcurveto
          -38 66 rlineto
          -40 70 -18 4 -52 0 -114 0 -96 8 -110 0 -18 -8 -12.9983520508 -11.9156188965 0 -14 rrcurveto
          endchar
        </CharString>
        <CharString name="ccaron">
          13 8 404 616 386 112 398 hstem
          36 580 vstem
          203.046875 1900.08398438 rmoveto
          -38 callsubr
          524.953125 -1892.08398438 rmoveto
          -46 callsubr
          endchar
        </CharString>
        <CharString name="ccedilla">
          13 -516 192 332 404 -394 20 990 386 hstemhm
          36 580 -234 626 hintmask 10100100
          382 -432 rmoveto
          -71 callsubr
          hintmask 01011000
          346 440 rmoveto
          -46 callsubr
          endchar
        </CharString>
        <CharString name="ccircumflex">
          13 8 404 616 386 116 392 hstem
          36 580 vstem
          197.375 1566.74023438 rmoveto
          -68 callsubr
          348 -1814 rmoveto
          -46 callsubr
          endchar
        </CharString>
        <CharString name="cdotaccent">
          13 8 404 616 386 112 396 hstemhm
          36 580 -108 382 hintmask 00101000
          512 1570 rmoveto
          -72 callsubr
          hintmask 11010000
          216 -1562 rmoveto
          -46 callsubr
          endchar
        </CharString>
        <CharString name="cedilla">
          -773 -516 192 362 -20 hstem
          -10 626 vstem
          -10 -432 rmoveto
          -48 180 -36 116 172 158 86 160 112 -80 82 -148 vhcurveto
          10 20 34 40 0 20 0 18 -10 14 -22 2 rrcurveto
          -179.13067627 0 -126.187866211 -218.845062256 rlineto
          8 -26 25.3185424805 -21.1549377441 16 -8 rrcurveto
          44 -32 rlineto
          10 -6 18 -2 12 0 rrcurveto
          12 32 vlineto
          4 2 8 2 8 0 18 0 24 -6 2 -18 0 -40 -72 0 -12 0 -34 -2 -36 8 -34 14 rrcurveto
          -64 24 rlineto
          -32 -2 -20 -42 -14 -28 rrcurveto
          -28 vlineto
          -8 -18 -8 -20 0 -14 rrcurveto
          endchar
        </CharString>
        <CharString name="cent">
          119 -276 528 hstemhm
          132 534 -68 332 -74 488 hintmask 11010000
          1360 380 rmoveto
          -6 18 -10 10 -14 2 -150 0 -146 0 -150 2 -14 -22 14 -138 -124 0 rrcurveto
          -80 -14 86 54 hvcurveto
          56 vlineto
          -2 18 0 18 0 20 rrcurveto
          44 vlineto
          88 16 164 102 70 4 -80 -46 -30 20 -4 44 vhcurveto
          72 0 66 2 70 0 18 0 36 -2 34 0 54 0 74 4 0 18 -32 278 -156 132 -228 10 rrcurveto
          hintmask 10100000
          2 26 0 28 0 24 rrcurveto
          32 vlineto
          0 34 0 54 2 36 rrcurveto
          -312 hlineto
          -14 -2 -6 -10 -2 -18 0 -66 2 -66 0 -72 rrcurveto
          hintmask 11010000
          -230 -68 -238 -144 0 -334 0 -296 126 -222 268 -72 rrcurveto
          66 -176 hlineto
          38 -42 rlineto
          72 0 72 -4 72 0 rrcurveto
          70 hlineto
          32 8 20 36 hvcurveto
          0 56 -2 60 -2 56 rrcurveto
          221.389160156 64.1707763672 168.115646362 98.7314910889 18.4951934814 265.097732544 rrcurveto
          endchar
        </CharString>
        <CharString name="circumflex">
          -667 1352 392 hstem
          -138.625106812 1388.73991394 rmoveto
          -1.52587890625e-05 -25.9999847412 42.6251068115 -10.7399139404 38 0 rrcurveto
          314 hlineto
          36 0 48 106 14 14 26 -42 16 -60 52 -26 96 6 90 2 102 0 rrcurveto
          68 hlineto
          32 22.6216278076 14.7297363281 18 hvcurveto
          -264.054046631 369.675674438 -354.567565918 -10.4054107666 rlineto
          -166 -6 22 -30 -52 -64 rrcurveto
          endchar
        </CharString>
        <CharString name="colon">
          -607 -32 476 172 460 hstem
          112 536 vstem
          106 52 rmoveto
          0 -16 2 -10 0 -16 rrcurveto
          30 -42 178 0 rlineto
          130 0 190 2 12 34 rrcurveto
          410 vlineto
          -10 24 -56 4 -54 0 rrcurveto
          -80 hlineto
          -10 0 -12 0 -14 2 rrcurveto
          -84 hlineto
          -84 -128 -4 -26 hvcurveto
          -6 -120 -4 -130 0 -112 rrcurveto
          4 628 rmoveto
          2 -10 0 -12 0 -10 rrcurveto
          32 -32 480 0 rlineto
          26 -2 26 26 hvcurveto
          378 vlineto
          28 -64 2 -56 vhcurveto
          -384 hlineto
          -30 -2 -136 -88 hvcurveto
          -56 vlineto
          0 -32 -2 -30 0 -26 rrcurveto
          endchar
        </CharString>
        <CharString name="comma">
          -643 -7.86251831055 677.325759888 vstem
          -7.86251831055 -206.029678345 rmoveto
          31.8625183105 -33.9703216553 230 0 rlineto
          98 0 113.544403076 1.68910217285 10 22 rrcurveto
          193.918823242 633.087921143 rlineto
          23.9999847412 -73.4632263184 3.22297668457 -76 vhcurveto
          -356 hlineto
          -20 0 -42 -138 -30 -142 rrcurveto
          endchar
        </CharString>
        <CharString name="copyright">
          269 -64 240 106 254 422 236 110 234 hstem
          8 242 142 280 704 252 vstem
          8 734 rmoveto
          20 -222 70 -282 290 -170 146 -86 148 -38 146 0 rrcurveto
          422 378 372 416 476 -384 338 -432 -425.951095581 -378.048904419 -296.354263306 -507.645736694 hvcurveto
          820 570 rmoveto
          292 -6 256 -228 0 -302 rrcurveto
          -338 -264 -254 -306 -304 -252 268 302 vhcurveto
          43.4797515869 292.50012207 208.397216797 265.49987793 326.123031616 0 rrcurveto
          -6 -768 rmoveto
          -108 -42 102 100 92 34 128 128 hvcurveto
          107.292877197 0 -31.9601135254 -88.571182251 68.6672363281 -29.428817749 rrcurveto
          170 hlineto
          42 26 6 26 hvcurveto
          -42 182 -114 140 -216 0 rrcurveto
          -224 -228 -170 -276 -226 132 -240 328 hvcurveto
          190 0 150 134 32 208 rrcurveto
          36 -34 4 -36 vhcurveto
          -116 hlineto
          -158.446777344 0 71.1402282715 -128 -128.693450928 0 rrcurveto
          endchar
        </CharString>
        <CharString name="currency">
          101 58 270 580 268 hstem
          236 258 510 276 76 6 vstem
          344 252 rmoveto
          -44 -46 rlineto
          -38 -40 -12 -38 -26 -54 rrcurveto
          -34 32 vlineto
          4 -4 4 -2 4 0 22 0 32 30 34 36 rrcurveto
          64 68 rlineto
          118.10546875 -93.5930023193 96.1730804443 13.0233612061 117.721450806 -29.4303588867 rrcurveto
          46 hlineto
          118 10 110 26 100 100 rrcurveto
          159.164291382 -170.016403198 rlineto
          5.99998474121 1.52587890625e-05 26.8357086182 14.0164031982 6 2 rrcurveto
          8 vlineto
          8 2 28 2 8 6 rrcurveto
          16 vlineto
          -26 50 -32 42 -38 40 rrcurveto
          -74 78 rlineto
          56 86 26 104 0 110 0 114 -18 178 -86 108 41.8871459961 47.446182251 44.5948791504 44.7384490967 43.5179748535 45.8153686523 30 32 26 30 0 16 0 6 0 0 -6 6 rrcurveto
          -2 vlineto
          -4 4 -45.2570953369 41.0556182861 -18 0 rrcurveto
          -186.742904663 -199.055618286 rlineto
          -87.7907562256 87.7907562256 -130.989395142 32.2092437744 -137.219848633 0 -126 0 -92 -34 -86 -58 rrcurveto
          -159.622711182 172.060852051 rlineto
          -4 -80.2496948242 -45.5535430908 -20 hvcurveto
          0 0 132.539077759 -137.840637207 33.3333282471 -34.6666717529 -108 -114 -20 -188 0 -98 0 -139.994003296 46.3028411865 -139.629959106 61.6971588135 -86.3760375977 rrcurveto
          150 378 rmoveto
          234 134 44 92 vhcurveto
          36 hlineto
          110 138 -12 -288 -268 -164 -12 -88 hvcurveto
          -32 hlineto
          -140.889892578 -85.1101074219 110.70223999 191.29776001 hvcurveto
          endchar
        </CharString>
        <CharString name="d">
          79 44 312 730 302 -16 -20 hstemhm
          102 504 274 532 hintmask 11011000
          642 1388 rmoveto
          -256 hlineto
          -87.2203674316 0 -88.6612548828 -18 -86.1183776855 0 rrcurveto
          hintmask 10111000
          -6 0 -10 2 -6 0 rrcurveto
          -1328 686 vlineto
          276 16 348 188 0 472 rrcurveto
          534.513244629 -338.756149292 133.486755371 -431.243850708 vhcurveto
          12 -1032 rmoveto
          -48 708 30 hlineto
          hintmask 11011000
          22 vlineto
          86 0 76 -10 54 -108 28 -72 -10 -48 10 -52 rrcurveto
          -72 vlineto
          -144.535614014 -15.244720459 -223.464385986 -210.755279541 vhcurveto
          endchar
        </CharString>
        <CharString name="dagger">
          139 -7 -21 848 384 hstem
          530 456 vstem
          188 1048 rmoveto
          0 -70 6 -78 0 -44 rrcurveto
          -38 34 2 28 vhcurveto
          266 -28 hlineto
          0 -250 -6 -240 0 -246 0 -52 6 -6 26 -26 rrcurveto
          410 hlineto
          24 0 10 14 2 18 0 272 4 282 0 266 rrcurveto
          250 hlineto
          30 0 34 6 4 22 0 102 -4 104 0 106 0 24 6 16 -54 0 -90 0 -96 -6 -94 0 rrcurveto
          30 vlineto
          0 42 2 40 0 42 rrcurveto
          64 vlineto
          78 -28 10 -32 vhcurveto
          -378 hlineto
          -16 -6 -4 -16 0 -22 0 -10 2 -16 0 -10 0 -74 -4 -76 0 -74 -8 -2 -26 0 -6 0 -82 0 -90 6 -86 0 -34 0 -6 -68 0 -88 rrcurveto
          endchar
        </CharString>
        <CharString name="daggerdbl">
          139 224 368 314 358 hstemhm
          528 458 -442 432 hintmask 11100000
          190 338 rmoveto
          0 -54 4 -60 28 -4 104 0 100 -4 102 0 rrcurveto
          -150 vlineto
          0 -40 8 -18 28 -40 rrcurveto
          262 hlineto
          128 32 -2 86 hvcurveto
          0 30 0 28 -2 26 rrcurveto
          88 308 vlineto
          26 6 6 28 0 38 rrcurveto
          28 vlineto
          -2 8 0 8 0 8 rrcurveto
          14 vlineto
          0 26 -2 28 0 32 rrcurveto
          96 vlineto
          42 -18 6 -26 vhcurveto
          -54 0 -54 -2 -56 0 -42 0 -46 2 -42 2 0 104 -2 104 -6 106 rrcurveto
          292 hlineto
          30 0 18 0 2 24 0 106 -2 124 -2 102 rrcurveto
          hintmask 11010000
          -336 176 hlineto
          2 48 -10 14 -40 0 -70 0 -64 6 -74 0 -38 0 -44 -2 -48 -6 rrcurveto
          -40 -6 -6 -38 hvcurveto
          -192 -340 -324 vlineto
          -28 56 -6 52 vhcurveto
          24 0 24 2 16 0 rrcurveto
          -2 2 -2 2 vhcurveto
          76 hlineto
          26 0 24 4 30 -2 rrcurveto
          -318 vlineto
          -106 0 -104 4 -106 0 rrcurveto
          -46 -16 16 -158 0 -80 rrcurveto
          endchar
        </CharString>
        <CharString name="dcaron">
          79 44 312 730 302 -36 20 hstemhm
          102 504 274 532 153.137481689 677.325759888 hintmask 00000100
          1565.13769531 767.970703125 rmoveto
          -24 callsubr
          hintmask 11011000
          -1003 250 rmoveto
          -256 hlineto
          -87.220703125 0 -88.6611328125 -18 -86.1181640625 0 rrcurveto
          hintmask 10111000
          -6 0 -10 2 -6 0 rrcurveto
          -1328 686 vlineto
          276 16 348 188 0 472 rrcurveto
          534.513671875 -338.755859375 133.486328125 -431.244140625 vhcurveto
          12 -1032 rmoveto
          -48 708 30 hlineto
          hintmask 11011000
          22 vlineto
          86 0 76 -10 54 -108 28 -72 -10 -48 10 -52 rrcurveto
          -72 vlineto
          -144.53515625 -15.2451171875 -223.46484375 -210.754882812 vhcurveto
          endchar
        </CharString>
        <CharString name="degree">
          -499 916 632 hstem
          108 640 vstem
          108 1244 rmoveto
          -228 190 -100 152 160 138 156 152 vhcurveto
          12 vlineto
          184 -152 128 -160 vhcurveto
          -202 0 -100 -146 -26 -158 rrcurveto
          endchar
        </CharString>
        <CharString name="dieresis">
          -719 1396 388 hstem
          -116 388 160 388 vstem
          -116 1432 rmoveto
          11.094619751 -16.2387237549 10.6261749268 -16.7071533203 10.2792053223 -17.0541229248 64 2 62 6 64 0 18 0 26 -2 26 0 44 0 46 6 6 22 rrcurveto
          320 vlineto
          0 22 -6 20 -18 6 rrcurveto
          -328 hlineto
          -24 -12 -172 -118 hvcurveto
          548 -66 rmoveto
          -73 callsubr
          endchar
        </CharString>
        <CharString name="divide">
          -95 -24 322 86 304 76 316 hstem
          484 324 vstem
          92 428 rmoveto
          0 -26 4 6 22 -24 rrcurveto
          1058 80 hlineto
          0 58 6 52 0 70 0 22 -2 14 -16 0 -70 -2 -68 -2 -70 0 -246 0 -258 12 -248 0 rrcurveto
          -60 hlineto
          -46 -10 -6 -158 0 -92 rrcurveto
          392 -300 rmoveto
          -102 94 -50 68 82 80 64 96 96 -78 66 -88 -88 -70 -72 -98 vhcurveto
          164 952 rmoveto
          -78 -82 -62 -96 -96 74 -62 82 hvcurveto
          48 0 54 24 30 40 rrcurveto
          28 46 rlineto
          6 14 2 18 0 22 rrcurveto
          96 -82 56 -82 vhcurveto
          endchar
        </CharString>
        <CharString name="dollar">
          67 -260 592 hstemhm
          56 568 -88 372 -362 342 hintmask 10100000
          22 452 rmoveto
          16 -244 106 -162 276 -74 80 -22 36 24 0 -124 rrcurveto
          -34 vlineto
          0 -10 0 -12 -2 -10 14 -10 8 -16 16 -10 50 -4 50 -2 48 -2 rrcurveto
          148 hlineto
          26 0 16 12 2 24 rrcurveto
          36 vlineto
          -2 10 -2 12 0 10 rrcurveto
          102 vlineto
          266 54 290 116 0 340 0 154 -64 142 -128 96 -96 52 -104 36 -106 26 rrcurveto
          -106 26 rlineto
          hintmask 11000000
          -78 26 -158 0 0 82 0 54 66 4 50 10 134 0 -76 -126 122 0 158 0 152 10 158 0 8 0 6 6 2 10 -52.2443389893 330.88079834 -169.416534424 109.252075195 -298.339126587 23.8671264648 rrcurveto
          hintmask 10010000
          0 26 4 42 0 38 0 50 -8 50 -32 0 -70 0 -60 -2 -70 0 rrcurveto
          -80 hlineto
          -24 -4 2 -34 0 -30 rrcurveto
          -74 vlineto
          0 -22 0 -20 2 -18 rrcurveto
          hintmask 11000000
          -218 -46 -274 -92 0 -370 0 -250 140 -126 380 -92 rrcurveto
          92 -24 rlineto
          108 -28 92 -6 0 -64 0 -70 -62 -30 -64 0 -148 0 64 156 -62 0 rrcurveto
          -506 hlineto
          -34 -34 -4 -32 hvcurveto
          endchar
        </CharString>
        <CharString name="dotaccent">
          -723 1096 396 hstem
          138 382 vstem
          142 1140 rmoveto
          -72 callsubr
          endchar
        </CharString>
        <CharString name="dotlessi">
          -709 -3 -21 hstem
          50 546 vstem
          46 84 rmoveto
          -64 callsubr
          endchar
        </CharString>
        <CharString name="e">
          -211 48 382 130 308 124 392 hstem
          84 1292 rmoveto
          -87 callsubr
          endchar
        </CharString>
        <CharString name="eacute">
          -211 48 382 130 308 124 392 82 410.959686279 hstem
          328 1510 rmoveto
          -55 callsubr
          -459.556640625 -584.959960938 rmoveto
          -87 callsubr
          endchar
        </CharString>
        <CharString name="ecaron">
          -211 48 382 130 308 124 392 142 398 hstem
          119.046875 1900.08398438 rmoveto
          -38 callsubr
          -35.046875 -608.083984375 rmoveto
          -87 callsubr
          endchar
        </CharString>
        <CharString name="ecircumflex">
          -211 48 382 130 308 124 392 96 392 hstem
          101.375 1516.74023438 rmoveto
          -68 callsubr
          -200 -480 rmoveto
          -87 callsubr
          endchar
        </CharString>
        <CharString name="edieresis">
          -211 48 382 130 308 124 392 102 388 hstem
          148 388 160 388 vstem
          148 1522 rmoveto
          -54 callsubr
          548 -66 rmoveto
          -73 callsubr
          -612 -226 rmoveto
          -87 callsubr
          endchar
        </CharString>
        <CharString name="egrave">
          -211 48 382 130 308 124 392 94 396 hstem
          192 1858 rmoveto
          -58 callsubr
          -108 -566 rmoveto
          -87 callsubr
          endchar
        </CharString>
        <CharString name="eight">
          73 -56 328 348 268 324 336 hstemhm
          74 510 270 512 -490 532 hintmask 11110100
          708 1548 rmoveto
          -280 -354 -120 -360 hvcurveto
          0 -144 62 -112 128 -58 -168 -78 -58 -122 -10 -158 28 -216 100 -236 532 0 488 0 232 164 0 288 0 206 -112 94 -136 68 rrcurveto
          hintmask 11111000
          134 48 72 100 0 154 rrcurveto
          339.954650879 -308.953521729 142.045349121 -349.046478271 vhcurveto
          -150 -1108 rmoveto
          98 64 82 96 vhcurveto
          hintmask 11110100
          110 48 -70 -118 -90 -54 -70 -102 hvcurveto
          -98 0 -54 70 -10 98 rrcurveto
          26 608 rmoveto
          68 38 96 92 vhcurveto
          hintmask 11111000
          106 34 -66 -94 -84 -36 -80 -96 -110 -28 80 80 hvcurveto
          endchar
        </CharString>
        <CharString name="ellipsis">
          697 -16 456 hstem
          84 538 136 542 134 542 vstem
          80 28 rmoveto
          0 -6 0 -4 2 -4 rrcurveto
          32 -46 108 0 rlineto
          128 6 124 2 126 8 2 0 18 -2 2 0 rrcurveto
          430 vlineto
          24 -50 4 -48 vhcurveto
          -408 hlineto
          -30 -2 -152 -92 hvcurveto
          -52 vlineto
          0 -38 -4 -30 0 -32 rrcurveto
          678 -4 rmoveto
          2 -10 0 -10 0 -8 rrcurveto
          30 -44 182 0 rlineto
          120 0 198 8 10 30 rrcurveto
          410 vlineto
          -6 22 -62 6 -52 0 rrcurveto
          -142 hlineto
          -108 -162 -4 -26 hvcurveto
          -6 -114 -4 -116 0 -112 rrcurveto
          676 16 rmoveto
          0 -26 2 -26 0 -24 rrcurveto
          32 -42 96 0 rlineto
          6 0 56 -2 74 0 118 0 152 6 10 30 0 24 -2 24 -2 24 rrcurveto
          72 vlineto
          0 22 2 18 0 22 0 72 -2 66 0 70 -10 28 -112 -8 -50 6 -70 0 -60 2 -66 0 -52 0 -112 -2 0 -28 -6 -112 -4 -110 0 -106 rrcurveto
          endchar
        </CharString>
        <CharString name="emdash">
          669 350 390 -372 372 hstemhm
          hintmask 01000000
          -4 740 rmoveto
          -14 -2 -60 -40 hvcurveto
          0 -88 2 -80 0 -80 rrcurveto
          hintmask 10000000
          30 -42 148 0 rlineto
          394 16 390 6 398 2 rrcurveto
          hintmask 01000000
          236 0 216 0 230 -6 16 2 14 6 2 10 rrcurveto
          140 vlineto
          2 58 0 54 2 66 0 18 0 12 -24 6 rrcurveto
          endchar
        </CharString>
        <CharString name="endash">
          -323 344 404 -384 380 hstemhm
          -24 1092 hintmask 10100000
          12 344 rmoveto
          hintmask 01100000
          278 0 276 20 272 0 rrcurveto
          198 hlineto
          26 6 20 24 99.2759399414 37.8760070801 244.724060059 -105.87600708 hvcurveto
          hintmask 10100000
          -22 0 -18 -4 -16 0 rrcurveto
          -44 hlineto
          hintmask 01100000
          -80 -4 -78 2 -78 -2 rrcurveto
          -236 hlineto
          hintmask 10100000
          -138 0 -138 4 -142 0 rrcurveto
          -32 -2 -96 -80 hvcurveto
          -152 vlineto
          0 -49.1820831299 14.5778198242 -5.39573669434 21.4221801758 -21.4221801758 rrcurveto
          endchar
        </CharString>
        <CharString name="eogonek">
          -211 -484 196 336 382 130 308 124 392 hstem
          394 306 vstem
          84 1292 rmoveto
          -87 callsubr
          310 -1576 rmoveto
          -37 callsubr
          endchar
        </CharString>
        <CharString name="equal">
          -105 120 336 -336 308 172 336 -298.963424683 294.963424683 hstemhm
          84 1088 hintmask 10001000
          106 456 rmoveto
          -18 -26 -4 -36 0 -34 rrcurveto
          -52 vlineto
          0 -22 -2 -26 0 -22 0 -10 -2 -12 0 -10 rrcurveto
          hintmask 01001000
          0 -24 2 -40 2 -22 rrcurveto
          1058 hlineto
          26 6 28 26 hvcurveto
          0 16 -2 16 0 14 rrcurveto
          66 vlineto
          68 0 82 -24 vhcurveto
          -80 -4 -78 -4 -86 0 rrcurveto
          -36 hlineto
          -262.129547119 -4.29721069336 -247.795410156 32.2972106934 -252.075042725 0 rrcurveto
          -22 180 rmoveto
          hintmask 00101000
          32 -36 rlineto
          hintmask 00011000
          1055.54257202 37.0365753174 0.457427978516 138.963424683 rlineto
          66 -4 90 -20 vhcurveto
          hintmask 00101000
          -314 0 -308 4 -314 0 rrcurveto
          -96 hlineto
          -28 -4 -32 -44 hvcurveto
          endchar
        </CharString>
        <CharString name="eth">
          75 61 -21 4 312 274 246 210 304 -18 -20 hstemhm
          96 508 272 532 hintmask 00110110
          418 1390 rmoveto
          -99.3793334961 0 -100.364242554 -20 -98.2564239502 0 rrcurveto
          hintmask 10101110
          -6 0 -12 2 -6 0 rrcurveto
          -496 -92 vlineto
          -30 -6 -34 -32 hvcurveto
          0 -18 4 -16 0 -16 0 -18 -2 -20 -2 -22 rrcurveto
          -60 vlineto
          6 -6 26 -4 8 -2 rrcurveto
          -12 44 vlineto
          14 0 14 0 18 2 0 -134 -2 -110 0 -122 rrcurveto
          -212 108 vlineto
          hintmask 01100110
          106 2 106 2 106 0 rrcurveto
          70 hlineto
          hintmask 10100110
          22 -4 20 0 20 0 rrcurveto
          hintmask 01100110
          26 0 38 4 22 0 rrcurveto
          44 hlineto
          hintmask 10110110
          -4 vlineto
          276 16 348 192 0 472 rrcurveto
          655.279022217 -556.369049072 14.7209777832 -433.630950928 vhcurveto
          hintmask 01110110
          232 -1034 rmoveto
          -30 hlineto
          -14 6 -2 94 0 84 rrcurveto
          88 vlineto
          16 0 16 0 16 2 rrcurveto
          48 hlineto
          28 4 26 22 hvcurveto
          56 vlineto
          52 -4 90 -28 vhcurveto
          -100 hlineto
          0 18 4 20 0 22 rrcurveto
          56 vlineto
          0 16 -4 38 0 18 rrcurveto
          32 22 hlineto
          86 0 76 -10 54 -108 28 -72 -10 -48 10 -52 rrcurveto
          -72 vlineto
          -144.692611694 -15.244720459 -223.307388306 -210.755279541 vhcurveto
          endchar
        </CharString>
        <CharString name="exclam">
          -585 -32 388 164 976 hstem
          112 544 vstem
          89.7133483887 1461.8344574 rmoveto
          57.599609375 -795.594604492 rlineto
          0 -59.9999847412 0.687042236328 -70.2398529053 46 -16 rrcurveto
          86 hlineto
          54 0 50 4 54 0 26 0 26 -2 26 0 58 0 58.1073608398 5.3599395752 2 30 rrcurveto
          71.8926391602 910.640060425 rlineto
          32 -42 8 -48 vhcurveto
          -86 0 -76 -6 -74 -6 rrcurveto
          -120 hlineto
          12 -182.286651611 5.83445739746 -40 hvcurveto
          30.9701385498 -1461.7953949 rmoveto
          2.00001525879 -6 17.3165130615 -4.0390625 6 -6 rrcurveto
          -16 vlineto
          62 0 438 -12 10 48 rrcurveto
          316 vlineto
          26 -34 10 -278 vhcurveto
          -196 hlineto
          -22 -14 -104 -100 hvcurveto
          endchar
        </CharString>
        <CharString name="exclamdown">
          -593 836 380 hstemhm
          60 632 -580 548 -540 504 hintmask 11000000
          60 -390 rmoveto
          526 hlineto
          40 6 56 -8 10 40 rrcurveto
          132 vlineto
          hintmask 10010000
          -14 234 -32 242 -22 234 rrcurveto
          58 vlineto
          -14 142 28 18 -184 0 -62 0 -88 -2 -118 0 -24 0 -26 -102 -16 -188 rrcurveto
          -146 vlineto
          -18 -300 -16 -144 -26 -216 rrcurveto
          hintmask 10100000
          52 1266 rmoveto
          10 -16 12 -16 14 -14 74 2 76 4 78 0 rrcurveto
          120 hlineto
          84 0 70 2 10 30 rrcurveto
          120 vlineto
          104 0 124 -24 vhcurveto
          -492 hlineto
          -34 0 4 -148 -2 -56 rrcurveto
          endchar
        </CharString>
        <CharString name="f">
          -251 61 -21 476 388 100 380 hstem
          88 568 vstem
          88 84 rmoveto
          -86 callsubr
          endchar
        </CharString>
        <CharString name="figuredash">
          -519 340 404 -384 384 hstemhm
          hintmask 01000000
          36 360 rmoveto
          36 hlineto
          hintmask 10000000
          -20 vlineto
          hintmask 01000000
          -107 callsubr
          hintmask 10000000
          -106 callsubr
          hintmask 01000000
          -105 callsubr
          endchar
        </CharString>
        <CharString name="five">
          91 670 338 110 400 hstem
          808 584 vstem
          68 400 rmoveto
          40 -390 324 -68 288 0 rrcurveto
          320 352 148 434 280 -190 204 -300 hvcurveto
          -96 0 -116 -26 -70 -50 6 58 2 62 6 62 208 2 216 2 208 0 rrcurveto
          44 -2 10 162 hvcurveto
          194 vlineto
          -6 22 -30 12 -26 0 rrcurveto
          -1100 hlineto
          -24 -26 0 -32 0 -38 rrcurveto
          -746 vlineto
          0 -44 2 -38 28 -40 rrcurveto
          444 hlineto
          76 0 -68 116 108 0 rrcurveto
          88 8 -98 -80 -58 -10 -110 -90 hvcurveto
          -76 0 36 100 -52 6 -94 0 -80 6 -90 0 rrcurveto
          -164 hlineto
          -66 -54 -4 -32 hvcurveto
          endchar
        </CharString>
        <CharString name="florin">
          119 -432 380 24 -20 560 396 632 -20 hstem
          1126 1152 rmoveto
          6 0 8 -12 8 -2 rrcurveto
          52 hlineto
          8 -2 34.5666809082 -2.24794006348 6 0 rrcurveto
          53.4333190918 346.247940063 rlineto
          -22 58 -240 2 -58 0 -274 0 -168 -80 -64 -480 rrcurveto
          -44 vlineto
          -74 -10 -80 -10 -80 -8 -38 -10 -4 -100 0 -84 0 -66 2 -62 0 -30 rrcurveto
          30 -44 rlineto
          52 -2 52 -6 52 0 rrcurveto
          24 hlineto
          -26 -154 -20 -150 -26 -144 -14 -58 -22 -50 -52 0 -16 0 -12 4 -22 10 rrcurveto
          28 vlineto
          -8 -8 -2 -8 -6 -8 -2 2 -12 4 -6 0 -24 0 -30 -112 -12 -86 rrcurveto
          -60 vlineto
          -6 -44 -6 -4 0 -22 0 -64 306 -12 16 0 402.39654541 0 41.8203125 347.945159912 55.7831420898 360.054840088 rrcurveto
          44 240 rlineto
          76.8936920166 8.73791503906 197.106307983 -32.5367889404 0 87.7988739014 rrcurveto
          300 vlineto
          -6 14 -26 2 -16 0 -54 12 -34 -6 -60 14 rrcurveto
          184 vlineto
          8.56776428223 0 50.9900512695 60 34.4421844482 0 rrcurveto
          endchar
        </CharString>
        <CharString name="four">
          55 226 356 hstem
          744 508 vstem
          -8 248 rmoveto
          16 -32 20 10 28 0 rrcurveto
          616 -218 hlineto
          34 -42 rlineto
          112 8 104 -2 108 0 rrcurveto
          194 hlineto
          40 4 0 20 0 36 0 58 -2 60 -2 62 rrcurveto
          140 hlineto
          30 4 36 88 hvcurveto
          0 106 -6 112 0 18 rrcurveto
          2 2 2 2 54 -10 6 -42 hvcurveto
          -26 0 -32 -2 -26 0 rrcurveto
          -38 -6 38 36 hvcurveto
          36 vlineto
          2 10 0 12 0 10 rrcurveto
          8 vlineto
          -2 16 0 16 0 16 rrcurveto
          46 vlineto
          0 186 8 182 0 186 rrcurveto
          64 -752 vlineto
          -127.065383911 -200.267944336 -126.961532593 -220.371810913 -125.973083496 -201.360244751 -50 -86 -86 -130 0 -110 rrcurveto
          414 80 rmoveto
          91.9892425537 166.010757446 112.682266235 165.317733765 93.3284912109 164.671508789 rrcurveto
          16 vlineto
          34 6 -162 -124 hvcurveto
          0 -84 -2 -72 0 -6 0 -14 0 -12 2 -10 rrcurveto
          -38 vlineto
          -6 -18 -6 -10 -18 -8 -88 0 -106 -6 -90 0 -6 8 -16 8 -2 10 rrcurveto
          endchar
        </CharString>
        <CharString name="fraction">
          -827 1550.71697998 -20 hstem
          -252 2 rmoveto
          28 -42 0 -42 rlineto
          48 0 52 2 54 0 14 0 10 -2 10 0 16 2 12 4 8 16 rrcurveto
          204 396 rlineto
          203.915893555 400.084106445 202.020507812 401.979492188 210.063598633 393.936401367 -6 2 -6 10 -16 0 rrcurveto
          -2 vlineto
          -72 0 -78.6631622314 8.71697998047 -72 0 rrcurveto
          -313.336837769 -590.71697998 rlineto
          -168.970504761 -319.696166992 -166.812408447 -321.854248047 -172.217086792 -316.449584961 rrcurveto
          endchar
        </CharString>
        <CharString name="g">
          125 12 384 126 314 208 372 hstem
          40 576 136 676 vstem
          1420 132 rmoveto
          88 vlineto
          0 192 8 200 0 192 -22 22 -80 6 -78 0 rrcurveto
          -96 hlineto
          -42 0 -56 2 -50 2 rrcurveto
          -90 hlineto
          -10 2 -10 2 -10 0 rrcurveto
          -94 hlineto
          -26 -16 -8 -12 0 -24 rrcurveto
          -8 vlineto
          0 -10 -2 -6 0 -6 rrcurveto
          -28 vlineto
          0 -30 -2 -22 0 -26 rrcurveto
          -62 vlineto
          0 -10 0 -10 2 -10 rrcurveto
          34 -38 84 0 rlineto
          10 0 12 2 14 0 rrcurveto
          38 hlineto
          0 -10 -2 -8 0 -6 0 -16 2 -10 0 -16 rrcurveto
          -44 vlineto
          -50 -16 -46 -2 -58 0 rrcurveto
          -164 -12 132 100 hvcurveto
          76 vlineto
          0 18 -2 28 0 26 0 116 14 152 144 0 48 0 22 -18 10 -22 rrcurveto
          2 vlineto
          14.7971191406 -19.7294921875 0.763214111328 -34.1239471436 24.439666748 -8.14656066895 rrcurveto
          110 hlineto
          94 0 94 -6 64 0 rrcurveto
          82 hlineto
          18 46 4 30 hvcurveto
          -22.1932220459 88.7728729248 0.838821411133 81.0330047607 -46.6455993652 62.1941223145 -118.055938721 165.278320312 -281.536987305 46.7216796875 -144.407073975 0 -188 0 -256 -38 -150 -192 rrcurveto
          0 2 0 -14 -28 -34 rlineto
          -88 -122 -38 -148 0 -154 0 -176 40 -138 80 -126 rrcurveto
          32 -42 rlineto
          10 -14 10 -12 14 -10 rrcurveto
          42 -36 rlineto
          180 -142 216 -8 166 0 115.825775146 0 455.881912231 37.6845550537 18.2923126221 82.3154449463 rrcurveto
          endchar
        </CharString>
        <CharString name="gbreve">
          125 12 384 126 314 208 372 hstem
          40 576 136 676 vstem
          589 1940 rmoveto
          -69 callsubr
          831 -1808 rmoveto
          -62 callsubr
          endchar
        </CharString>
        <CharString name="gcircumflex">
          125 12 384 126 314 208 372 114 392 hstem
          40 576 136 676 vstem
          235.375 1566.74023438 rmoveto
          -68 callsubr
          1002 -1690 rmoveto
          -62 callsubr
          endchar
        </CharString>
        <CharString name="gdotaccent">
          125 12 384 126 314 208 372 110 396 hstemhm
          40 576 -70 382 -176 676 hintmask 00010100
          550 1570 rmoveto
          -72 callsubr
          hintmask 11101010
          870 -1438 rmoveto
          -62 callsubr
          endchar
        </CharString>
        <CharString name="germandbls">
          181 1236 308 hstem
          68 538 vstem
          720 1544 rmoveto
          -222 0 -198 -54 -130 -126 -124 -120 22 -234 0 -158 rrcurveto
          -140 vlineto
          0 -246 4 -236 0 -230 rrcurveto
          -4 vlineto
          0 -8 6 -6 10 -2 8 2 10 0 10 0 rrcurveto
          32 hlineto
          96 0 100 -4 102 0 46 0 46 0 48 6 2 0 2 0 2 -2 10 0 6 66 0 64 0 42 -2 42 0 16 12 -64 22 -62 60 -54 rrcurveto
          2 vlineto
          96 -86 152 -12 122 0 212 0 298 100 0 304 0 180 -76 94 -124 78 -54 42 -112 36 0 42 0 22 20 24 34 26 rrcurveto
          46 44 rlineto
          66 62 46 80 -2 94 0 330.626678467 -406.313064575 49.3733215332 -297.686935425 0 rrcurveto
          -114 -556 rmoveto
          110 30 138 152 56 56 -20 -64 vhcurveto
          0 -64 -86 -44 -42 -34 -66 -54 -42 -82 0 -84 0 -262 408 -64 0 -144 0 -10 -6 -12 -6 -14 -6 0 -6 -4 -8 0 -48 2 52 96 -64 6 rrcurveto
          -374 hlineto
          440 -108 rmoveto
          endchar
        </CharString>
        <CharString name="grave">
          -745 1376 396 hstem
          -128 1756 rmoveto
          0 -22 32 -40 42 -42 rrcurveto
          42 -44 rlineto
          69.3212280273 -77.3454437256 68.2059020996 -74.4607543945 66.472869873 -80.1938018799 rrcurveto
          324 hlineto
          40 40 -2 34 hvcurveto
          0 14 -32 28 -14 20 rrcurveto
          22 vlineto
          -45.5825805664 71.0840911865 -44.3859558105 72.2807159424 -44.031463623 72.6351928711 -24 38 -18 24 -10 2 rrcurveto
          -40 hlineto
          -144 0 -140 6 -144 10 -16 -8 -8 -14 0 -10 rrcurveto
          endchar
        </CharString>
        <CharString name="greater">
          -109 1184 456 rmoveto
          0 74 3.57075500488 138.091049194 -24 10 rrcurveto
          -1053.36750793 404.438293457 rlineto
          -16 1.52587890625e-05 -4.20324707031 -62.5293426514 0 -64 0 -42 2 -38 0 -16 rrcurveto
          -28 vlineto
          0 -22 2 -20 10 -6 216.037307739 -72.0124359131 204.591491699 -95.3413543701 207.562484741 -85.1538391113 rrcurveto
          -370.19128418 -139.492370605 rlineto
          -146 -54 -134 -60 -2 -26 rrcurveto
          -124 vlineto
          -2 -40 0 -42 0 -42 rrcurveto
          44 -46 rlineto
          354.082550049 118.027511597 336.048751831 159.287155151 341.86869812 140.685333252 26.4345550537 0 3.56544494629 37.8613739014 0 42.1386260986 rrcurveto
          endchar
        </CharString>
        <CharString name="greaterequal">
          -23 -84 314 -282 282 1306 -20 hstemhm
          hintmask 01100000
          116 -52 rmoveto
          hintmask 10100000
          1092 -32 36 52 0 240 rlineto
          hintmask 01100000
          -2 18 -12 2 -18 2 rrcurveto
          -1096 hlineto
          -12 1254 rmoveto
          0 -284 816 -316 rlineto
          -266 -96 -284 -112 -250 -136 rrcurveto
          0 -279.597381592 1127.77151489 487.422866821 6.12353515625 272.68409729 -1093.89505005 515.490432739 rlineto
          endchar
        </CharString>
        <CharString name="guillemotleft">
          -43 -3 -21 hstem
          -20.4664764404 506.671966553 rmoveto
          106.670150757 -165.996505737 124.561325073 -175.243774414 109.234985352 -163.431686401 6 -24 8 -2 16 0 62 0 58 2 66 2 rrcurveto
          58 hlineto
          72 90 2 30 hvcurveto
          -226 508 rlineto
          53.7083587646 117.52255249 44.2255554199 133.57170105 68.0660858154 108.90574646 rrcurveto
          28 52 rlineto
          18 32 14 56 0 24 rrcurveto
          -423.102981567 hlineto
          254.432830811 -539.955474854 rmoveto
          106.616088867 -166.71723938 118.006988525 -192.041015625 104.047058105 -169.286270142 rrcurveto
          368 hlineto
          38 38 4 32 hvcurveto
          -106 234 rlineto
          -38 82 -48 78 -32 78 rrcurveto
          40 vlineto
          40 78 36 82 40 86 rrcurveto
          112 244 rlineto
          -6 44 -96 -12 -42 0 -70 0 -68 -2 -70 0 rrcurveto
          -22 hlineto
          -30 0 -30 -2 -10 -14 rrcurveto
          endchar
        </CharString>
        <CharString name="guillemotright">
          -45 -3 -21 hstem
          755.664382935 521.389144897 rmoveto
          -319.664382935 506.610855103 rlineto
          -14 36 -274 -14 -88 0 rrcurveto
          -36 -26.995513916 -9.25112915039 -18 hvcurveto
          214.995513916 -514.74887085 rlineto
          -55.3648681641 -125.30178833 -48.8000640869 -131.866607666 -59.835067749 -120.831604004 -22 -42 -26 -58 0 -26 0 -22 38 -6 34 0 64 0 60 2 64 6 rrcurveto
          40 hlineto
          46 0 72 4 24 12 rrcurveto
          128 hmoveto
          -22 32 0 26 vhcurveto
          82 hlineto
          8 0 8 -2 6 0 20 0 18 2 22 2 rrcurveto
          100 hlineto
          54 0 50 0 16 16 rrcurveto
          92.5664672852 174.68208313 234.305206299 330.783813477 rlineto
          0 40.0000152588 -94.871673584 112.534103394 -26 44 -55.6031341553 91.7302093506 -55.9993896484 91.3339233398 -56.3974761963 90.9358673096 -46 74 10 -12 -62 12 rrcurveto
          -40 hlineto
          -70 0 -70 -2 -72 0 rrcurveto
          -50 hlineto
          -40 -40.8881072998 -3.32211303711 -22 hvcurveto
          226.783676147 -495.401245117 rlineto
          -70.4088592529 -171.591125488 -88.38621521 -176.786010742 -67.1004943848 -174.899505615 rrcurveto
          endchar
        </CharString>
        <CharString name="guilsinglleft">
          -643 -5 -21 hstem
          -5.61140441895 512.334411621 rmoveto
          -1.52587890625e-05 -32 19.6114044189 -50.3344116211 36 -50 rrcurveto
          66.9727478027 -77.0930328369 135.027252197 -246.906967163 rlineto
          22 -42 26 -30 24 -10 rrcurveto
          168 hlineto
          54 2 56 2 58 0 22 0 16 -2 18 0 rrcurveto
          22 26.3100585938 22.6194000244 18 hvcurveto
          -250.170532227 473.384933472 227.860473633 525.995666504 rlineto
          -4 22 -42 4 -38 0 rrcurveto
          -330 hlineto
          -28 -10 -34 -54 -40 -62 rrcurveto
          endchar
        </CharString>
        <CharString name="guilsinglright">
          -647 -3 -21 hstem
          -16.6888580322 1017.96304321 rmoveto
          207.569412231 -477.801269531 -204.998809814 -539.305984497 rlineto
          -1.52587890625e-05 -20 48.118270874 -4.85577392578 46 0 86 0 36 2 58 6 rrcurveto
          153.407287598 -7.07618713379 334.477310181 539.200485229 -83.8845977783 131.875686646 rlineto
          -76.857925415 121.808746338 -75.3838043213 123.282852173 -73.7582702637 124.908401489 -20 34 -24 -12 -24 4 rrcurveto
          -310 hlineto
          -38 -38.6888580322 -4.03695678711 -22 hvcurveto
          endchar
        </CharString>
        <CharString name="h">
          107 44 1334 hstem
          80.6852111816 571.314788818 172 556 vstem
          1380 1334 rmoveto
          46 -16 8 -30 vhcurveto
          -510 -440 -174 430 -538 hlineto
          -10 -8 -15.4812774658 -7.95610046387 0 -10 rrcurveto
          -5.83351135254 -1260.03781128 rlineto
          -39.9999847412 23.3147888184 -8.00608825684 20 vhcurveto
          132 hlineto
          102 0 102 4 96 0 rrcurveto
          46 hlineto
          26 0 18 2 6 26 rrcurveto
          432 vlineto
          16 2 22 2 18 0 rrcurveto
          68 hlineto
          32 0 2 -30 hvcurveto
          -404 vlineto
          6 -10 20 -6 6 -6 rrcurveto
          -22 510 vlineto
          28 2 34 34 hvcurveto
          endchar
        </CharString>
        <CharString name="hcircumflex">
          107 44 1334 152 392 hstem
          80.6852111816 571.314788818 172 556 vstem
          237.375 1566.74023438 rmoveto
          -68 callsubr
          960 -488 rmoveto
          46 -16 8 -30 vhcurveto
          -510 -440 -174 430 -538 hlineto
          -10 -8 -15.4814453125 -7.9560546875 0 -10 rrcurveto
          -5.8330078125 -1260.03808594 rlineto
          -40 23.314453125 -8.005859375 20 vhcurveto
          132 hlineto
          102 0 102 4 96 0 rrcurveto
          46 hlineto
          26 0 18 2 6 26 rrcurveto
          432 vlineto
          16 2 22 2 18 0 rrcurveto
          68 hlineto
          32 0 2 -30 hvcurveto
          -404 vlineto
          6 -10 20 -6 6 -6 rrcurveto
          -22 510 vlineto
          28 2 34 34 hvcurveto
          endchar
        </CharString>
        <CharString name="hungarumlaut">
          -603 1358 409.158874512 hstem
          -246 1400 rmoveto
          6 -8 16 -26 6 -8 rrcurveto
          218 hlineto
          118 4 18 -12 76 84 rrcurveto
          257.678878784 293.005813599 rlineto
          1.52587890625e-05 34.9944458008 -231.524139404 0.879852294922 -48.1547393799 1.11987304688 rrcurveto
          -219.35345459 3.15887451172 rlineto
          369.386077881 -415.404541016 rmoveto
          352.163131714 46.7716674805 rlineto
          6 -26 3.80422973633 -6.52600097656 6 0 rrcurveto
          32 30 rlineto
          95.39894104 109.934387207 93.8581390381 111.475204468 94.7429199219 110.590408325 0 2 0 2 2 2 0 10 -6 14 -14 2 rrcurveto
          -478.440414429 0 -214.624328613 -377.824325562 rlineto
          3.70281982422 -11.1084747314 17.7844390869 -10.8977050781 5.61009216309 -8.41514587402 rrcurveto
          endchar
        </CharString>
        <CharString name="hyphen">
          -519 340 404 -384 384 hstemhm
          hintmask 01000000
          36 360 rmoveto
          36 hlineto
          hintmask 10000000
          -20 vlineto
          hintmask 01000000
          -107 callsubr
          hintmask 10000000
          -106 callsubr
          hintmask 01000000
          -105 callsubr
          endchar
        </CharString>
        <CharString name="i">
          -633 59 -21 1338 -20 hstem
          72 572 vstem
          72 38 rmoveto
          -85 callsubr
          endchar
        </CharString>
        <CharString name="iacute">
          -701 -24 21 1245 410.959686279 hstem
          50 546 vstem
          84 1286 rmoveto
          -55 callsubr
          -253.556640625 -1568.95996094 rmoveto
          -64 callsubr
          endchar
        </CharString>
        <CharString name="icircumflex">
          -663 -24 21 1249 392 hstem
          72 546 vstem
          -126.625 1282.74023438 rmoveto
          -68 callsubr
          12 -1454 rmoveto
          -64 callsubr
          endchar
        </CharString>
        <CharString name="idieresis">
          -677 -24 21 1263 388 hstemhm
          -108 388 -214 546 -172 388 hintmask 01101000
          -108 1296 rmoveto
          -54 callsubr
          548 -66 rmoveto
          -73 callsubr
          hintmask 10010000
          -378 -1208 rmoveto
          -64 callsubr
          endchar
        </CharString>
        <CharString name="igrave">
          -703 -24 21 1261 396 hstem
          56 546 vstem
          -100 1638 rmoveto
          -58 callsubr
          152 -1554 rmoveto
          -64 callsubr
          endchar
        </CharString>
        <CharString name="infinity">
          433 168 208 -192 192 468 198 -182 188 hstemhm
          100 184 1296 140 hintmask 01001100
          100 606 rmoveto
          -230 172 -192 244 vhcurveto
          48 hlineto
          122 0 132 130 86 128 rrcurveto
          hintmask 10011100
          86 -154 124 -120 178 0 rrcurveto
          244 184 178 274 hvcurveto
          4 vlineto
          -16 194 -122 230 -262 0 -148 0 -160 -122 -96 -170 rrcurveto
          hintmask 01101100
          -100 168 -116 118 -180 0 rrcurveto
          -266 -154 -214 -222 hvcurveto
          412 -230 rmoveto
          -134 -94 104 124 122 88 118 142 hvcurveto
          120 -6 88 -78 82 -128 -84 -138 -96 -118 -84 0 rrcurveto
          440 252 rmoveto
          hintmask 10011100
          98 142 140 90 118 0 154 0 74 -120 16 -114 0 -152 -112 -98 -148 0 -140 0 -114 100 -86 152 rrcurveto
          endchar
        </CharString>
        <CharString name="integral">
          -391 -416 336 1629 -21 24 348 hstemhm
          274 406 -352 396 hintmask 11110000
          988 1840 rmoveto
          -42 54 -80 6 -68 0 -352 0 -172 -226 0 -382 0 -142 26 -132 10 -138 rrcurveto
          -206 vlineto
          6 -70 4 -74 2 -74 rrcurveto
          -20 vlineto
          hintmask 11101000
          0 -112 6 -20 0 -76 0 -136 -10 -172 -138 0 -38 0 -53.3600006104 18.4799957275 -26 0 rrcurveto
          -42.6399993896 -298.479995728 rlineto
          -40 162 -16 58 355.413879395 128.586120605 309.325286865 322.674713135 vhcurveto
          hintmask 11110000
          0 310 -44 328 0 358 0 176 2 164 134 0 22 0 20 -6 22 -6 0 -6 -2 -2 0 -6 2 2 6 2 6 2 7.80685424805 -1.30114746094 8.33790588379 -2.69885253906 7.85523986816 0 rrcurveto
          2 8 0 4 hvcurveto
          47.7022705078 0 7.92967224121 254.316848755 6.36805725098 53.6831512451 rrcurveto
          endchar
        </CharString>
        <CharString name="j">
          -149 530 6 848 -20 hstemhm
          566 570 -570 2 0 4 hintmask 11100000
          1136 480 rmoveto
          -84 callsubr
          hintmask 11001000
          -83 callsubr
          hintmask 11100000
          0 -186 -4 -178 0 -182 rrcurveto
          -66 vlineto
          -8 -42 16 -78 -62 0 -80 0 78 116 -104 0 -110 0 -110 -4 -110 0 rrcurveto
          -72 hlineto
          -26 -2 -18 -26 hvcurveto
          -36 vlineto
          0 -112 36 -86 74 -80 rrcurveto
          2 vlineto
          86 -92 124 -58 204 0 16 0 16 2 16 0 rrcurveto
          32 hlineto
          239.880477905 316.119522095 155.404846191 304.595153809 hvcurveto
          hintmask 11001000
          -564 50 rmoveto
          6 vlineto
          6 -10 0 -6 hvcurveto
          endchar
        </CharString>
        <CharString name="jcircumflex">
          -149 530 6 828 20 114 392 hstemhm
          566 2 -2 570 -568 4 hintmask 00100000
          59.375 1534.74023438 rmoveto
          -68 callsubr
          hintmask 11001000
          894 -1310 rmoveto
          -84 callsubr
          hintmask 11000100
          -83 callsubr
          hintmask 11001000
          0 -186 -4 -178 0 -182 rrcurveto
          -66 vlineto
          -8 -42 16 -78 -62 0 -80 0 78 116 -104 0 -110 0 -110 -4 -110 0 rrcurveto
          -72 hlineto
          -26 -2 -18 -26 hvcurveto
          -36 vlineto
          0 -112 36 -86 74 -80 rrcurveto
          2 vlineto
          86 -92 124 -58 204 0 16 0 16 2 16 0 rrcurveto
          32 hlineto
          239.880859375 316.119140625 155.405273438 304.594726562 hvcurveto
          hintmask 11000100
          -564 50 rmoveto
          6 vlineto
          6 -10 0 -6 hvcurveto
          endchar
        </CharString>
        <CharString name="k">
          93 1392 -20 hstem
          88 556 vstem
          112 36 rmoveto
          422 hlineto
          50 0 48 6 12 34 rrcurveto
          0 444 112 -214 rlineto
          42 -80 60 -76 44 -74 rrcurveto
          -28 136 vlineto
          50 0 54 2 50 0 96 0 90 0 94 -6 16 12 -2.10894775391 16.2568054199 0 18 rrcurveto
          -391.052978516 674.229278564 rlineto
          120.565597534 175.368148804 96.6819458008 201.798248291 113.914382935 180.347518921 12 16 6 20 0 2 0 24 -118 0 -44 0 -10 -2 -4 0 0 0 rrcurveto
          -58 hlineto
          -14 0 -16 -2 -16 0 rrcurveto
          -76 hlineto
          -38 0 -42 4 -40 0 rrcurveto
          -94.6245880127 -2.51615905762 -49.3754119873 -105.483840942 rlineto
          -60.7237854004 -123.2762146 -58.2389373779 -123.761062622 -61.0372772217 -122.962722778 rrcurveto
          444 vlineto
          -10 50 -70 -8 -34 0 rrcurveto
          -442 -1314 hlineto
          7.74758911133 -15.4951782227 9.26849365234 -14.8649597168 6.98391723633 -11.6398620605 rrcurveto
          endchar
        </CharString>
        <CharString name="l">
          -251 40 408 940 -20 20 -20 hstemhm
          82 566 hintmask 11010000
          106 40 rmoveto
          918 hlineto
          48 0 42 8 6 32 rrcurveto
          334 vlineto
          34 -24 0 -24 vhcurveto
          -424 730 hlineto
          0 14 22 12 2 12 rrcurveto
          44 vlineto
          0 22 2 20 0 22 rrcurveto
          14 vlineto
          -14 32 -12 8 -16 2 -16 0 -20 4 -6 0 -4 0 -4 0 -2 -2 -18 2 -18 0 -16 0 rrcurveto
          -96 hlineto
          -106 0 -100 2 -104 2 -24 -22 -10 -70 0 -80 0 -70 8 -72 0 -46 0 -180 -14 -176 0 -172 rrcurveto
          -432 vlineto
          14.748260498 -23.5972290039 -0.0533142089844 8.00395202637 9.30505371094 -12.4067230225 rrcurveto
          endchar
        </CharString>
        <CharString name="lacute">
          -251 40 408 920 20 138 410.959686279 hstem
          82 566 vstem
          242 1570 rmoveto
          -55 callsubr
          -351.556640625 -1896.95996094 rmoveto
          -26 callsubr
          endchar
        </CharString>
        <CharString name="lcaron">
          -251 40 408 920 20 hstem
          82 566 627.137481689 677.325759888 vstem
          1275.13769531 767.970703125 rmoveto
          -24 callsubr
          -1249 -1098 rmoveto
          -26 callsubr
          endchar
        </CharString>
        <CharString name="less">
          -107 -36 328 hstem
          78 454 rmoveto
          0 -96 80 -14 62 -20 305.926483154 -117.406845093 304.004257202 -119.329086304 302.069259644 -121.264068604 6 -2 4 0 4 0 40 0 -2 88 0 96 0 118 -10 8 -50 18 -206.104797363 75.2285308838 -203.970153809 77.3631744385 -201.925048828 79.4082946777 rrcurveto
          648 256 rlineto
          26 18 -6 130 0 72 rrcurveto
          50 -5.11460876465 40.9334869385 -30 vhcurveto
          -1028.88539124 -390.933486938 rlineto
          -32 -32 -6 -36 0 -42 0 -18 2 -22 0 -18 0 -26 -2 -26 0 -26 rrcurveto
          endchar
        </CharString>
        <CharString name="lessequal">
          -25 -72 308 -308 292 hstemhm
          hintmask 00000000
          112 736 rmoveto
          1137.8598938 -470.838577271 13.1790771484 290.391479492 -819.038986206 328.447097778 798.958908081 312.240234375 -8.22334289551 306.668380737 -1122.20899963 -482.134231567 rlineto
          hintmask 10000000
          3.47344970703 -1092.77438354 rmoveto
          1116 0 28 40 0 240 rlineto
          -2 18 -12 10 -20 2 rrcurveto
          hintmask 01000000
          -188 -12 -190 -6 -192 0 rrcurveto
          hintmask 10000000
          -176 0 -188 6 -176 10 rrcurveto
          endchar
        </CharString>
        <CharString name="logicalnot">
          -95 592 334 hstem
          844 350 vstem
          96 634 rmoveto
          0 -22 6 -14 14 -6 rrcurveto
          728 -332 hlineto
          36 -44 rlineto
          74 0 70 4 72 0 rrcurveto
          60 hlineto
          32 0 0 10 6 26 rrcurveto
          652 vlineto
          -8 10 -10 6 -18 2 -342 0 -342 -12 -352 0 -2 2 -4 0 -8 0 -6 -2 -4 -8 0 -14 0 -32 2 -28 0 -32 0 -58 -4 -52 0 -56 rrcurveto
          endchar
        </CharString>
        <CharString name="lozenge">
          215 156 752 rmoveto
          478 -826 312 0 476 806 -470 840 rlineto
          -102 0 -100 -2 -118 -6 -144 -276 -160 -276 -172 -260 rrcurveto
          337.147109985 5.4680480957 rmoveto
          299.583709717 554.298858643 rlineto
          10 -2 11.2691955566 -3.76690673828 2 -22 30 -86 58 -100 56 -96 rrcurveto
          155.829849243 -267.437728882 rlineto
          -77.3548583984 -131.311828613 -80.6289215088 -140.429870605 -73.8460845947 -134.820587158 -22 -42 -40.9063873291 -99.4294281006 -28 -4 rrcurveto
          -33.0936126709 1085.4294281 rmoveto
          4 vlineto
          endchar
        </CharString>
        <CharString name="lslash">
          -249 40 408 940 -20 20 -20 hstemhm
          hintmask 11000000
          -131.954727173 718.621276855 rmoveto
          -1.52587890625e-05 -16 13.9547271729 -38.6212768555 10 -22 12.1875 -31.1458435059 13.0596466064 -30.2736663818 12.7528533936 -30.5804901123 14 -44 14 10 30 -4 rrcurveto
          96 46 0 -490 24 -28 918 0 rlineto
          48 0 42 8 6 32 rrcurveto
          334 vlineto
          34 -26 0 -24 vhcurveto
          -426 hlineto
          2 38 2 48 0 42 rrcurveto
          58 vlineto
          0 42 0 44 2 42 rrcurveto
          0 50 293.43737793 131.389862061 -7.43737792969 28.6101379395 -32 80 rlineto
          -28 54 -14 40 -24 0 -18 0 -48 -32 -30 -10 rrcurveto
          -76 -36 0 68 rlineto
          4 26 -4 30 4 24 rrcurveto
          44 vlineto
          2 22 2 20 0 22 rrcurveto
          14 vlineto
          -16 32 -12 8 -16 2 -16 0 -18 4 -6 0 -6 0 -4 0 -2 -2 -18 2 -18 0 -16 0 rrcurveto
          -96 hlineto
          -104 0 -100 2 -104 2 -26 -22 -2 -70 0 -80 rrcurveto
          -400 vlineto
          endchar
        </CharString>
        <CharString name="m">
          595 61 -21 1339.40699768 -21 31.5930023193 -20 hstemhm
          108 472 782 506 hintmask 11011000
          820 1372 rmoveto
          -102 hlineto
          -94 0 -152 18 -180 0 -22 -2 -28 0 -22 0 rrcurveto
          -92 hlineto
          -22 -16 -2 -6 0 -16 rrcurveto
          -354 vlineto
          0 -118 2 -144 0 -160 0 -162 2 -168 6 -144 0 -6 -6 -32 0 -10 rrcurveto
          472 176 hlineto
          0 214 4 194 10 208 rrcurveto
          36 -172 rlineto
          41.4541931152 -198.545806885 44.444152832 -195.555847168 44.1016540527 -195.898345947 8 -34 18 -6 40 0 14 0 32 2 18 0 70 0 56 -4 80 0 42 0 44 4 14 24 rrcurveto
          60 256 rlineto
          28 118 52 124 28 118 rrcurveto
          76 vlineto
          -2 -38 -2 -36 0 -36 0 -16 2 -16 0 -14 rrcurveto
          -88 vlineto
          0 -82 -4 -72 0 -96 0 -102 8 -102 42 -26 128 0 130 4 126 0 32 0 38 -2 6 46 rrcurveto
          1178 vlineto
          60 -4.00663757324 57.5861206055 -24 vhcurveto
          -703.224487305 0.727630615234 -155.775283813 -611.235351562 -118.630340576 609.328598022 rlineto
          -12.0316162109 -2.67370605469 -18.3535614014 0.259384155273 -11.9780731201 -3.99269104004 rrcurveto
          22 4 rmoveto
          522 -610 rmoveto
          2 vlineto
          endchar
        </CharString>
        <CharString name="middot">
          -587 234 554 hstem
          112 552 vstem
          112 504 rmoveto
          10 -136 108 -134 166 0 rrcurveto
          148 120 126 160 128 -114 140 -122 hvcurveto
          -44 hlineto
          -240 0 10 -196 -42 -88 rrcurveto
          endchar
        </CharString>
        <CharString name="minus">
          -105 320 352 -332 306 hstemhm
          hintmask 10000000
          82 456 rmoveto
          0 -10 -2 -10 0 -10 0 -24 2 -24 2 -22 rrcurveto
          34 -36 rlineto
          hintmask 01000000
          254 0 242 16 254 4 rrcurveto
          274 hlineto
          26 4 26 26 hvcurveto
          164 vlineto
          52 -8 42 -16 vhcurveto
          -120 hlineto
          -40 -2 -42 2 -42 -4 rrcurveto
          -36 hlineto
          hintmask 10000000
          -248 0 -234 10 -244 16 -6 0 -24 0 -6 2 -18 -26 -4 -34 0 -34 rrcurveto
          -88 vlineto
          -2 -14 0 -12 0 -10 rrcurveto
          endchar
        </CharString>
        <CharString name="multiply">
          -95 145.115310669 270.824295044 rmoveto
          -1.52587890625e-05 -39.4671783447 125.07270813 -98.5931549072 29.8119812012 -28.7639770508 26 -30 47.0015106201 -24.9047851562 24 0 rrcurveto
          254.871536255 246.906799316 264.532424927 -251.626266479 223.523834229 223.55355835 -277.92930603 270.07069397 84 86 rlineto
          54.1622467041 52.50440979 52.3402099609 54.326461792 55.497543335 51.169128418 10 8 11.9677124023 11.7089538574 0 6 rrcurveto
          -214.319030762 229.271514893 -271.648696899 -272.98046875 -259.905273438 264.03074646 rlineto
          -65.6669006348 -1.52587890625e-05 -104.276107788 -147.826202393 -36.1517181396 -36.2045440674 -14 -16 -17.2551727295 -21.1035766602 0 -10 rrcurveto
          257.255172729 -264.89642334 rlineto
          endchar
        </CharString>
        <CharString name="n">
          171 61 -21 1336 -20 hstemhm
          68 500 396 472 -452 452 hintmask 11101000
          1416 1376 rmoveto
          -82 callsubr
          hintmask 11110000
          0 -166 -10 -158 -10 -176 rrcurveto
          -148 vlineto
          -76.8466339111 219.153366089 -74.301361084 221.698638916 -80.8520050049 215.147994995 0 16 -8 2 -16 6 rrcurveto
          -168 hlineto
          -144 0 -150 -8 -138 0 rrcurveto
          4 vlineto
          -16 0 -4 -22 -4 -14 rrcurveto
          -216 vlineto
          -10 -340 4 -372 -10 -332 rrcurveto
          44 -44 412 0 rlineto
          42 10 2 14 0 36 rrcurveto
          204 vlineto
          6 128 0 130 6 134 rrcurveto
          0 6 0 -6 rlineto
          58.1186065674 -191.791397095 73.4172515869 -185.530654907 66.4641418457 -186.677947998 16 -46 20 -36 10 -2 rrcurveto
          560 hlineto
          22 0 30 2 4 32 rrcurveto
          364 vlineto
          0 120 -4 116 0 136 rrcurveto
          106 vlineto
          0 34 0 38 2 40 rrcurveto
          0 57.7266845703 19.4230499268 266.7396698 -41.4230499268 15.5336456299 rrcurveto
          endchar
        </CharString>
        <CharString name="nacute">
          171 40 21 1295 20 126 410.959686279 hstemhm
          68 500 396 472 -452 452 hintmask 11010100
          1416 1376 rmoveto
          -82 callsubr
          hintmask 11011000
          -45 callsubr
          hintmask 00100000
          -926 170 rmoveto
          -55 callsubr
          endchar
        </CharString>
        <CharString name="ncaron">
          171 40 21 1295 20 150 398 hstemhm
          68 500 396 472 -452 452 hintmask 00100000
          263.046875 1900.08398438 rmoveto
          -38 callsubr
          hintmask 11010100
          1152.953125 -524.083984375 rmoveto
          -82 callsubr
          hintmask 11011000
          -45 callsubr
          endchar
        </CharString>
        <CharString name="nine">
          79 -68 394 198 272 416 328 hstem
          42 478 332 556 vstem
          628 388 rmoveto
          22 -12 24 -24 vhcurveto
          -452 0 -36 -44 rlineto
          0 -124 40 -136 104 -78 106 -92 126 -28 132 0 194 0 300 38 148 222 124 172 30 210 0 208 rrcurveto
          443.770462036 -255.881530762 314.229537964 -440.118469238 -314 -356 -156 -400 -328 286 -132 264 vhcurveto
          84 0 96 22 70 42 -6 -100 -8 -162 -128 0 -57.8490753174 0 -6.92060852051 25.8484344482 -7.23031616211 36.1515655518 rrcurveto
          -108 600 rmoveto
          106 40 118 132 134 26 -108 -108 -94 -28 -106 -132 vhcurveto
          -116 0 -46 74 -10 118 rrcurveto
          endchar
        </CharString>
        <CharString name="notequal">
          -27 228 278 210 288 hstem
          104 1004 rmoveto
          -288 484 vlineto
          -92 -218 rlineto
          -104 2 -90 6 -108 0 -44 0 -40 -6 0 -26 0 -78 2 -78 0 -74 0 -16 16 -2 16 0 10 0 8 2 6 0 42 0 40 -2 42 0 rrcurveto
          16 0 14 0 14 2 rrcurveto
          48 0 -70.5592041016 -158.519195557 221.490158081 -100.060546875 113.069046021 256.579742432 rlineto
          34 2 36 0 34 0 144 0 138 -8 142 0 32 0 36 4 2 22 0 78 2 74 0 80 -2 14 -10 12 -14 0 rrcurveto
          -444.442779541 -2.41162109375 90.442779541 208.411621094 352 0 rlineto
          22 0 8 4 6 22 rrcurveto
          232 vlineto
          -6 24 -8 10 -22 2 -8 0 -10 0 -10 -2 rrcurveto
          -30 hlineto
          -28 0 -28 4 -26 -2 rrcurveto
          -82 0 54 120 -24 44 -190 82 rlineto
          -16 0 -12 -2 -10 -16 rrcurveto
          -100 -228 rlineto
          -126 0 -108 -6 -126 0 -74 0 -88 0 -74 6 rrcurveto
          endchar
        </CharString>
        <CharString name="ntilde">
          171 40 21 1295 20 216 326 hstemhm
          68 500 396 472 -452 452 hintmask 00100000
          929 1522 rmoveto
          -52 callsubr
          -24 340 rmoveto
          2 vlineto
          hintmask 11010100
          511 -488 rmoveto
          -82 callsubr
          hintmask 11011000
          -45 callsubr
          endchar
        </CharString>
        <CharString name="numbersign">
          171 366 254 -238 282 154 286 -232 230 408 -20 hstemhm
          224 1030 hintmask 10001100
          224 440 rmoveto
          -76 14 0 106 vhcurveto
          24 0 -48 -348 30 -46 rlineto
          72 -2 76 -2 74 0 76 0 -6 62 10 56 rrcurveto
          32 282 40 0 rlineto
          14 0 12 0 14 2 -20 -128 -10 -118 -16 -114 6 -32 62 -6 62 0 38 0 30 2 16 0 144 0 -32 162 8 66 rrcurveto
          hintmask 01101100
          22 182 rlineto
          56 0 50 -4 52 0 14 0 6 8 2 14 rrcurveto
          264 -148 vlineto
          8 54 4 50 8 54 6 0 30 -4 34 0 rrcurveto
          52 60 8 34 hvcurveto
          172 vlineto
          0 34 -2 36 -22 2 rrcurveto
          -122 0 48 374 rlineto
          24 -12 0 -22 vhcurveto
          -240 hlineto
          -24 -24 -32 -116 -10 -110 rrcurveto
          hintmask 10011100
          -150 -98 vlineto
          22 126 10 126 22 126 -8 26 -28 4 -42 0 rrcurveto
          -68 hlineto
          -122 0 -30.2543792725 -1.34422302246 -6 -62 rrcurveto
          -46.2637176514 -335.411895752 rlineto
          -7.99998474121 1.52587890625e-05 -31.481918335 2.75611877441 -30 0 -54 0 -60 -4 0 -32 0 -78 -4 -78 0 -74 rrcurveto
          -36 68 0 56 vhcurveto
          -144 -116 vlineto
          -38 -32 -4 -32 hvcurveto
          0 -70 -2 -72 0 -50 rrcurveto
          444 208 rmoveto
          10.5672607422 66.7660675049 25.3882904053 65.9450378418 12.0444488525 65.2888946533 rrcurveto
          26 44 vlineto
          14 0 14 -2 16 -2 rrcurveto
          48 hlineto
          16 0 10 -10 2 -18 rrcurveto
          -36 -220 -156 0 rlineto
          -16 -4 12 16 hvcurveto
          endchar
        </CharString>
        <CharString name="o">
          77 14 350 692 364 hstem
          864 538 vstem
          20 724 rmoveto
          -60 vlineto
          26 -444 298 -206 338 0 170 0 250 40 128 160 rrcurveto
          40 50 rlineto
          92 126 40 146 0 196 0 198 -68 142 -96 120 rrcurveto
          28 vlineto
          -130 168 -256 32 -128 0 -120.226135254 -18.9830780029 -108.227706909 -18.3081665039 -93.5461578369 -38.7087554932 rrcurveto
          -38 hlineto
          -58 -24 -48 -26 -40 -46 rrcurveto
          -24 -24 rlineto
          -146 -146 -12 -176 -18 -156 rrcurveto
          552 -30 rmoveto
          -81 callsubr
          endchar
        </CharString>
        <CharString name="oacute">
          77 14 350 692 364 98 410.959686279 hstem
          864 538 vstem
          364 1562 rmoveto
          -55 callsubr
          -559.556640625 -1204.95996094 rmoveto
          -44 callsubr
          552 -30 rmoveto
          -81 callsubr
          endchar
        </CharString>
        <CharString name="ocircumflex">
          77 14 350 692 364 92 392 hstem
          864 538 vstem
          225.375 1548.74023438 rmoveto
          -68 callsubr
          -388 -1080 rmoveto
          -44 callsubr
          552 -30 rmoveto
          -81 callsubr
          endchar
        </CharString>
        <CharString name="odieresis">
          77 14 350 692 364 94 388 hstemhm
          256 388 160 388 -328 538 hintmask 00111000
          256 1550 rmoveto
          -54 callsubr
          548 -66 rmoveto
          -73 callsubr
          hintmask 11000100
          -784 -822 rmoveto
          -44 callsubr
          552 -30 rmoveto
          -81 callsubr
          endchar
        </CharString>
        <CharString name="oe">
          565 -52 308 -298 272 164 238 180 276 -252 266 hstemhm
          32 472 296 404 292 426 hintmask 01100111
          32 476 rmoveto
          -304 220 -214 364 vhcurveto
          116 0 150 22 94 84 rrcurveto
          hintmask 10101111
          98 -98 172 -18 122 0 180 0 206 60 96 176 rrcurveto
          22 48 rlineto
          8 22 4 20 0 18 0 26 -30 4 -26 0 -108 0 -106 -6 -110 0 -24 0 -24 2 -24 0 -10 -2 -28 -4 -6 -6 rrcurveto
          -22 vlineto
          -16 -16 -18 -12 -32 0 rrcurveto
          -88 -18 74 64 hvcurveto
          674 0 30 34 rlineto
          0 26 2 28 0 26 0 250 -82 344 -472 0 -138 0 -134 -34 -102 -74 -100 60 -114 36 -112 0 rrcurveto
          hintmask 01110111
          -12 0 -12 0 -12 -2 rrcurveto
          -38 hlineto
          -337.037719727 -224.962280273 -284.320114136 -327.679885864 hvcurveto
          472 40 rmoveto
          90 18 206 136 120 22 -138 -106 vhcurveto
          -60 vlineto
          -104 -10 -174 -148 -126 -12 186 100 vhcurveto
          700 140 rmoveto
          hintmask 00101111
          6 98 52 82 82 0 rrcurveto
          96 56 -86 -54 hvcurveto
          -32 vlineto
          -32 -26 -4 -62 vhcurveto
          -48 0 -62 4 -42 0 rrcurveto
          -24 hlineto
          -18 -10 4 20 hvcurveto
          endchar
        </CharString>
        <CharString name="ogonek">
          -745 -488 196 hstem
          112 306 vstem
          112 -288 rmoveto
          -37 callsubr
          endchar
        </CharString>
        <CharString name="ograve">
          77 14 350 692 364 108 396 hstem
          864 538 vstem
          364 1908 rmoveto
          -58 callsubr
          -344 -1184 rmoveto
          -44 callsubr
          552 -30 rmoveto
          -81 callsubr
          endchar
        </CharString>
        <CharString name="ohungarumlaut">
          77 14 350 692 364 108 409.158874512 hstem
          864 538 vstem
          74 1570 rmoveto
          -22 callsubr
          369.385742188 -415.405273438 rmoveto
          -21 callsubr
          -640.032226562 -797.75390625 rmoveto
          -44 callsubr
          552 -30 rmoveto
          -81 callsubr
          endchar
        </CharString>
        <CharString name="one">
          201 500 620 vstem
          196 960 rmoveto
          -144 vlineto
          2 -22 10 -6 22 0 104 32 82 46 88 58 rrcurveto
          -436 vlineto
          -2 -144 -2 -142 0 -154 0 -22 2 -12 8 -8 rrcurveto
          26 -34 rlineto
          62 -2 62 -2 62 0 50 0 50 2 54 0 26 0 36 -2 38 0 68 0 72 8 4 28 0 300 -12 294 0 298 rrcurveto
          534 vlineto
          0 50 0 22 -22 2 -26 -4 -26 0 -26 0 -126 0 -114 2 -120 2 -64 -102 -200 -88 -48 -20 -145.686141968 -83.2492218018 5.68614196777 50.2911682129 0 -301.041946411 rrcurveto
          endchar
        </CharString>
        <CharString name="onehalf">
          1223 -22 304 518 274 462 20 hstem
          304 434 540 322 360 416 vstem
          1466 -30 rmoveto
          206 10 198 4 208 0 64 0 76 -6 86 0 rrcurveto
          52 hlineto
          26 2 16 16 hvcurveto
          14 vlineto
          0 48 4 46 0 40 0 74 -14 50 -70 0 -102 0 -98 -4 -96 0 155.783203125 155.783203125 212.216796875 61.861328125 0 252.35546875 0 232 -226 94 -238 0 -248 0 -210 -102 -14 -286 rrcurveto
          394 60 hlineto
          6 26 14 28 42 0 38 0 26 -24 0 -38 0 -48 -32 -48 -40 -40 rrcurveto
          -28 -48 -426 -284 rlineto
          0 -62 6 -68 0 -66 0 -53.984375 9.0205078125 -22.84765625 16.9794921875 -27.16796875 rrcurveto
          -754 46 rmoveto
          -61 callsubr
          -344 586 rmoveto
          -60 callsubr
          endchar
        </CharString>
        <CharString name="onequarter">
          1215 146 252 1138 20 hstem
          304 434 540 322 392 356 vstem
          1464 418 rmoveto
          -36 callsubr
          290 16 rmoveto
          -35 callsubr
          -1042 -418 rmoveto
          -61 callsubr
          -344 586 rmoveto
          -60 callsubr
          endchar
        </CharString>
        <CharString name="ordfeminine">
          -533 888 116 184 56 156 94 hstem
          50 262 196 282 vstem
          50 1056 rmoveto
          -118 96 -50 128 vhcurveto
          104 0 72 30 64 46 rrcurveto
          -4 vlineto
          0 -6 6 -4 0 -6 rrcurveto
          -38 vlineto
          74 0 70 -4 72 0 rrcurveto
          28 hlineto
          8 2 8 0 8 0 0 128 2 126 0 138 0 214 -252 -16 -110 0 -112 0 -220 -10 -20 -140 rrcurveto
          244 hlineto
          10 38 44 18 42 0 rrcurveto
          74 18 -46 -74 hvcurveto
          -40 vlineto
          -42 2 -44 2 -46 0 rrcurveto
          -192 -134 -54 -134 hvcurveto
          262 26 rmoveto
          0 104 120 -4 76 6 rrcurveto
          -104 vlineto
          -10 -64 -32 -16 -58 0 -52 0 -44 22 0 56 rrcurveto
          endchar
        </CharString>
        <CharString name="ordmasculine">
          -439 836 704 hstem
          -28 980 vstem
          -28 1186 rmoveto
          26 -290 218 -60 204 0 268 0 254 72 10 288 0 284 -274 60 -260 0 -202 0 -218 -78 -26 -262 rrcurveto
          endchar
        </CharString>
        <CharString name="oslash">
          77 14 350 692 360 hstem
          20 506 370 506 vstem
          210 -144 rmoveto
          46 hlineto
          2 -2 4 -6 6 0 rrcurveto
          22 hlineto
          6 0 2 -2 6 0 38 0 36 66 34 68 rrcurveto
          36 72 rlineto
          78 -20 76 -18 80 0 170 0 250 40 128 160 rrcurveto
          40 50 rlineto
          92 126 40 146 0 196 0 198 -68 142 -96 120 rrcurveto
          28 vlineto
          -30 42 -46 34 -46 28 8 18 10 20 14 24 rrcurveto
          40 72 rlineto
          24 46 18 44 2 22 0 18 -20 0 -10 6 rrcurveto
          -48 22 rlineto
          -8 2 -17.7889251709 7.3546295166 -6 0 rrcurveto
          -134.211074829 -245.354629517 rlineto
          -100 32 -82 8 -82 0 -18 -2 -20 -2 -22 0 -94 0 -96 -42 -72 -30 rrcurveto
          -38 hlineto
          -62 -26 -36 -22 -48 -48 rrcurveto
          -24 -24 rlineto
          -146 -146 -12 -176 -18 -156 rrcurveto
          2 -22 0 -60 rlineto
          13.4852294922 -238.238983154 91.0606994629 -158.882614136 183.454071045 -152.87840271 -41.6546173096 -80.5686340332 -41.6560211182 -67.2611846924 -14.6893615723 -110.170181274 rrcurveto
          316 860 rmoveto
          48 vlineto
          132 32 160 154 vhcurveto
          38 0 28 -10 22 -18 rrcurveto
          -262 -484 rlineto
          -8 58 -4 56 0 58 rrcurveto
          98 -334 rmoveto
          87.0273895264 166.972610474 86.6583099365 167.341690063 86.3143005371 167.685699463 10 -46 2 -46 0 -40 rrcurveto
          -36 vlineto
          -156 -10 -196 -190 vhcurveto
          -26 0 -28 8 -18 10 rrcurveto
          endchar
        </CharString>
        <CharString name="otilde">
          77 14 350 692 364 128 326 hstem
          864 538 vstem
          898 1478 rmoveto
          -52 callsubr
          -24 340 rmoveto
          2 vlineto
          -854 -1096 rmoveto
          -44 callsubr
          552 -30 rmoveto
          -81 callsubr
          endchar
        </CharString>
        <CharString name="overscore">
          -699 1156 308 -308 282 hstemhm
          hintmask 10000000
          -124 1184 rmoveto
          10 -10 10 -8 10 -10 rrcurveto
          hintmask 01000000
          838 hlineto
          32 20 10 38 hvcurveto
          0 38 -2 32 0 38 rrcurveto
          36 vlineto
          0 16 2 14 0 16 0 24 -4 22 -16 2 -50 0 -52 -4 -50 0 rrcurveto
          -64 hlineto
          hintmask 10000000
          -186 0 -182 14 -186 12 rrcurveto
          -106 hlineto
          -22 -26 -2 -46 0 -48 rrcurveto
          endchar
        </CharString>
        <CharString name="p">
          -11 60.7422027588 -21 432.257797241 300 304 296 hstemhm
          104.00831604 557.99168396 -34 2 222 500 hintmask 11110100
          104.00831604 39.7422027588 rmoveto
          479.99168396 0.257797241211 rlineto
          54 0 18 8 6 26 -8 134 0 128 0 134 4 2 4 0 2 0 rrcurveto
          80 hlineto
          30 0 30 4 20 4 rrcurveto
          32 hlineto
          104 6 96 18 96 50 128 104 72 116 0 162 rrcurveto
          308 -246 128 -198 vhcurveto
          -716 hlineto
          -50 -10 -44 22 0 -44 0 -218 -15.4698486328 -208.434509277 0 -208 rrcurveto
          521.469848633 98.4345092773 rmoveto
          -80 callsubr
          hintmask 11101100
          -79 callsubr
          endchar
        </CharString>
        <CharString name="paragraph">
          -55 24 780 -328 328 80 360 -344 344 hintmask 01010000
          804 156 rmoveto
          1080 96 vlineto
          hintmask 00100000
          0 -384 -16 -408 0 -380 rrcurveto
          -64 vlineto
          12 -12 18 -34 18 0 22 2 24 -4 30 0 rrcurveto
          88 hlineto
          86 0 58 0 4 40 rrcurveto
          hintmask 10010000
          1448 vlineto
          50 -24 2 -24 vhcurveto
          -604 hlineto
          -188 -380 8 -368 hvcurveto
          0 -316 262 -40 194 -8 rrcurveto
          hintmask 01010000
          0 -198 -4 -182 0 -200 rrcurveto
          -192 vlineto
          -26 44 -2 32 vhcurveto
          72 0 84 4 72 0 rrcurveto
          33.1903839111 -9.19038391113 145.293319702 38.7066802979 hvcurveto
          endchar
        </CharString>
        <CharString name="parenleft">
          -545 1512 -20 hstem
          124 496 vstem
          124 614 rmoveto
          6 -216 42 -184 70 -186 20.696395874 -64.636932373 20.6383361816 -64.6949920654 20.6652679443 -64.6680755615 28 -74 30 -68 22 -8 112 0 104 -8 112 0 rrcurveto
          74 24 hlineto
          8.98458862305 4.49229431152 4.15802001953 11.0072784424 4.85739135742 8.50042724609 rrcurveto
          -56 200 rlineto
          -72 232 -48 230 -8 216 0 210 54 236 68 228 rrcurveto
          54 204 rlineto
          -6 22 -6 8 -18 2 -126 -2 -122 0 -126 -6 -6 0 -4 -2 -2 -2 -56 0 -180 -614 -20 -272 rrcurveto
          endchar
        </CharString>
        <CharString name="parenright">
          -543 1524 -20 hstem
          210 500 vstem
          210 590 rmoveto
          0 -288 -86 -332 -64 -218 -6 -14 -10 -32 0 -14 rrcurveto
          404 hlineto
          18 4 46 122 46 128 34.8933563232 106.439987183 33.5064849854 107.826843262 33.6001586914 107.733169556 28 106 22 112 0 106 0 236 -72 232 -84 218 rrcurveto
          -78 214 rlineto
          -12 22 -14 10 -18 0 rrcurveto
          -408 -40 hlineto
          74.6562957764 -259.755432129 115.281036377 -327.133117676 -3.93733215332 -307.111450195 rrcurveto
          endchar
        </CharString>
        <CharString name="partialdiff">
          79 -68 328 416 272 590 -20 hstem
          42 478 332 556 vstem
          1408 690 rmoveto
          0 208 -34 204 -120 178 -152 220 -290 38 -196 0 -32 0 -34 0 -32 -6 rrcurveto
          -80 -288 rlineto
          275.702102661 -33.6222076416 116.484573364 -127.913955688 11.8133239746 -198.46383667 -72 44 -94 14 -84 6 -264 0 -286 -132 0 -328 8 -400 342 -156 320 0 439.954071045 0 256.045928955 313.114212036 0 444.885787964 rrcurveto
          -888 -206 rmoveto
          10 118 48 74 114 0 rrcurveto
          132 28 -106 -94 -114 -28 -102 -132 -132 -40 118 106 hvcurveto
          endchar
        </CharString>
        <CharString name="percent">
          775 -60 234 346 232 -36 242 338 236 hstemhm
          18 348 198 348 324 346 204 350 hintmask 11011111
          18 1020 rmoveto
          -240 76 -260 358 352 108 256 280 226 -88 250 -344 vhcurveto
          -293.376037598 -168.623962402 -232.726242065 -279.273757935 hvcurveto
          348 hmoveto
          0 86 -2 184 108 6 rrcurveto
          86 6 -104 -84 hvcurveto
          -164 vlineto
          -60 0 -132 -90 -112 4 194 74 vhcurveto
          162 -1034 rmoveto
          28 -70 rlineto
          32 0 44 -4 48 0 64 0 54 6 10 22 170.918533325 359.748123169 174.2552948 356.411376953 190.826171875 339.840499878 91.749206543 180.250793457 91.1799926758 180.820007324 93.0708007812 178.929199219 rrcurveto
          2 -86 6 -78 vhcurveto
          -64 hlineto
          -6 -2 -4 -6 -6 -6 rrcurveto
          -46 -82 rlineto
          -268.273040771 -486.393615723 -266.358703613 -488.30796814 -267.368255615 -487.298416138 rrcurveto
          708 474 rmoveto
          -26 vlineto
          -222 70 -272 364 262 204 172 344 vhcurveto
          hintmask 10111111
          390 -240 112 -208 vhcurveto
          -294.362457275 0 -136.583343506 -224.295501709 -21.0541992188 -273.704498291 rrcurveto
          346 -48 rmoveto
          34 vlineto
          78 0 192 104 84 16 -108 -76 vhcurveto
          0 -14 0 -10 -2 -10 rrcurveto
          -26 vlineto
          0 -38 2 -40 0 -38 rrcurveto
          -76 -12 -106 -82 -102 -8 150 88 vhcurveto
          endchar
        </CharString>
        <CharString name="period">
          -603 -16 456 hstem
          114 542 vstem
          112 14 rmoveto
          32 -30 492 0 rlineto
          16 6 26 30 hvcurveto
          0 16 -2 14 0 14 rrcurveto
          34 vlineto
          0 96 -2 102 -2 96 rrcurveto
          24 -50 4 -46 vhcurveto
          -410 hlineto
          -28 -4 -152 -92 hvcurveto
          -52 vlineto
          0 -38 -2 -30 0 -32 rrcurveto
          endchar
        </CharString>
        <CharString name="perthousand">
          1279 -62 198 398 198 -92 200 396 204 hstemhm
          36 264 176 268 346 262 184 264 108 264 180 262 hintmask 1101111111000000
          36 964 rmoveto
          -34 vlineto
          16 -180 60 -216 274 0 rrcurveto
          208 150 148 310 212 -74 236 -274 -266 -96 -220 -232 hvcurveto
          264 hmoveto
          84 -4 164 104 70 12 -82 -70 vhcurveto
          0 -42 -4 -46 0 -16 0 -26 2 -28 0 -30 rrcurveto
          -66 -12 -98 -72 -78 -16 100 88 vhcurveto
          60 vlineto
          0 2 -2 4 0 2 rrcurveto
          102 -1004 rmoveto
          8 -22 6 -24 10 -22 54 -2 42 -2 48 0 42 0 40 6 10 22 101.760818481 189.572509766 101.013793945 190.319534302 101.225387573 190.107955933 160.678771973 293.321228027 159.820739746 294.179260254 159.500488281 294.499511719 -12 48 -20 8 -24 0 rrcurveto
          -22 0 -16 -4 -16 0 rrcurveto
          -70 hlineto
          -32 0 -30 -2 -6 -10 rrcurveto
          -192 -352 rlineto
          -201.313690186 -365.352966309 -201.473419189 -365.193267822 -201.212890625 -365.453765869 rrcurveto
          690 380 rmoveto
          -224 94 -202 268 202 146 154 296 vhcurveto
          hintmask 1011111111000000
          200 -54 252 -298 vhcurveto
          -260 0 -80 -210 -16 -242 0 -2 0 -4 -2 -6 rrcurveto
          262 -24 rmoveto
          78 vlineto
          88 12 122 88 78 6 -108 -60 vhcurveto
          -172 vlineto
          -70 -10 -94 -74 -94 -6 128 88 vhcurveto
          556 24 rmoveto
          -202 86 -234 264 228 128 170 260 190.564437866 -35.5115509033 279.435562134 -284.488449097 vhcurveto
          -248 0 -128 -152 -10 -300 rrcurveto
          264 4 rmoveto
          6 84 -6 162 96 0 rrcurveto
          2 vlineto
          66 18 -82 -74 hvcurveto
          0 -32 -2 -32 0 -32 0 -26 2 -24 0 -26 rrcurveto
          -54 -2 -122 -82 vhcurveto
          -2 vlineto
          -82 -14 110 80 hvcurveto
          endchar
        </CharString>
        <CharString name="pi">
          209 790 394 hstem
          120 2 116 488 172 506 vstem
          -18 1060 rmoveto
          8 -70 20 -218 42 0 58 12 60 6 58 0 6 -2 2 -6 2 -14 -2 -250 -50 -252 -64 -242 rrcurveto
          2 vlineto
          -2 -2 0 -6 0 -6 0 -10 4 -12 8 -6 rrcurveto
          220 hlineto
          74 -2 76 -2 74 0 74 0 64 566 12 244 rrcurveto
          172 -510 hlineto
          0 -96 0 -200 66 -16 rrcurveto
          432 hlineto
          26 10 8 12 0 24 -24 114 -2 108 0 106 0 146 4 144 2 144 24 4 22 0 22 0 rrcurveto
          44 0 41.1644134521 34.4365386963 30.8355865479 341.563461304 rlineto
          -4 18 -12 12 -22 4 -118 -8 -114 -2 -120 0 -160 0 -160 4 -160 0 -90 0 -86 -2 -88 -6 -140 0 -338 -14 0 -102 rrcurveto
          endchar
        </CharString>
        <CharString name="plus">
          -107 358 338 -320 312 hstemhm
          476 318 hintmask 10100000
          84 448 rmoveto
          0 -42 4 -42 30 -6 50 0 50 -2 50 0 26 0 24 2 26 0 30 0 28 -2 26 0 16 0 16 2 16 0 rrcurveto
          -370 244 vlineto
          58 16 8 44 hvcurveto
          168 vlineto
          hintmask 01100000
          0 56 -2 56 -2 56 rrcurveto
          370 hlineto
          10 4 32 26 hvcurveto
          34 vlineto
          0 58 2 58 0 58 0 30 -6 14 -22 2 rrcurveto
          -352 hlineto
          0 122 2 116 0 122 -6 24 -44 4 -46 0 rrcurveto
          -180 hlineto
          -54 0 -4 -16 -2 -44 rrcurveto
          hintmask 10100000
          -320 -322 vlineto
          -52 -4 -18 -54 hvcurveto
          0 -42 2 -40 0 -42 0 -8 0 -8 -2 -8 rrcurveto
          endchar
        </CharString>
</ttFont>
